Barrio.ufo
<glyph name="exclam" format="1">
  <advance width="242"/>
  <unicode hex="0021"/>
  <outline>
    <contour>
      <point x="47" y="673" type="curve"/>
      <point x="47" y="651" type="line" smooth="yes"/>
      <point x="47" y="647"/>
      <point x="50" y="610"/>
      <point x="57" y="541" type="curve" smooth="yes"/>
      <point x="64" y="472"/>
      <point x="68" y="414"/>
      <point x="69" y="367" type="curve" smooth="yes"/>
      <point x="71" y="289" type="line" smooth="yes"/>
      <point x="71" y="275"/>
      <point x="71" y="261"/>
      <point x="71" y="249" type="curve" smooth="yes"/>
      <point x="71" y="230"/>
      <point x="71" y="214"/>
      <point x="73" y="204" type="curve"/>
      <point x="74" y="187"/>
      <point x="74" y="172"/>
      <point x="97" y="173" type="curve"/>
      <point x="148" y="173" type="line"/>
      <point x="163" y="172"/>
      <point x="179" y="173"/>
      <point x="178" y="192" type="curve" smooth="yes"/>
      <point x="178" y="207"/>
      <point x="176" y="251"/>
      <point x="176" y="279" type="curve" smooth="yes"/>
      <point x="176" y="289"/>
      <point x="176" y="296"/>
      <point x="177" y="300" type="curve" smooth="yes"/>
      <point x="178" y="304"/>
      <point x="177" y="318"/>
      <point x="175" y="343" type="curve"/>
      <point x="175" y="356"/>
      <point x="174" y="370"/>
      <point x="174" y="386" type="curve" smooth="yes"/>
      <point x="174" y="403"/>
      <point x="175" y="421"/>
      <point x="175" y="440" type="curve"/>
      <point x="180" y="523"/>
      <point x="183" y="579"/>
      <point x="184" y="609" type="curve" smooth="yes"/>
      <point x="185" y="640"/>
      <point x="187" y="661"/>
      <point x="188" y="672" type="curve" smooth="yes"/>
      <point x="189" y="681"/>
      <point x="191" y="688"/>
      <point x="191" y="694" type="curve" smooth="yes"/>
      <point x="191" y="703"/>
      <point x="186" y="708"/>
      <point x="169" y="710" type="curve"/>
      <point x="124" y="713"/>
      <point x="92" y="710"/>
      <point x="75" y="711" type="curve"/>
      <point x="72" y="712"/>
      <point x="69" y="712"/>
      <point x="67" y="712" type="curve" smooth="yes"/>
      <point x="56" y="712"/>
      <point x="47" y="705"/>
    </contour>
    <contour>
      <point x="125" y="123" type="curve" smooth="yes"/>
      <point x="101" y="123"/>
      <point x="66" y="116"/>
      <point x="58" y="74" type="curve" smooth="yes"/>
      <point x="57" y="69"/>
      <point x="57" y="65"/>
      <point x="57" y="60" type="curve" smooth="yes"/>
      <point x="57" y="20"/>
      <point x="86" y="-15"/>
      <point x="119" y="-15" type="curve" smooth="yes"/>
      <point x="158" y="-15"/>
      <point x="189" y="26"/>
      <point x="189" y="46" type="curve"/>
      <point x="190" y="49"/>
      <point x="190" y="52"/>
      <point x="190" y="56" type="curve" smooth="yes"/>
      <point x="190" y="82"/>
      <point x="173" y="123"/>
    </contour>
  </outline>
</glyph>
<glyph name="quotedbl" format="1">
  <advance width="373"/>
  <unicode hex="0022"/>
  <outline>
    <contour>
      <point x="136" y="750" type="curve"/>
      <point x="87" y="750" type="line" smooth="yes"/>
      <point x="72" y="750"/>
      <point x="69" y="742"/>
      <point x="64" y="723" type="curve"/>
      <point x="64" y="669" type="line"/>
      <point x="67" y="665"/>
      <point x="68" y="656"/>
      <point x="68" y="642" type="curve" smooth="yes"/>
      <point x="68" y="629"/>
      <point x="67" y="611"/>
      <point x="64" y="589" type="curve"/>
      <point x="64" y="477" type="line" smooth="yes"/>
      <point x="64" y="458"/>
      <point x="69" y="441"/>
      <point x="72" y="441" type="curve" smooth="yes"/>
      <point x="131" y="441" type="line" smooth="yes"/>
      <point x="140" y="441"/>
      <point x="140" y="472"/>
      <point x="140" y="486" type="curve" smooth="yes"/>
      <point x="140" y="607" type="line"/>
      <point x="144" y="638"/>
      <point x="144" y="664"/>
      <point x="144" y="683" type="curve" smooth="yes"/>
      <point x="144" y="696"/>
      <point x="149" y="714"/>
      <point x="149" y="727" type="curve" smooth="yes"/>
      <point x="149" y="742"/>
      <point x="145" y="750"/>
    </contour>
    <contour>
      <point x="301" y="750" type="curve"/>
      <point x="251" y="750" type="line" smooth="yes"/>
      <point x="236" y="750"/>
      <point x="229" y="741"/>
      <point x="229" y="723" type="curve" smooth="yes"/>
      <point x="229" y="464" type="line" smooth="yes"/>
      <point x="229" y="449"/>
      <point x="225" y="441"/>
      <point x="242" y="441" type="curve" smooth="yes"/>
      <point x="297" y="441" type="line" smooth="yes"/>
      <point x="305" y="441"/>
      <point x="305" y="469"/>
      <point x="305" y="477" type="curve" smooth="yes"/>
      <point x="305" y="607" type="line" smooth="yes"/>
      <point x="305" y="638"/>
      <point x="309" y="664"/>
      <point x="309" y="683" type="curve" smooth="yes"/>
      <point x="309" y="696"/>
      <point x="309" y="714"/>
      <point x="314" y="727" type="curve"/>
      <point x="314" y="742"/>
      <point x="310" y="750"/>
    </contour>
  </outline>
</glyph>
<glyph name="dollar" format="1">
  <advance width="500"/>
  <unicode hex="0024"/>
  <outline>
    <contour>
      <point x="465" y="330"/>
      <point x="379" y="389"/>
      <point x="276" y="438" type="curve"/>
      <point x="276" y="464" type="line"/>
      <point x="272" y="499"/>
      <point x="272" y="536"/>
      <point x="272" y="571" type="curve"/>
      <point x="269" y="602"/>
      <point x="269" y="635"/>
      <point x="269" y="659" type="curve"/>
      <point x="361" y="651"/>
      <point x="397" y="567"/>
      <point x="424" y="559" type="curve"/>
      <point x="441" y="556"/>
      <point x="454" y="571"/>
      <point x="455" y="587" type="curve"/>
      <point x="462" y="606"/>
      <point x="460" y="622"/>
      <point x="449" y="635" type="curve"/>
      <point x="397" y="686"/>
      <point x="333" y="713"/>
      <point x="269" y="721" type="curve"/>
      <point x="269" y="756" type="line" smooth="yes"/>
      <point x="269" y="769"/>
      <point x="262" y="776"/>
      <point x="249" y="776" type="curve" smooth="yes"/>
      <point x="235" y="776" type="line"/>
      <point x="227" y="772"/>
      <point x="219" y="772"/>
      <point x="208" y="772" type="curve" smooth="yes"/>
      <point x="201" y="772"/>
      <point x="198" y="768"/>
      <point x="198" y="759" type="curve"/>
      <point x="202" y="748"/>
      <point x="202" y="741"/>
      <point x="202" y="729" type="curve" smooth="yes"/>
      <point x="202" y="717" type="line"/>
      <point x="167" y="709"/>
      <point x="128" y="692"/>
      <point x="99" y="671" type="curve"/>
      <point x="-3" y="574"/>
      <point x="9" y="443"/>
      <point x="122" y="365" type="curve" smooth="yes"/>
      <point x="145" y="350"/>
      <point x="178" y="331"/>
      <point x="215" y="308" type="curve"/>
      <point x="215" y="272" type="line"/>
      <point x="215" y="204" type="line" smooth="yes"/>
      <point x="215" y="171"/>
      <point x="212" y="142"/>
      <point x="212" y="110" type="curve" smooth="yes"/>
      <point x="212" y="47" type="line"/>
      <point x="152" y="50"/>
      <point x="92" y="81"/>
      <point x="60" y="117" type="curve"/>
      <point x="47" y="129"/>
      <point x="43" y="121"/>
      <point x="39" y="117" type="curve" smooth="yes"/>
      <point x="10" y="81"/>
      <point x="18" y="66"/>
      <point x="66" y="31" type="curve"/>
      <point x="108" y="-5"/>
      <point x="155" y="-23"/>
      <point x="208" y="-23" type="curve"/>
      <point x="208" y="-26" type="line" smooth="yes"/>
      <point x="206" y="-39"/>
      <point x="206" y="-48"/>
      <point x="208" y="-53" type="curve"/>
      <point x="212" y="-57"/>
      <point x="215" y="-61"/>
      <point x="219" y="-61" type="curve"/>
      <point x="223" y="-66"/>
      <point x="230" y="-68"/>
      <point x="241" y="-68" type="curve" smooth="yes"/>
      <point x="269" y="-68" type="line" smooth="yes"/>
      <point x="272" y="-68"/>
      <point x="275" y="-65"/>
      <point x="278" y="-65" type="curve"/>
      <point x="277" y="-64"/>
      <point x="277" y="-64"/>
      <point x="278" y="-63" type="curve"/>
      <point x="278" y="-62"/>
      <point x="279" y="-61"/>
      <point x="282" y="-61" type="curve"/>
      <point x="282" y="-44" type="line"/>
      <point x="278" y="-37"/>
      <point x="278" y="-30"/>
      <point x="278" y="-23" type="curve"/>
      <point x="396" y="-4"/>
      <point x="489" y="54"/>
      <point x="478" y="196" type="curve"/>
    </contour>
    <contour>
      <point x="140" y="611"/>
      <point x="168" y="638"/>
      <point x="205" y="654" type="curve"/>
      <point x="205" y="594" type="line" smooth="yes"/>
      <point x="205" y="579"/>
      <point x="208" y="556"/>
      <point x="208" y="528" type="curve" smooth="yes"/>
      <point x="208" y="473" type="line"/>
      <point x="172" y="492"/>
      <point x="140" y="525"/>
      <point x="140" y="568" type="curve" smooth="yes"/>
    </contour>
    <contour>
      <point x="312" y="73"/>
      <point x="299" y="61"/>
      <point x="278" y="54" type="curve"/>
      <point x="278" y="90" type="line" smooth="yes"/>
      <point x="278" y="117"/>
      <point x="277" y="142"/>
      <point x="276" y="171" type="curve"/>
      <point x="276" y="255" type="line"/>
      <point x="276" y="260" type="line"/>
      <point x="330" y="211"/>
      <point x="370" y="154"/>
      <point x="328" y="93" type="curve"/>
    </contour>
  </outline>
</glyph>
<glyph name="quotesingle" format="1">
  <advance width="205"/>
  <unicode hex="0027"/>
  <outline>
    <contour>
      <point x="141" y="746" type="curve"/>
      <point x="91" y="746" type="line" smooth="yes"/>
      <point x="74" y="746"/>
      <point x="66" y="738"/>
      <point x="66" y="721" type="curve" smooth="yes"/>
      <point x="66" y="483" type="line" smooth="yes"/>
      <point x="66" y="470"/>
      <point x="66" y="461"/>
      <point x="81" y="458" type="curve"/>
      <point x="91" y="457"/>
      <point x="102" y="456"/>
      <point x="112" y="456" type="curve" smooth="yes"/>
      <point x="124" y="456"/>
      <point x="134" y="457"/>
      <point x="140" y="459" type="curve" smooth="yes"/>
      <point x="148" y="462"/>
      <point x="149" y="484"/>
      <point x="149" y="492" type="curve" smooth="yes"/>
      <point x="150" y="613" type="line" smooth="yes"/>
      <point x="150" y="642"/>
      <point x="154" y="667"/>
      <point x="154" y="684" type="curve" smooth="yes"/>
      <point x="154" y="696"/>
      <point x="154" y="709"/>
      <point x="155" y="724" type="curve"/>
      <point x="155" y="741"/>
      <point x="149" y="746"/>
    </contour>
  </outline>
</glyph>
<glyph name="parenleft" format="1">
  <advance width="370"/>
  <unicode hex="0028"/>
  <outline>
    <contour>
      <point x="310" y="730" type="curve"/>
      <point x="228" y="730" type="line" smooth="yes"/>
      <point x="218" y="730"/>
      <point x="205" y="738"/>
      <point x="193" y="738" type="curve" smooth="yes"/>
      <point x="188" y="738"/>
      <point x="182" y="736"/>
      <point x="178" y="730" type="curve" smooth="yes"/>
      <point x="165" y="710"/>
      <point x="32" y="633"/>
      <point x="32" y="416" type="curve" smooth="yes"/>
      <point x="32" y="23"/>
      <point x="185" y="-28"/>
      <point x="205" y="-44" type="curve" smooth="yes"/>
      <point x="225" y="-59"/>
      <point x="242" y="-58"/>
      <point x="262" y="-58" type="curve" smooth="yes"/>
      <point x="283" y="-58"/>
      <point x="317" y="-50"/>
      <point x="334" y="-50" type="curve" smooth="yes"/>
      <point x="341" y="-50"/>
      <point x="344" y="-48"/>
      <point x="344" y="-45" type="curve" smooth="yes"/>
      <point x="344" y="-42"/>
      <point x="342" y="-38"/>
      <point x="337" y="-33" type="curve" smooth="yes"/>
      <point x="326" y="-22"/>
      <point x="164" y="133"/>
      <point x="164" y="365" type="curve" smooth="yes"/>
      <point x="164" y="603"/>
      <point x="283" y="687"/>
      <point x="307" y="703" type="curve" smooth="yes"/>
      <point x="319" y="712"/>
      <point x="326" y="719"/>
      <point x="326" y="724" type="curve" smooth="yes"/>
      <point x="326" y="728"/>
      <point x="321" y="730"/>
    </contour>
  </outline>
</glyph>
<glyph name="comma" format="1">
  <advance width="183"/>
  <unicode hex="002C"/>
  <outline>
    <contour>
      <point x="168" y="123" type="curve"/>
      <point x="168" y="128"/>
      <point x="162" y="130"/>
      <point x="156" y="130" type="curve"/>
      <point x="105" y="130" type="line" smooth="yes"/>
      <point x="92" y="130"/>
      <point x="80" y="123"/>
      <point x="77" y="111" type="curve"/>
      <point x="64" y="73" type="line"/>
      <point x="47" y="12" type="line"/>
      <point x="23" y="-76" type="line"/>
      <point x="23" y="-87"/>
      <point x="19" y="-96"/>
      <point x="35" y="-96" type="curve"/>
      <point x="45" y="-98"/>
      <point x="57" y="-98"/>
      <point x="68" y="-98" type="curve"/>
      <point x="79" y="-98"/>
      <point x="90" y="-98"/>
      <point x="96" y="-96" type="curve"/>
      <point x="103" y="-92"/>
      <point x="108" y="-76"/>
      <point x="111" y="-71" type="curve"/>
      <point x="111" y="-65"/>
      <point x="129" y="4"/>
      <point x="137" y="25" type="curve"/>
      <point x="144" y="50"/>
      <point x="153" y="69"/>
      <point x="156" y="82" type="curve"/>
      <point x="160" y="93"/>
      <point x="162" y="101"/>
      <point x="165" y="114" type="curve"/>
      <point x="167" y="118"/>
      <point x="168" y="121"/>
    </contour>
  </outline>
</glyph>
<glyph name="hyphen" format="1">
  <advance width="500"/>
  <unicode hex="002D"/>
  <outline>
    <contour>
      <point x="439" y="300" type="line" smooth="yes"/>
      <point x="439" y="307"/>
      <point x="443" y="317"/>
      <point x="430" y="317" type="curve"/>
      <point x="290" y="317" type="line" smooth="yes"/>
      <point x="239" y="317"/>
      <point x="207" y="316"/>
      <point x="192" y="315" type="curve"/>
      <point x="178" y="314"/>
      <point x="167" y="314"/>
      <point x="158" y="314" type="curve"/>
      <point x="86" y="314" type="line"/>
      <point x="80" y="315"/>
      <point x="75" y="316"/>
      <point x="71" y="316" type="curve"/>
      <point x="64" y="316"/>
      <point x="60" y="314"/>
      <point x="60" y="310" type="curve"/>
      <point x="57" y="303"/>
      <point x="64" y="263"/>
      <point x="64" y="251" type="curve"/>
      <point x="64" y="240"/>
      <point x="59" y="235"/>
      <point x="82" y="235" type="curve"/>
      <point x="93" y="235"/>
      <point x="118" y="233"/>
      <point x="142" y="233" type="curve"/>
      <point x="154" y="233"/>
      <point x="166" y="233"/>
      <point x="175" y="235" type="curve"/>
      <point x="186" y="235"/>
      <point x="202" y="236"/>
      <point x="259" y="236" type="curve"/>
      <point x="318" y="237"/>
      <point x="332" y="238"/>
      <point x="345" y="238" type="curve"/>
      <point x="370" y="238"/>
      <point x="405" y="241"/>
      <point x="413" y="241" type="curve"/>
      <point x="418" y="241"/>
      <point x="424" y="240"/>
      <point x="428" y="240" type="curve"/>
      <point x="435" y="240"/>
      <point x="439" y="242"/>
      <point x="439" y="248" type="curve"/>
    </contour>
  </outline>
</glyph>
<glyph name="period" format="1">
  <advance width="235"/>
  <unicode hex="002E"/>
  <outline>
    <contour>
      <point x="194" y="47" type="curve"/>
      <point x="194" y="79"/>
      <point x="188" y="136"/>
      <point x="118" y="136" type="curve"/>
      <point x="85" y="136"/>
      <point x="46" y="127"/>
      <point x="46" y="68" type="curve"/>
      <point x="46" y="13"/>
      <point x="82" y="-12"/>
      <point x="118" y="-12" type="curve"/>
      <point x="155" y="-12"/>
      <point x="194" y="14"/>
    </contour>
  </outline>
</glyph>
<glyph name="slash" format="1">
  <advance width="329"/>
  <unicode hex="002F"/>
  <outline>
    <contour>
      <point x="313" y="712"/>
      <point x="285" y="713"/>
      <point x="276" y="713" type="curve"/>
      <point x="265" y="709"/>
      <point x="251" y="685"/>
      <point x="243" y="660" type="curve"/>
      <point x="237" y="634"/>
      <point x="216" y="560"/>
      <point x="197" y="520" type="curve"/>
      <point x="184" y="483"/>
      <point x="119" y="309"/>
      <point x="97" y="244" type="curve"/>
      <point x="79" y="176"/>
      <point x="28" y="46"/>
      <point x="18" y="15" type="curve"/>
      <point x="5" y="-15"/>
      <point x="12" y="-4"/>
      <point x="4" y="-14" type="curve"/>
      <point x="0" y="-25"/>
      <point x="-1" y="-31"/>
      <point x="18" y="-35" type="curve" smooth="yes"/>
      <point x="33" y="-39"/>
      <point x="57" y="-43"/>
      <point x="68" y="-31" type="curve"/>
      <point x="79" y="-24"/>
      <point x="86" y="-22"/>
      <point x="90" y="1" type="curve" smooth="yes"/>
      <point x="93" y="23"/>
      <point x="155" y="190"/>
      <point x="168" y="226" type="curve"/>
      <point x="184" y="261"/>
      <point x="232" y="419"/>
      <point x="251" y="470" type="curve"/>
      <point x="264" y="520"/>
      <point x="307" y="624"/>
      <point x="315" y="645" type="curve" smooth="yes"/>
      <point x="326" y="670"/>
      <point x="332" y="706"/>
      <point x="322" y="709" type="curve" smooth="yes"/>
    </contour>
  </outline>
</glyph>
<glyph name="zero" format="1">
  <advance width="500"/>
  <unicode hex="0030"/>
  <outline>
    <contour>
      <point x="367" y="4"/>
      <point x="440" y="73"/>
      <point x="456" y="176" type="curve"/>
      <point x="465" y="228"/>
      <point x="469" y="285"/>
      <point x="469" y="347" type="curve" smooth="yes"/>
      <point x="469" y="409"/>
      <point x="467" y="463"/>
      <point x="463" y="510" type="curve" smooth="yes"/>
      <point x="459" y="557"/>
      <point x="445" y="602"/>
      <point x="422" y="643" type="curve" smooth="yes"/>
      <point x="399" y="684"/>
      <point x="351" y="710"/>
      <point x="277" y="721" type="curve"/>
      <point x="220" y="720"/>
      <point x="176" y="712"/>
      <point x="146" y="698" type="curve" smooth="yes"/>
      <point x="116" y="684"/>
      <point x="92" y="662"/>
      <point x="73" y="632" type="curve" smooth="yes"/>
      <point x="37" y="573"/>
      <point x="30" y="474"/>
      <point x="30" y="374" type="curve" smooth="yes"/>
      <point x="30" y="274"/>
      <point x="33" y="210"/>
      <point x="39" y="181" type="curve" smooth="yes"/>
      <point x="46" y="152"/>
      <point x="58" y="121"/>
      <point x="77" y="86" type="curve" smooth="yes"/>
      <point x="95" y="53"/>
      <point x="113" y="31"/>
      <point x="130" y="22" type="curve" smooth="yes"/>
      <point x="147" y="13"/>
      <point x="187" y="7"/>
      <point x="248" y="4" type="curve"/>
    </contour>
    <contour>
      <point x="291" y="665"/>
      <point x="314" y="665"/>
      <point x="336" y="663" type="curve" smooth="yes"/>
      <point x="359" y="661"/>
      <point x="376" y="649"/>
      <point x="388" y="628" type="curve" smooth="yes"/>
      <point x="400" y="607"/>
      <point x="408" y="576"/>
      <point x="413" y="537" type="curve" smooth="yes"/>
      <point x="418" y="498"/>
      <point x="418" y="436"/>
      <point x="415" y="349" type="curve"/>
      <point x="415" y="328"/>
      <point x="416" y="296"/>
      <point x="417" y="254" type="curve" smooth="yes"/>
      <point x="418" y="213"/>
      <point x="411" y="178"/>
      <point x="395" y="151" type="curve" smooth="yes"/>
      <point x="363" y="96"/>
      <point x="316" y="68"/>
      <point x="280" y="68" type="curve" smooth="yes"/>
      <point x="249" y="68"/>
      <point x="226" y="77"/>
      <point x="212" y="96" type="curve" smooth="yes"/>
      <point x="198" y="115"/>
      <point x="181" y="135"/>
      <point x="162" y="158" type="curve" smooth="yes"/>
      <point x="143" y="181"/>
      <point x="133" y="219"/>
      <point x="131" y="274" type="curve" smooth="yes"/>
      <point x="130" y="329"/>
      <point x="129" y="361"/>
      <point x="129" y="371" type="curve" smooth="yes"/>
      <point x="129" y="425"/>
      <point x="128" y="467"/>
      <point x="127" y="498" type="curve" smooth="yes"/>
      <point x="126" y="529"/>
      <point x="132" y="557"/>
      <point x="145" y="583" type="curve" smooth="yes"/>
      <point x="158" y="609"/>
      <point x="176" y="629"/>
      <point x="201" y="642" type="curve" smooth="yes"/>
      <point x="226" y="656"/>
      <point x="249" y="663"/>
      <point x="268" y="663" type="curve"/>
    </contour>
    <contour>
      <point x="258" y="416"/>
      <point x="232" y="410"/>
      <point x="232" y="366" type="curve" smooth="yes"/>
      <point x="232" y="326"/>
      <point x="257" y="308"/>
      <point x="281" y="308" type="curve" smooth="yes"/>
      <point x="306" y="308"/>
      <point x="332" y="327"/>
      <point x="332" y="351" type="curve" smooth="yes"/>
      <point x="332" y="375"/>
      <point x="328" y="416"/>
      <point x="281" y="416" type="curve" smooth="yes"/>
    </contour>
  </outline>
</glyph>
<glyph name="one" format="1">
  <advance width="500"/>
  <unicode hex="0031"/>
  <outline>
    <contour>
      <point x="102" y="559" type="curve"/>
      <point x="190" y="587" type="line"/>
      <point x="187" y="490" type="line" smooth="yes"/>
      <point x="186" y="473"/>
      <point x="186" y="456"/>
      <point x="186" y="439" type="curve" smooth="yes"/>
      <point x="186" y="422"/>
      <point x="187" y="406"/>
      <point x="187" y="389" type="curve"/>
      <point x="189" y="362"/>
      <point x="190" y="331"/>
      <point x="189" y="295" type="curve"/>
      <point x="189" y="205" type="line"/>
      <point x="190" y="180"/>
      <point x="190" y="161"/>
      <point x="190" y="148" type="curve" smooth="yes"/>
      <point x="190" y="135"/>
      <point x="190" y="121"/>
      <point x="189" y="105" type="curve" smooth="yes"/>
      <point x="188" y="90"/>
      <point x="173" y="82"/>
      <point x="140" y="83" type="curve"/>
      <point x="110" y="76"/>
      <point x="103" y="69"/>
      <point x="59" y="63" type="curve"/>
      <point x="51" y="61"/>
      <point x="47" y="52"/>
      <point x="47" y="38" type="curve"/>
      <point x="46" y="35"/>
      <point x="47" y="32"/>
      <point x="47" y="29" type="curve" smooth="yes"/>
      <point x="50" y="10"/>
      <point x="55" y="0"/>
      <point x="62" y="0" type="curve" smooth="yes"/>
      <point x="91" y="2"/>
      <point x="118" y="3"/>
      <point x="141" y="3" type="curve" smooth="yes"/>
      <point x="155" y="3"/>
      <point x="168" y="2"/>
      <point x="180" y="2" type="curve" smooth="yes"/>
      <point x="234" y="4"/>
      <point x="277" y="6"/>
      <point x="309" y="8" type="curve"/>
      <point x="330" y="7"/>
      <point x="349" y="6"/>
      <point x="365" y="4" type="curve" smooth="yes"/>
      <point x="381" y="2"/>
      <point x="405" y="1"/>
      <point x="438" y="0" type="curve" smooth="yes"/>
      <point x="456" y="-1"/>
      <point x="464" y="6"/>
      <point x="463" y="20" type="curve" smooth="yes"/>
      <point x="460" y="63" type="line" smooth="yes"/>
      <point x="460" y="69"/>
      <point x="420" y="74"/>
      <point x="341" y="77" type="curve"/>
      <point x="332" y="119"/>
      <point x="335" y="225"/>
      <point x="333" y="260" type="curve"/>
      <point x="333" y="303"/>
      <point x="332" y="332"/>
      <point x="331" y="348" type="curve" smooth="yes"/>
      <point x="328" y="409" type="line"/>
      <point x="328" y="479" type="line"/>
      <point x="334" y="571" type="line"/>
      <point x="335" y="610"/>
      <point x="337" y="640"/>
      <point x="337" y="691" type="curve" smooth="yes"/>
      <point x="337" y="698"/>
      <point x="329" y="704"/>
      <point x="314" y="704" type="curve" smooth="yes"/>
      <point x="307" y="704"/>
      <point x="299" y="703"/>
      <point x="289" y="700" type="curve"/>
      <point x="213" y="662"/>
      <point x="143" y="642"/>
      <point x="78" y="639" type="curve"/>
      <point x="63" y="633"/>
      <point x="55" y="627"/>
      <point x="52" y="620" type="curve" smooth="yes"/>
      <point x="50" y="613"/>
      <point x="49" y="596"/>
      <point x="50" y="569" type="curve" smooth="yes"/>
      <point x="50" y="564"/>
      <point x="51" y="560"/>
      <point x="53" y="557" type="curve"/>
      <point x="53" y="554"/>
      <point x="57" y="552"/>
      <point x="64" y="552" type="curve" smooth="yes"/>
      <point x="72" y="552"/>
      <point x="84" y="555"/>
    </contour>
  </outline>
</glyph>
<glyph name="two" format="1">
  <advance width="500"/>
  <unicode hex="0032"/>
  <outline>
    <contour>
      <point x="222" y="720"/>
      <point x="125" y="660"/>
      <point x="103" y="638" type="curve" smooth="yes"/>
      <point x="80" y="615"/>
      <point x="59" y="589"/>
      <point x="54" y="582" type="curve" smooth="yes"/>
      <point x="49" y="575"/>
      <point x="51" y="573"/>
      <point x="55" y="569" type="curve" smooth="yes"/>
      <point x="60" y="565"/>
      <point x="68" y="561"/>
      <point x="72" y="557" type="curve" smooth="yes"/>
      <point x="77" y="553"/>
      <point x="79" y="549"/>
      <point x="86" y="553" type="curve" smooth="yes"/>
      <point x="92" y="556"/>
      <point x="130" y="609"/>
      <point x="155" y="620" type="curve" smooth="yes"/>
      <point x="182" y="631"/>
      <point x="216" y="646"/>
      <point x="276" y="646" type="curve" smooth="yes"/>
      <point x="335" y="646"/>
      <point x="408" y="574"/>
      <point x="368" y="474" type="curve" smooth="yes"/>
      <point x="328" y="375"/>
      <point x="261" y="305"/>
      <point x="219" y="255" type="curve" smooth="yes"/>
      <point x="177" y="205"/>
      <point x="72" y="69"/>
      <point x="56" y="50" type="curve" smooth="yes"/>
      <point x="40" y="31"/>
      <point x="32" y="23"/>
      <point x="32" y="12" type="curve" smooth="yes"/>
      <point x="32" y="0"/>
      <point x="50" y="-1"/>
      <point x="65" y="2" type="curve" smooth="yes"/>
      <point x="79" y="5"/>
      <point x="243" y="2"/>
      <point x="277" y="2" type="curve"/>
      <point x="311" y="-1"/>
      <point x="403" y="3"/>
      <point x="429" y="3" type="curve" smooth="yes"/>
      <point x="457" y="3"/>
      <point x="468" y="4"/>
      <point x="468" y="31" type="curve" smooth="yes"/>
      <point x="468" y="58"/>
      <point x="467" y="90"/>
      <point x="468" y="107" type="curve" smooth="yes"/>
      <point x="468" y="123"/>
      <point x="475" y="141"/>
      <point x="437" y="138" type="curve" smooth="yes"/>
      <point x="399" y="135"/>
      <point x="296" y="134"/>
      <point x="261" y="134" type="curve"/>
      <point x="225" y="131"/>
      <point x="188" y="134"/>
      <point x="181" y="134" type="curve" smooth="yes"/>
      <point x="174" y="134"/>
      <point x="182" y="142"/>
      <point x="189" y="149" type="curve" smooth="yes"/>
      <point x="194" y="154"/>
      <point x="337" y="338"/>
      <point x="365" y="385" type="curve" smooth="yes"/>
      <point x="394" y="432"/>
      <point x="433" y="487"/>
      <point x="433" y="566" type="curve" smooth="yes"/>
      <point x="433" y="644"/>
      <point x="372" y="720"/>
      <point x="276" y="720" type="curve" smooth="yes"/>
    </contour>
  </outline>
</glyph>
<glyph name="four" format="1">
  <advance width="500"/>
  <unicode hex="0034"/>
  <outline>
    <contour>
      <point x="466" y="277"/>
      <point x="471" y="298"/>
      <point x="460" y="298" type="curve" smooth="yes"/>
      <point x="444" y="298"/>
      <point x="422" y="295"/>
      <point x="417" y="295" type="curve" smooth="yes"/>
      <point x="408" y="295"/>
      <point x="403" y="299"/>
      <point x="403" y="330" type="curve" smooth="yes"/>
      <point x="403" y="605"/>
      <point x="410" y="639"/>
      <point x="410" y="695" type="curve" smooth="yes"/>
      <point x="410" y="726"/>
      <point x="403" y="718"/>
      <point x="376" y="723" type="curve"/>
      <point x="374" y="722"/>
      <point x="371" y="721"/>
      <point x="367" y="721" type="curve" smooth="yes"/>
      <point x="360" y="721" type="line" smooth="yes"/>
      <point x="352" y="721"/>
      <point x="344" y="719"/>
      <point x="333" y="704" type="curve" smooth="yes"/>
      <point x="324" y="692"/>
      <point x="296" y="648"/>
      <point x="223" y="544" type="curve"/>
      <point x="117" y="401"/>
      <point x="125" y="423"/>
      <point x="88" y="367" type="curve" smooth="yes"/>
      <point x="35" y="288"/>
      <point x="29" y="301"/>
      <point x="29" y="267" type="curve" smooth="yes"/>
      <point x="29" y="254"/>
      <point x="28" y="239"/>
      <point x="52" y="239" type="curve" smooth="yes"/>
      <point x="71" y="239"/>
      <point x="130" y="243"/>
      <point x="170" y="243" type="curve" smooth="yes"/>
      <point x="190" y="243"/>
      <point x="197" y="241"/>
      <point x="216" y="241" type="curve" smooth="yes"/>
      <point x="256" y="241"/>
      <point x="311" y="246"/>
      <point x="323" y="246" type="curve" smooth="yes"/>
      <point x="336" y="246"/>
      <point x="345" y="242"/>
      <point x="345" y="219" type="curve" smooth="yes"/>
      <point x="345" y="117"/>
      <point x="343" y="151"/>
      <point x="340" y="90" type="curve"/>
      <point x="340" y="42" type="line" smooth="yes"/>
      <point x="340" y="9"/>
      <point x="341" y="6"/>
      <point x="352" y="6" type="curve" smooth="yes"/>
      <point x="367" y="6"/>
      <point x="397" y="1"/>
      <point x="397" y="25" type="curve" smooth="yes"/>
      <point x="397" y="35" type="line" smooth="yes"/>
      <point x="397" y="47"/>
      <point x="399" y="231"/>
      <point x="401" y="231" type="curve"/>
      <point x="401" y="224"/>
      <point x="402" y="213"/>
      <point x="402" y="216" type="curve" smooth="yes"/>
      <point x="402" y="233"/>
      <point x="401" y="246"/>
      <point x="420" y="246" type="curve" smooth="yes"/>
      <point x="435" y="246"/>
      <point x="448" y="248"/>
      <point x="455" y="248" type="curve" smooth="yes"/>
      <point x="460" y="248" type="line" smooth="yes"/>
      <point x="464" y="248"/>
      <point x="470" y="251"/>
      <point x="470" y="259" type="curve" smooth="yes"/>
      <point x="470" y="260"/>
      <point x="469" y="261"/>
      <point x="469" y="264" type="curve" smooth="yes"/>
    </contour>
    <contour>
      <point x="348" y="628"/>
      <point x="346" y="521"/>
      <point x="346" y="500" type="curve"/>
      <point x="344" y="450" type="line"/>
      <point x="344" y="316"/>
      <point x="346" y="291"/>
      <point x="318" y="291" type="curve" smooth="yes"/>
      <point x="266" y="291" type="line" smooth="yes"/>
      <point x="207" y="291"/>
      <point x="171" y="288"/>
      <point x="160" y="288" type="curve" smooth="yes"/>
      <point x="143" y="288"/>
      <point x="122" y="290"/>
      <point x="109" y="290" type="curve" smooth="yes"/>
      <point x="94" y="290"/>
      <point x="90" y="286"/>
      <point x="85" y="286" type="curve" smooth="yes"/>
      <point x="82" y="286"/>
      <point x="80" y="288"/>
      <point x="80" y="293" type="curve" smooth="yes"/>
      <point x="80" y="319"/>
      <point x="104" y="315"/>
      <point x="144" y="377" type="curve"/>
      <point x="160" y="398"/>
      <point x="173" y="409"/>
      <point x="227" y="484" type="curve" smooth="yes"/>
      <point x="293" y="576" type="line"/>
      <point x="336" y="645"/>
      <point x="347" y="664"/>
      <point x="350" y="664" type="curve"/>
      <point x="350" y="663" type="line"/>
      <point x="350" y="662"/>
      <point x="351" y="662"/>
      <point x="351" y="661" type="curve" smooth="yes"/>
      <point x="351" y="648"/>
      <point x="348" y="637"/>
      <point x="348" y="624" type="curve" smooth="yes"/>
    </contour>
  </outline>
</glyph>
<glyph name="five" format="1">
  <advance width="500"/>
  <unicode hex="0035"/>
  <outline>
    <contour>
      <point x="87" y="717"/>
      <point x="36" y="731"/>
      <point x="36" y="674" type="curve" smooth="yes"/>
      <point x="36" y="618"/>
      <point x="46" y="446"/>
      <point x="43" y="408" type="curve" smooth="yes"/>
      <point x="42" y="389"/>
      <point x="39" y="371"/>
      <point x="38" y="356" type="curve" smooth="yes"/>
      <point x="37" y="341"/>
      <point x="39" y="316"/>
      <point x="48" y="316" type="curve" smooth="yes"/>
      <point x="57" y="316"/>
      <point x="95" y="315"/>
      <point x="140" y="315" type="curve"/>
      <point x="147" y="314"/>
      <point x="157" y="319"/>
      <point x="170" y="330" type="curve" smooth="yes"/>
      <point x="183" y="341"/>
      <point x="197" y="348"/>
      <point x="212" y="353" type="curve" smooth="yes"/>
      <point x="227" y="358"/>
      <point x="250" y="362"/>
      <point x="281" y="364" type="curve"/>
      <point x="320" y="361"/>
      <point x="340" y="337"/>
      <point x="345" y="296" type="curve"/>
      <point x="345" y="252"/>
      <point x="343" y="237"/>
      <point x="314" y="210" type="curve"/>
      <point x="285" y="185"/>
      <point x="260" y="172"/>
      <point x="231" y="172" type="curve" smooth="yes"/>
      <point x="171" y="172"/>
      <point x="142" y="200"/>
      <point x="138" y="228" type="curve" smooth="yes"/>
      <point x="135" y="256"/>
      <point x="144" y="271"/>
      <point x="117" y="271" type="curve" smooth="yes"/>
      <point x="90" y="271"/>
      <point x="63" y="270"/>
      <point x="51" y="270" type="curve" smooth="yes"/>
      <point x="38" y="270"/>
      <point x="35" y="249"/>
      <point x="40" y="216" type="curve" smooth="yes"/>
      <point x="44" y="183"/>
      <point x="16" y="-40"/>
      <point x="249" y="-40" type="curve" smooth="yes"/>
      <point x="438" y="-40"/>
      <point x="455" y="142"/>
      <point x="467" y="202" type="curve" smooth="yes"/>
      <point x="470" y="217"/>
      <point x="472" y="230"/>
      <point x="473" y="242" type="curve" smooth="yes"/>
      <point x="474" y="255"/>
      <point x="473" y="279"/>
      <point x="469" y="314" type="curve"/>
      <point x="453" y="393"/>
      <point x="396" y="444"/>
      <point x="292" y="449" type="curve"/>
      <point x="237" y="446"/>
      <point x="200" y="431"/>
      <point x="176" y="419" type="curve" smooth="yes"/>
      <point x="165" y="414"/>
      <point x="150" y="403"/>
      <point x="133" y="387" type="curve"/>
      <point x="133" y="428" type="line"/>
      <point x="134" y="435"/>
      <point x="134" y="446"/>
      <point x="134" y="459" type="curve" smooth="yes"/>
      <point x="135" y="487"/>
      <point x="136" y="513"/>
      <point x="136" y="524" type="curve" smooth="yes"/>
      <point x="136" y="545"/>
      <point x="141" y="561"/>
      <point x="182" y="561" type="curve" smooth="yes"/>
      <point x="223" y="561"/>
      <point x="371" y="567"/>
      <point x="399" y="564" type="curve" smooth="yes"/>
      <point x="427" y="561"/>
      <point x="458" y="557"/>
      <point x="458" y="583" type="curve" smooth="yes"/>
      <point x="458" y="607"/>
      <point x="462" y="659"/>
      <point x="462" y="680" type="curve" smooth="yes"/>
      <point x="462" y="700"/>
      <point x="471" y="720"/>
      <point x="429" y="720" type="curve" smooth="yes"/>
      <point x="386" y="720"/>
      <point x="283" y="724"/>
      <point x="240" y="721" type="curve"/>
      <point x="199" y="720"/>
      <point x="152" y="717"/>
      <point x="113" y="717" type="curve" smooth="yes"/>
    </contour>
  </outline>
</glyph>
<glyph name="seven" format="1">
  <advance width="500"/>
  <unicode hex="0037"/>
  <outline>
    <contour>
      <point x="296" y="413" type="curve"/>
      <point x="126" y="413" type="line" smooth="yes"/>
      <point x="111" y="413"/>
      <point x="107" y="401"/>
      <point x="107" y="380" type="curve" smooth="yes"/>
      <point x="107" y="310" type="line" smooth="yes"/>
      <point x="107" y="297"/>
      <point x="107" y="287"/>
      <point x="120" y="287" type="curve"/>
      <point x="133" y="290"/>
      <point x="191" y="293"/>
      <point x="206" y="293" type="curve" smooth="yes"/>
      <point x="219" y="293" type="line"/>
      <point x="191" y="250"/>
      <point x="168" y="213"/>
      <point x="160" y="196" type="curve"/>
      <point x="136" y="156"/>
      <point x="81" y="63"/>
      <point x="67" y="41" type="curve" smooth="yes"/>
      <point x="57" y="26"/>
      <point x="51" y="17"/>
      <point x="51" y="11" type="curve" smooth="yes"/>
      <point x="51" y="7"/>
      <point x="53" y="3"/>
      <point x="58" y="0" type="curve" smooth="yes"/>
      <point x="71" y="-8"/>
      <point x="75" y="-18"/>
      <point x="81" y="-18" type="curve" smooth="yes"/>
      <point x="82" y="-18"/>
      <point x="84" y="-18"/>
      <point x="85" y="-17" type="curve" smooth="yes"/>
      <point x="93" y="-12"/>
      <point x="112" y="25"/>
      <point x="133" y="58" type="curve" smooth="yes"/>
      <point x="153" y="90"/>
      <point x="239" y="238"/>
      <point x="276" y="293" type="curve"/>
      <point x="288" y="293"/>
      <point x="298" y="294"/>
      <point x="307" y="294" type="curve" smooth="yes"/>
      <point x="321" y="294"/>
      <point x="331" y="293"/>
      <point x="338" y="292" type="curve" smooth="yes"/>
      <point x="374" y="289" type="line"/>
      <point x="424" y="289" type="line" smooth="yes"/>
      <point x="455" y="289"/>
      <point x="461" y="295"/>
      <point x="461" y="310" type="curve" smooth="yes"/>
      <point x="461" y="385" type="line" smooth="yes"/>
      <point x="461" y="404"/>
      <point x="460" y="416"/>
      <point x="431" y="413" type="curve"/>
      <point x="359" y="413" type="line"/>
      <point x="401" y="474"/>
      <point x="446" y="538"/>
      <point x="461" y="557" type="curve"/>
      <point x="485" y="593"/>
      <point x="499" y="612"/>
      <point x="499" y="636" type="curve" smooth="yes"/>
      <point x="499" y="659"/>
      <point x="503" y="685"/>
      <point x="486" y="685" type="curve" smooth="yes"/>
      <point x="473" y="685"/>
      <point x="425" y="682"/>
      <point x="384" y="682" type="curve" smooth="yes"/>
      <point x="368" y="682"/>
      <point x="352" y="683"/>
      <point x="341" y="684" type="curve" smooth="yes"/>
      <point x="334" y="685"/>
      <point x="324" y="685"/>
      <point x="314" y="685" type="curve" smooth="yes"/>
      <point x="273" y="685"/>
      <point x="214" y="681"/>
      <point x="180" y="681" type="curve" smooth="yes"/>
      <point x="141" y="681"/>
      <point x="88" y="677"/>
      <point x="76" y="677" type="curve"/>
      <point x="65" y="676"/>
      <point x="57" y="673"/>
      <point x="57" y="660" type="curve" smooth="yes"/>
      <point x="57" y="660"/>
      <point x="57" y="659"/>
      <point x="57" y="658" type="curve" smooth="yes"/>
      <point x="58" y="654"/>
      <point x="58" y="649"/>
      <point x="58" y="644" type="curve" smooth="yes"/>
      <point x="58" y="635"/>
      <point x="57" y="625"/>
      <point x="57" y="619" type="curve" smooth="yes"/>
      <point x="57" y="608"/>
      <point x="63" y="603"/>
      <point x="74" y="603" type="curve" smooth="yes"/>
      <point x="78" y="603"/>
      <point x="83" y="604"/>
      <point x="88" y="605" type="curve" smooth="yes"/>
      <point x="109" y="609"/>
      <point x="292" y="627"/>
      <point x="334" y="627" type="curve" smooth="yes"/>
      <point x="375" y="627"/>
      <point x="391" y="625"/>
      <point x="402" y="624" type="curve" smooth="yes"/>
      <point x="410" y="623"/>
      <point x="419" y="627"/>
      <point x="424" y="627" type="curve" smooth="yes"/>
      <point x="427" y="627"/>
      <point x="428" y="626"/>
      <point x="428" y="624" type="curve" smooth="yes"/>
      <point x="428" y="618"/>
      <point x="371" y="526"/>
      <point x="336" y="475" type="curve" smooth="yes"/>
      <point x="328" y="462"/>
      <point x="314" y="439"/>
    </contour>
  </outline>
</glyph>
<glyph name="eight" format="1">
  <advance width="500"/>
  <unicode hex="0038"/>
  <outline>
    <contour>
      <point x="380" y="405"/>
      <point x="394" y="421"/>
      <point x="405" y="440" type="curve" smooth="yes"/>
      <point x="426" y="473"/>
      <point x="447" y="520"/>
      <point x="447" y="581" type="curve" smooth="yes"/>
      <point x="447" y="703"/>
      <point x="324" y="732"/>
      <point x="273" y="732" type="curve" smooth="yes"/>
      <point x="199" y="732"/>
      <point x="92" y="688"/>
      <point x="92" y="578" type="curve" smooth="yes"/>
      <point x="92" y="470"/>
      <point x="151" y="453"/>
      <point x="174" y="435" type="curve"/>
      <point x="186" y="424"/>
      <point x="196" y="417"/>
      <point x="201" y="410" type="curve" smooth="yes"/>
      <point x="204" y="406"/>
      <point x="208" y="403"/>
      <point x="211" y="400" type="curve"/>
      <point x="175" y="384"/>
      <point x="143" y="365"/>
      <point x="115" y="343" type="curve" smooth="yes"/>
      <point x="68" y="304"/>
      <point x="20" y="250"/>
      <point x="20" y="179" type="curve" smooth="yes"/>
      <point x="20" y="72"/>
      <point x="86" y="-3"/>
      <point x="228" y="-6" type="curve"/>
      <point x="368" y="-11"/>
      <point x="480" y="66"/>
      <point x="480" y="202" type="curve" smooth="yes"/>
      <point x="480" y="270"/>
      <point x="451" y="317"/>
      <point x="422" y="348" type="curve" smooth="yes"/>
      <point x="405" y="366"/>
      <point x="386" y="381"/>
      <point x="364" y="392" type="curve"/>
    </contour>
    <contour>
      <point x="142" y="647"/>
      <point x="219" y="685"/>
      <point x="265" y="685" type="curve" smooth="yes"/>
      <point x="342" y="685"/>
      <point x="382" y="631"/>
      <point x="382" y="552" type="curve" smooth="yes"/>
      <point x="382" y="511"/>
      <point x="355" y="481"/>
      <point x="327" y="458" type="curve" smooth="yes"/>
      <point x="310" y="445"/>
      <point x="292" y="434"/>
      <point x="272" y="425" type="curve"/>
      <point x="247" y="436"/>
      <point x="225" y="450"/>
      <point x="206" y="467" type="curve" smooth="yes"/>
      <point x="174" y="496"/>
      <point x="142" y="538"/>
      <point x="142" y="595" type="curve" smooth="yes"/>
    </contour>
    <contour>
      <point x="182" y="35"/>
      <point x="77" y="43"/>
      <point x="77" y="170" type="curve" smooth="yes"/>
      <point x="77" y="231"/>
      <point x="126" y="283"/>
      <point x="178" y="314" type="curve" smooth="yes"/>
      <point x="208" y="333"/>
      <point x="242" y="350"/>
      <point x="280" y="365" type="curve"/>
      <point x="307" y="356"/>
      <point x="332" y="343"/>
      <point x="353" y="328" type="curve" smooth="yes"/>
      <point x="390" y="303"/>
      <point x="427" y="262"/>
      <point x="427" y="202" type="curve" smooth="yes"/>
      <point x="427" y="134"/>
      <point x="362" y="35"/>
      <point x="273" y="35" type="curve" smooth="yes"/>
    </contour>
  </outline>
</glyph>
<glyph name="nine" format="1">
  <advance width="500"/>
  <unicode hex="0039"/>
  <outline>
    <contour>
      <point x="250" y="717" type="curve" smooth="yes"/>
      <point x="180" y="717"/>
      <point x="21" y="660"/>
      <point x="21" y="431" type="curve" smooth="yes"/>
      <point x="21" y="220"/>
      <point x="179" y="219"/>
      <point x="232" y="219" type="curve" smooth="yes"/>
      <point x="256" y="219"/>
      <point x="286" y="239"/>
      <point x="311" y="260" type="curve" smooth="yes"/>
      <point x="325" y="272"/>
      <point x="339" y="286"/>
      <point x="352" y="301" type="curve"/>
      <point x="353" y="265"/>
      <point x="350" y="233"/>
      <point x="343" y="206" type="curve"/>
      <point x="333" y="159"/>
      <point x="308" y="112"/>
      <point x="252" y="112" type="curve" smooth="yes"/>
      <point x="140" y="112"/>
      <point x="159" y="185"/>
      <point x="112" y="185" type="curve" smooth="yes"/>
      <point x="92" y="185"/>
      <point x="82" y="182"/>
      <point x="69" y="182" type="curve" smooth="yes"/>
      <point x="61" y="182"/>
      <point x="43" y="175"/>
      <point x="43" y="152" type="curve" smooth="yes"/>
      <point x="43" y="141"/>
      <point x="47" y="126"/>
      <point x="58" y="107" type="curve" smooth="yes"/>
      <point x="93" y="49"/>
      <point x="144" y="-32"/>
      <point x="251" y="-32" type="curve" smooth="yes"/>
      <point x="358" y="-32"/>
      <point x="408" y="55"/>
      <point x="440" y="114" type="curve"/>
      <point x="474" y="172"/>
      <point x="479" y="273"/>
      <point x="479" y="351" type="curve" smooth="yes"/>
      <point x="479" y="432"/>
      <point x="435" y="717"/>
    </contour>
    <contour>
      <point x="334" y="430" type="curve"/>
      <point x="329" y="384"/>
      <point x="273" y="335"/>
      <point x="226" y="335" type="curve" smooth="yes"/>
      <point x="181" y="335"/>
      <point x="119" y="366"/>
      <point x="119" y="455" type="curve" smooth="yes"/>
      <point x="119" y="543"/>
      <point x="182" y="583"/>
      <point x="224" y="583" type="curve" smooth="yes"/>
      <point x="339" y="583"/>
      <point x="334" y="474"/>
    </contour>
  </outline>
</glyph>
<glyph name="colon" format="1">
  <advance width="244"/>
  <unicode hex="003A"/>
  <outline>
    <contour>
      <point x="175" y="313"/>
      <point x="195" y="360"/>
      <point x="195" y="399" type="curve" smooth="yes"/>
      <point x="195" y="443"/>
      <point x="159" y="475"/>
      <point x="119" y="475" type="curve" smooth="yes"/>
      <point x="71" y="475"/>
      <point x="40" y="435"/>
      <point x="40" y="399" type="curve" smooth="yes"/>
      <point x="40" y="364"/>
      <point x="70" y="313"/>
      <point x="122" y="313" type="curve" smooth="yes"/>
    </contour>
    <contour>
      <point x="90" y="147"/>
      <point x="48" y="133"/>
      <point x="48" y="72" type="curve" smooth="yes"/>
      <point x="48" y="12"/>
      <point x="87" y="-15"/>
      <point x="127" y="-15" type="curve" smooth="yes"/>
      <point x="166" y="-15"/>
      <point x="206" y="12"/>
      <point x="206" y="48" type="curve" smooth="yes"/>
      <point x="206" y="83"/>
      <point x="202" y="147"/>
      <point x="122" y="147" type="curve" smooth="yes"/>
    </contour>
  </outline>
</glyph>
<glyph name="equal" format="1">
  <advance width="500"/>
  <unicode hex="003D"/>
  <outline>
    <contour>
      <point x="475" y="473"/>
      <point x="472" y="476"/>
      <point x="452" y="476" type="curve" smooth="yes"/>
      <point x="429" y="476"/>
      <point x="376" y="472"/>
      <point x="321" y="472" type="curve" smooth="yes"/>
      <point x="153" y="472" type="line"/>
      <point x="53" y="472" type="line"/>
      <point x="36" y="476"/>
      <point x="22" y="477"/>
      <point x="22" y="450" type="curve" smooth="yes"/>
      <point x="22" y="430"/>
      <point x="19" y="419"/>
      <point x="22" y="403" type="curve" smooth="yes"/>
      <point x="25" y="387"/>
      <point x="29" y="378"/>
      <point x="45" y="382" type="curve"/>
      <point x="66" y="382"/>
      <point x="146" y="387"/>
      <point x="168" y="387" type="curve"/>
      <point x="180" y="384"/>
      <point x="219" y="383"/>
      <point x="235" y="380" type="curve"/>
      <point x="251" y="379"/>
      <point x="293" y="378"/>
      <point x="309" y="378" type="curve" smooth="yes"/>
      <point x="438" y="378" type="line" smooth="yes"/>
      <point x="465" y="378"/>
      <point x="475" y="369"/>
      <point x="478" y="392" type="curve" smooth="yes"/>
      <point x="481" y="412"/>
      <point x="478" y="441"/>
      <point x="478" y="454" type="curve"/>
    </contour>
    <contour>
      <point x="245" y="228" type="line"/>
      <point x="105" y="228" type="line"/>
      <point x="51" y="228" type="line" smooth="yes"/>
      <point x="35" y="228"/>
      <point x="32" y="220"/>
      <point x="32" y="204" type="curve" smooth="yes"/>
      <point x="32" y="164" type="line" smooth="yes"/>
      <point x="32" y="155"/>
      <point x="32" y="147"/>
      <point x="45" y="147" type="curve"/>
      <point x="58" y="150"/>
      <point x="117" y="151"/>
      <point x="134" y="151" type="curve" smooth="yes"/>
      <point x="283" y="151" type="line" smooth="yes"/>
      <point x="321" y="151"/>
      <point x="396" y="147"/>
      <point x="427" y="147" type="curve" smooth="yes"/>
      <point x="458" y="147"/>
      <point x="464" y="151"/>
      <point x="464" y="164" type="curve" smooth="yes"/>
      <point x="464" y="208" type="line" smooth="yes"/>
      <point x="464" y="221"/>
      <point x="466" y="231"/>
      <point x="433" y="228" type="curve"/>
    </contour>
  </outline>
</glyph>
<glyph name="at" format="1">
  <advance width="745"/>
  <unicode hex="0040"/>
  <outline>
    <contour>
      <point x="443" y="143" type="curve"/>
      <point x="489" y="209" type="line"/>
      <point x="492" y="192"/>
      <point x="498" y="177"/>
      <point x="505" y="164" type="curve" smooth="yes"/>
      <point x="518" y="141"/>
      <point x="539" y="120"/>
      <point x="578" y="120" type="curve" smooth="yes"/>
      <point x="657" y="120"/>
      <point x="673" y="171"/>
      <point x="683" y="197" type="curve"/>
      <point x="694" y="230"/>
      <point x="706" y="344"/>
      <point x="706" y="406" type="curve" smooth="yes"/>
      <point x="706" y="468"/>
      <point x="637" y="579"/>
      <point x="578" y="611" type="curve"/>
      <point x="523" y="646"/>
      <point x="455" y="657"/>
      <point x="366" y="657" type="curve" smooth="yes"/>
      <point x="246" y="657"/>
      <point x="164" y="595"/>
      <point x="146" y="577" type="curve" smooth="yes"/>
      <point x="126" y="557"/>
      <point x="41" y="449"/>
      <point x="41" y="301" type="curve" smooth="yes"/>
      <point x="41" y="157"/>
      <point x="94" y="116"/>
      <point x="115" y="84" type="curve" smooth="yes"/>
      <point x="134" y="57"/>
      <point x="184" y="-12"/>
      <point x="233" y="-31" type="curve" smooth="yes"/>
      <point x="264" y="-44"/>
      <point x="321" y="-47"/>
      <point x="369" y="-47" type="curve" smooth="yes"/>
      <point x="396" y="-47"/>
      <point x="420" y="-46"/>
      <point x="435" y="-46" type="curve" smooth="yes"/>
      <point x="474" y="-46"/>
      <point x="575" y="7"/>
      <point x="586" y="18" type="curve" smooth="yes"/>
      <point x="591" y="23"/>
      <point x="594" y="27"/>
      <point x="594" y="31" type="curve" smooth="yes"/>
      <point x="594" y="35"/>
      <point x="590" y="38"/>
      <point x="586" y="43" type="curve"/>
      <point x="575" y="50"/>
      <point x="560" y="69"/>
      <point x="552" y="74" type="curve" smooth="yes"/>
      <point x="547" y="78"/>
      <point x="542" y="83"/>
      <point x="536" y="83" type="curve" smooth="yes"/>
      <point x="533" y="83"/>
      <point x="529" y="81"/>
      <point x="524" y="77" type="curve"/>
      <point x="513" y="61"/>
      <point x="486" y="38"/>
      <point x="450" y="26" type="curve" smooth="yes"/>
      <point x="419" y="15"/>
      <point x="389" y="10"/>
      <point x="338" y="10" type="curve" smooth="yes"/>
      <point x="292" y="10"/>
      <point x="103" y="97"/>
      <point x="103" y="297" type="curve" smooth="yes"/>
      <point x="103" y="499"/>
      <point x="207" y="547"/>
      <point x="261" y="569" type="curve"/>
      <point x="294" y="579"/>
      <point x="349" y="589"/>
      <point x="404" y="589" type="curve" smooth="yes"/>
      <point x="445" y="589"/>
      <point x="487" y="584"/>
      <point x="521" y="569" type="curve"/>
      <point x="601" y="537"/>
      <point x="649" y="476"/>
      <point x="649" y="360" type="curve" smooth="yes"/>
      <point x="649" y="243"/>
      <point x="621" y="186"/>
      <point x="578" y="186" type="curve" smooth="yes"/>
      <point x="546" y="186"/>
      <point x="539" y="222"/>
      <point x="539" y="252" type="curve" smooth="yes"/>
      <point x="539" y="259"/>
      <point x="539" y="265"/>
      <point x="540" y="271" type="curve" smooth="yes"/>
      <point x="543" y="300"/>
      <point x="560" y="395"/>
      <point x="563" y="421" type="curve" smooth="yes"/>
      <point x="565" y="437"/>
      <point x="569" y="451"/>
      <point x="569" y="463" type="curve" smooth="yes"/>
      <point x="569" y="473"/>
      <point x="566" y="482"/>
      <point x="555" y="488" type="curve" smooth="yes"/>
      <point x="532" y="503"/>
      <point x="449" y="514"/>
      <point x="404" y="514" type="curve" smooth="yes"/>
      <point x="358" y="514"/>
      <point x="289" y="480"/>
      <point x="266" y="472" type="curve" smooth="yes"/>
      <point x="243" y="464"/>
      <point x="172" y="391"/>
      <point x="172" y="297" type="curve" smooth="yes"/>
      <point x="172" y="209"/>
      <point x="222" y="97"/>
      <point x="330" y="97" type="curve" smooth="yes"/>
      <point x="390" y="97"/>
      <point x="424" y="120"/>
    </contour>
    <contour>
      <point x="486" y="386" type="curve"/>
      <point x="481" y="362"/>
      <point x="482" y="298"/>
      <point x="474" y="266" type="curve"/>
      <point x="466" y="239"/>
      <point x="402" y="174"/>
      <point x="343" y="174" type="curve" smooth="yes"/>
      <point x="288" y="174"/>
      <point x="250" y="227"/>
      <point x="250" y="314" type="curve" smooth="yes"/>
      <point x="250" y="398"/>
      <point x="319" y="457"/>
      <point x="394" y="457" type="curve" smooth="yes"/>
      <point x="430" y="457"/>
      <point x="455" y="452"/>
      <point x="471" y="447" type="curve" smooth="yes"/>
      <point x="480" y="444"/>
      <point x="488" y="441"/>
      <point x="494" y="437" type="curve"/>
      <point x="494" y="431"/>
      <point x="494" y="425"/>
      <point x="493" y="419" type="curve" smooth="yes"/>
      <point x="492" y="408"/>
      <point x="490" y="397"/>
    </contour>
  </outline>
</glyph>
<glyph name="A" format="1">
  <advance width="475"/>
  <unicode hex="0041"/>
  <outline>
    <contour>
      <point x="20" y="69" type="curve"/>
      <point x="11" y="32" type="line"/>
      <point x="8" y="25"/>
      <point x="8" y="21"/>
      <point x="7" y="18" type="curve" smooth="yes"/>
      <point x="6" y="16"/>
      <point x="6" y="14"/>
      <point x="6" y="13" type="curve" smooth="yes"/>
      <point x="3" y="4"/>
      <point x="4" y="0"/>
      <point x="11" y="0" type="curve" smooth="yes"/>
      <point x="31" y="0" type="line" smooth="yes"/>
      <point x="40" y="0"/>
      <point x="39" y="1"/>
      <point x="42" y="9" type="curve"/>
      <point x="44" y="18"/>
      <point x="46" y="27"/>
      <point x="49" y="35" type="curve" smooth="yes"/>
      <point x="53" y="48"/>
      <point x="56" y="63"/>
      <point x="59" y="67" type="curve" smooth="yes"/>
      <point x="63" y="75"/>
      <point x="67" y="92"/>
      <point x="68" y="100" type="curve"/>
      <point x="71" y="108"/>
      <point x="86" y="186"/>
      <point x="91" y="202" type="curve"/>
      <point x="95" y="221" type="line"/>
      <point x="97" y="231" type="line" smooth="yes"/>
      <point x="99" y="239"/>
      <point x="102" y="242"/>
      <point x="106" y="242" type="curve" smooth="yes"/>
      <point x="107" y="242"/>
      <point x="107" y="242"/>
      <point x="108" y="242" type="curve"/>
      <point x="169" y="242" type="line" smooth="yes"/>
      <point x="201" y="242"/>
      <point x="235" y="242"/>
      <point x="243" y="243" type="curve" smooth="yes"/>
      <point x="250" y="243"/>
      <point x="269" y="244"/>
      <point x="286" y="245" type="curve" smooth="yes"/>
      <point x="296" y="246"/>
      <point x="306" y="246"/>
      <point x="317" y="246" type="curve" smooth="yes"/>
      <point x="324" y="246"/>
      <point x="326" y="246"/>
      <point x="333" y="230" type="curve"/>
      <point x="342" y="201" type="line" smooth="yes"/>
      <point x="347" y="185"/>
      <point x="354" y="167"/>
      <point x="358" y="158" type="curve" smooth="yes"/>
      <point x="366" y="142"/>
      <point x="376" y="105"/>
      <point x="379" y="90" type="curve" smooth="yes"/>
      <point x="380" y="83"/>
      <point x="384" y="64"/>
      <point x="391" y="45" type="curve"/>
      <point x="394" y="34"/>
      <point x="397" y="22"/>
      <point x="402" y="9" type="curve" smooth="yes"/>
      <point x="405" y="1"/>
      <point x="408" y="0"/>
      <point x="413" y="0" type="curve" smooth="yes"/>
      <point x="469" y="0" type="line" smooth="yes"/>
      <point x="478" y="0"/>
      <point x="480" y="1"/>
      <point x="480" y="4" type="curve" smooth="yes"/>
      <point x="480" y="6"/>
      <point x="479" y="9"/>
      <point x="477" y="14" type="curve" smooth="yes"/>
      <point x="472" y="27"/>
      <point x="445" y="91"/>
      <point x="437" y="123" type="curve" smooth="yes"/>
      <point x="429" y="154"/>
      <point x="404" y="227"/>
      <point x="396" y="251" type="curve"/>
      <point x="385" y="276"/>
      <point x="350" y="374"/>
      <point x="342" y="394" type="curve"/>
      <point x="337" y="412"/>
      <point x="293" y="529"/>
      <point x="290" y="547" type="curve"/>
      <point x="285" y="563"/>
      <point x="265" y="644"/>
      <point x="254" y="670" type="curve" smooth="yes"/>
      <point x="243" y="698"/>
      <point x="236" y="720"/>
      <point x="227" y="720" type="curve" smooth="yes"/>
      <point x="208" y="720"/>
      <point x="200" y="700"/>
      <point x="192" y="672" type="curve"/>
      <point x="187" y="645"/>
      <point x="166" y="589"/>
      <point x="161" y="574" type="curve"/>
      <point x="154" y="559"/>
      <point x="147" y="533"/>
      <point x="138" y="504" type="curve"/>
      <point x="130" y="474"/>
      <point x="116" y="425"/>
      <point x="111" y="401" type="curve" smooth="yes"/>
      <point x="106" y="378"/>
      <point x="92" y="337"/>
      <point x="85" y="306" type="curve"/>
      <point x="80" y="277"/>
      <point x="61" y="219"/>
      <point x="53" y="191" type="curve" smooth="yes"/>
      <point x="45" y="164"/>
      <point x="37" y="134"/>
      <point x="34" y="118" type="curve" smooth="yes"/>
      <point x="31" y="99"/>
      <point x="23" y="80"/>
    </contour>
    <contour>
      <point x="290" y="311" type="curve" smooth="yes"/>
      <point x="279" y="311"/>
      <point x="256" y="312"/>
      <point x="236" y="312" type="curve" smooth="yes"/>
      <point x="221" y="312"/>
      <point x="208" y="311"/>
      <point x="202" y="310" type="curve"/>
      <point x="189" y="310"/>
      <point x="154" y="308"/>
      <point x="144" y="308" type="curve" smooth="yes"/>
      <point x="135" y="308"/>
      <point x="116" y="305"/>
      <point x="116" y="318" type="curve" smooth="yes"/>
      <point x="116" y="320"/>
      <point x="117" y="322"/>
      <point x="118" y="325" type="curve" smooth="yes"/>
      <point x="126" y="346"/>
      <point x="146" y="421"/>
      <point x="151" y="445" type="curve"/>
      <point x="159" y="469"/>
      <point x="184" y="559"/>
      <point x="189" y="581" type="curve"/>
      <point x="196" y="604"/>
      <point x="201" y="630"/>
      <point x="205" y="630" type="curve" smooth="yes"/>
      <point x="210" y="630"/>
      <point x="220" y="595"/>
      <point x="225" y="577" type="curve"/>
      <point x="228" y="560"/>
      <point x="250" y="483"/>
      <point x="260" y="453" type="curve" smooth="yes"/>
      <point x="271" y="423"/>
      <point x="288" y="358"/>
      <point x="296" y="340" type="curve" smooth="yes"/>
      <point x="300" y="330"/>
      <point x="303" y="322"/>
      <point x="303" y="318" type="curve" smooth="yes"/>
      <point x="303" y="313"/>
      <point x="300" y="311"/>
    </contour>
    <contour>
      <point x="429" y="0" type="move" name="ogonek"/>
    </contour>
    <contour>
      <point x="234" y="0" type="move" name="bottom"/>
    </contour>
    <contour>
      <point x="237" y="710" type="move" name="top"/>
    </contour>
  </outline>
</glyph>
<glyph name="C" format="1">
  <advance width="528"/>
  <unicode hex="0043"/>
  <outline>
    <contour>
      <point x="300" y="544"/>
      <point x="316" y="523"/>
      <point x="335" y="502" type="curve"/>
      <point x="352" y="481"/>
      <point x="366" y="498"/>
      <point x="382" y="518" type="curve" smooth="yes"/>
      <point x="397" y="538"/>
      <point x="429" y="566"/>
      <point x="448" y="581" type="curve" smooth="yes"/>
      <point x="467" y="596"/>
      <point x="459" y="603"/>
      <point x="448" y="618" type="curve" smooth="yes"/>
      <point x="437" y="634"/>
      <point x="382" y="704"/>
      <point x="271" y="704" type="curve" smooth="yes"/>
      <point x="159" y="704"/>
      <point x="37" y="562"/>
      <point x="37" y="354" type="curve" smooth="yes"/>
      <point x="37" y="146"/>
      <point x="162" y="-12"/>
      <point x="293" y="-12" type="curve" smooth="yes"/>
      <point x="423" y="-12"/>
      <point x="481" y="84"/>
      <point x="492" y="103" type="curve" smooth="yes"/>
      <point x="503" y="123"/>
      <point x="486" y="125"/>
      <point x="467" y="134" type="curve"/>
      <point x="382" y="181" type="line" smooth="yes"/>
      <point x="366" y="190"/>
      <point x="366" y="184"/>
      <point x="355" y="173" type="curve" smooth="yes"/>
      <point x="344" y="162"/>
      <point x="313" y="134"/>
      <point x="285" y="134" type="curve" smooth="yes"/>
      <point x="257" y="134"/>
      <point x="167" y="166"/>
      <point x="167" y="329" type="curve" smooth="yes"/>
      <point x="167" y="493"/>
      <point x="231" y="544"/>
      <point x="275" y="544" type="curve" smooth="yes"/>
    </contour>
    <contour>
      <point x="264" y="710" type="move" name="top"/>
    </contour>
    <contour>
      <point x="264" y="0" type="move" name="bottom"/>
    </contour>
  </outline>
</glyph>
<glyph name="D" format="1">
  <advance width="577"/>
  <unicode hex="0044"/>
  <outline>
    <contour>
      <point x="171" y="698" type="curve"/>
      <point x="135" y="696" type="line"/>
      <point x="111" y="696"/>
      <point x="68" y="701"/>
      <point x="68" y="681" type="curve" smooth="yes"/>
      <point x="68" y="660"/>
      <point x="70" y="592"/>
      <point x="70" y="511" type="curve" smooth="yes"/>
      <point x="70" y="431"/>
      <point x="62" y="381"/>
      <point x="62" y="303" type="curve" smooth="yes"/>
      <point x="62" y="224"/>
      <point x="67" y="175"/>
      <point x="67" y="155" type="curve" smooth="yes"/>
      <point x="67" y="134"/>
      <point x="70" y="84"/>
      <point x="70" y="60" type="curve" smooth="yes"/>
      <point x="70" y="52"/>
      <point x="69" y="43"/>
      <point x="69" y="34" type="curve" smooth="yes"/>
      <point x="69" y="16"/>
      <point x="72" y="0"/>
      <point x="88" y="0" type="curve" smooth="yes"/>
      <point x="113" y="0"/>
      <point x="185" y="2"/>
      <point x="224" y="2" type="curve" smooth="yes"/>
      <point x="262" y="2"/>
      <point x="542" y="14"/>
      <point x="542" y="315" type="curve" smooth="yes"/>
      <point x="542" y="639"/>
      <point x="332" y="700"/>
      <point x="239" y="700" type="curve" smooth="yes"/>
      <point x="216" y="700"/>
      <point x="192" y="699"/>
    </contour>
    <contour>
      <point x="241" y="214" type="curve"/>
      <point x="241" y="231"/>
      <point x="241" y="249"/>
      <point x="242" y="266" type="curve" smooth="yes"/>
      <point x="243" y="295"/>
      <point x="244" y="327"/>
      <point x="244" y="350" type="curve" smooth="yes"/>
      <point x="244" y="382"/>
      <point x="248" y="420"/>
      <point x="248" y="455" type="curve" smooth="yes"/>
      <point x="248" y="467"/>
      <point x="247" y="478"/>
      <point x="246" y="489" type="curve"/>
      <point x="263" y="484"/>
      <point x="279" y="476"/>
      <point x="293" y="465" type="curve" smooth="yes"/>
      <point x="317" y="446"/>
      <point x="341" y="415"/>
      <point x="341" y="364" type="curve" smooth="yes"/>
      <point x="341" y="312"/>
      <point x="316" y="274"/>
      <point x="291" y="250" type="curve" smooth="yes"/>
      <point x="276" y="235"/>
      <point x="260" y="223"/>
    </contour>
    <contour>
      <point x="274" y="710" type="move" name="top"/>
    </contour>
    <contour>
      <point x="283" y="0" type="move" name="bottom"/>
    </contour>
  </outline>
</glyph>
<glyph name="F" format="1">
  <advance width="476"/>
  <unicode hex="0046"/>
  <outline>
    <contour>
      <point x="237" y="342" type="curve"/>
      <point x="330" y="342" type="line" smooth="yes"/>
      <point x="353" y="342"/>
      <point x="383" y="340"/>
      <point x="400" y="340" type="curve" smooth="yes"/>
      <point x="419" y="340"/>
      <point x="423" y="343"/>
      <point x="423" y="354" type="curve" smooth="yes"/>
      <point x="423" y="365"/>
      <point x="424" y="376"/>
      <point x="424" y="387" type="curve" smooth="yes"/>
      <point x="424" y="398"/>
      <point x="420" y="404"/>
      <point x="397" y="404" type="curve" smooth="yes"/>
      <point x="374" y="404"/>
      <point x="341" y="402"/>
      <point x="318" y="402" type="curve" smooth="yes"/>
      <point x="306" y="402"/>
      <point x="287" y="401"/>
      <point x="270" y="401" type="curve"/>
      <point x="260" y="400"/>
      <point x="250" y="400"/>
      <point x="239" y="400" type="curve"/>
      <point x="239" y="424" type="line" smooth="yes"/>
      <point x="239" y="439"/>
      <point x="240" y="456"/>
      <point x="240" y="475" type="curve" smooth="yes"/>
      <point x="240" y="511"/>
      <point x="241" y="541"/>
      <point x="241" y="564" type="curve" smooth="yes"/>
      <point x="241" y="575"/>
      <point x="242" y="588"/>
      <point x="243" y="599" type="curve" smooth="yes"/>
      <point x="246" y="617" type="line"/>
      <point x="295" y="620" type="line"/>
      <point x="322" y="623"/>
      <point x="352" y="624"/>
      <point x="369" y="624" type="curve" smooth="yes"/>
      <point x="404" y="624"/>
      <point x="444" y="622"/>
      <point x="456" y="622" type="curve" smooth="yes"/>
      <point x="468" y="622"/>
      <point x="474" y="621"/>
      <point x="474" y="634" type="curve" smooth="yes"/>
      <point x="474" y="684" type="line" smooth="yes"/>
      <point x="474" y="694"/>
      <point x="466" y="699"/>
      <point x="451" y="699" type="curve" smooth="yes"/>
      <point x="367" y="700" type="line" smooth="yes"/>
      <point x="346" y="700"/>
      <point x="275" y="694"/>
      <point x="254" y="694" type="curve" smooth="yes"/>
      <point x="234" y="694"/>
      <point x="138" y="690"/>
      <point x="114" y="690" type="curve" smooth="yes"/>
      <point x="103" y="690"/>
      <point x="94" y="692"/>
      <point x="86" y="692" type="curve" smooth="yes"/>
      <point x="75" y="692"/>
      <point x="68" y="687"/>
      <point x="68" y="662" type="curve" smooth="yes"/>
      <point x="69" y="621"/>
      <point x="70" y="571"/>
      <point x="70" y="524" type="curve" smooth="yes"/>
      <point x="70" y="477"/>
      <point x="67" y="432"/>
      <point x="67" y="388" type="curve" smooth="yes"/>
      <point x="67" y="344"/>
      <point x="68" y="317"/>
      <point x="68" y="274" type="curve" smooth="yes"/>
      <point x="68" y="231"/>
      <point x="62" y="212"/>
      <point x="62" y="169" type="curve" smooth="yes"/>
      <point x="62" y="126"/>
      <point x="64" y="92"/>
      <point x="64" y="77" type="curve" smooth="yes"/>
      <point x="65" y="24" type="line" smooth="yes"/>
      <point x="65" y="12"/>
      <point x="62" y="5"/>
      <point x="81" y="4" type="curve" smooth="yes"/>
      <point x="92" y="4"/>
      <point x="125" y="5"/>
      <point x="154" y="5" type="curve" smooth="yes"/>
      <point x="168" y="5"/>
      <point x="182" y="5"/>
      <point x="191" y="4" type="curve" smooth="yes"/>
      <point x="200" y="3"/>
      <point x="208" y="2"/>
      <point x="214" y="2" type="curve" smooth="yes"/>
      <point x="229" y="2"/>
      <point x="237" y="7"/>
      <point x="237" y="25" type="curve" smooth="yes"/>
      <point x="236" y="143" type="line" smooth="yes"/>
      <point x="236" y="178"/>
      <point x="239" y="206"/>
      <point x="239" y="241" type="curve" smooth="yes"/>
      <point x="239" y="258"/>
      <point x="238" y="283"/>
      <point x="238" y="304" type="curve"/>
      <point x="237" y="316"/>
      <point x="237" y="329"/>
    </contour>
  </outline>
</glyph>
<glyph name="G" format="1">
  <advance width="592"/>
  <unicode hex="0047"/>
  <outline>
    <contour>
      <point x="239" y="719"/>
      <point x="41" y="685"/>
      <point x="41" y="338" type="curve" smooth="yes"/>
      <point x="41" y="37"/>
      <point x="253" y="-14"/>
      <point x="316" y="-14" type="curve" smooth="yes"/>
      <point x="401" y="-14"/>
      <point x="541" y="42"/>
      <point x="557" y="311" type="curve"/>
      <point x="558" y="317"/>
      <point x="557" y="323"/>
      <point x="556" y="328" type="curve" smooth="yes"/>
      <point x="553" y="337"/>
      <point x="548" y="345"/>
      <point x="533" y="346" type="curve" smooth="yes"/>
      <point x="502" y="347"/>
      <point x="446" y="358"/>
      <point x="403" y="363" type="curve" smooth="yes"/>
      <point x="363" y="367"/>
      <point x="330" y="372"/>
      <point x="321" y="373" type="curve" smooth="yes"/>
      <point x="310" y="374"/>
      <point x="303" y="376"/>
      <point x="296" y="352" type="curve" smooth="yes"/>
      <point x="292" y="336"/>
      <point x="289" y="326"/>
      <point x="288" y="318" type="curve" smooth="yes"/>
      <point x="287" y="310"/>
      <point x="286" y="302"/>
      <point x="307" y="299" type="curve" smooth="yes"/>
      <point x="318" y="298"/>
      <point x="330" y="296"/>
      <point x="342" y="294" type="curve" smooth="yes"/>
      <point x="362" y="290" type="line"/>
      <point x="362" y="271"/>
      <point x="360" y="255"/>
      <point x="355" y="240" type="curve" smooth="yes"/>
      <point x="347" y="215"/>
      <point x="331" y="190"/>
      <point x="299" y="190" type="curve" smooth="yes"/>
      <point x="232" y="190"/>
      <point x="236" y="286"/>
      <point x="236" y="342" type="curve" smooth="yes"/>
      <point x="236" y="400"/>
      <point x="256" y="486"/>
      <point x="300" y="486" type="curve" smooth="yes"/>
      <point x="325" y="486"/>
      <point x="335" y="461"/>
      <point x="342" y="452" type="curve" smooth="yes"/>
      <point x="349" y="443"/>
      <point x="349" y="429"/>
      <point x="365" y="436" type="curve"/>
      <point x="368" y="436"/>
      <point x="370" y="437"/>
      <point x="373" y="439" type="curve" smooth="yes"/>
      <point x="378" y="442"/>
      <point x="384" y="445"/>
      <point x="392" y="452" type="curve"/>
      <point x="409" y="463"/>
      <point x="428" y="477"/>
      <point x="447" y="488" type="curve"/>
      <point x="467" y="497"/>
      <point x="503" y="517"/>
      <point x="519" y="525" type="curve" smooth="yes"/>
      <point x="535" y="534"/>
      <point x="539" y="532"/>
      <point x="536" y="543" type="curve"/>
      <point x="532" y="552"/>
      <point x="526" y="572"/>
      <point x="521" y="583" type="curve" smooth="yes"/>
      <point x="516" y="593"/>
      <point x="460" y="719"/>
      <point x="311" y="719" type="curve" smooth="yes"/>
    </contour>
    <contour>
      <point x="296" y="710" type="move" name="top"/>
    </contour>
    <contour>
      <point x="296" y="0" type="move" name="bottom"/>
    </contour>
  </outline>
</glyph>
<glyph name="I" format="1">
  <advance width="153"/>
  <unicode hex="0049"/>
  <outline>
    <contour>
      <point x="111" y="555" type="curve"/>
      <point x="112" y="610"/>
      <point x="113" y="648"/>
      <point x="116" y="668" type="curve"/>
      <point x="116" y="676"/>
      <point x="118" y="685"/>
      <point x="118" y="692" type="curve"/>
      <point x="118" y="700"/>
      <point x="116" y="706"/>
      <point x="108" y="706" type="curve"/>
      <point x="93" y="706"/>
      <point x="78" y="707"/>
      <point x="71" y="707" type="curve"/>
      <point x="58" y="707"/>
      <point x="55" y="695"/>
      <point x="55" y="681" type="curve"/>
      <point x="55" y="674"/>
      <point x="56" y="667"/>
      <point x="56" y="660" type="curve"/>
      <point x="59" y="636"/>
      <point x="49" y="442"/>
      <point x="49" y="376" type="curve"/>
      <point x="49" y="310"/>
      <point x="45" y="73"/>
      <point x="45" y="35" type="curve"/>
      <point x="45" y="-11"/>
      <point x="36" y="-7"/>
      <point x="69" y="-7" type="curve"/>
      <point x="81" y="-7"/>
      <point x="94" y="-7"/>
      <point x="100" y="-3" type="curve"/>
      <point x="106" y="0"/>
      <point x="110" y="2"/>
      <point x="110" y="13" type="curve"/>
      <point x="110" y="17"/>
      <point x="110" y="21"/>
      <point x="109" y="27" type="curve"/>
      <point x="106" y="52"/>
      <point x="103" y="227"/>
      <point x="103" y="279" type="curve"/>
      <point x="103" y="330"/>
      <point x="111" y="501"/>
    </contour>
    <contour>
      <point x="75" y="0" type="move" name="bottom"/>
    </contour>
    <contour>
      <point x="98" y="710" type="move" name="top"/>
    </contour>
  </outline>
</glyph>
<glyph name="J" format="1">
  <advance width="491"/>
  <unicode hex="004A"/>
  <outline>
    <contour>
      <point x="98" y="345" type="curve" smooth="yes"/>
      <point x="98" y="366"/>
      <point x="113" y="403"/>
      <point x="84" y="400" type="curve" smooth="yes"/>
      <point x="55" y="396"/>
      <point x="34" y="393"/>
      <point x="22" y="393" type="curve"/>
      <point x="11" y="394"/>
      <point x="7" y="395"/>
      <point x="7" y="376" type="curve" smooth="yes"/>
      <point x="7" y="357"/>
      <point x="5" y="287"/>
      <point x="5" y="247" type="curve" smooth="yes"/>
      <point x="5" y="205"/>
      <point x="23" y="-7"/>
      <point x="244" y="-7" type="curve" smooth="yes"/>
      <point x="467" y="-7"/>
      <point x="429" y="331"/>
      <point x="433" y="374" type="curve"/>
      <point x="435" y="680" type="line"/>
      <point x="436" y="707"/>
      <point x="434" y="712"/>
      <point x="411" y="713" type="curve"/>
      <point x="406" y="714"/>
      <point x="400" y="714"/>
      <point x="395" y="714" type="curve" smooth="yes"/>
      <point x="378" y="714"/>
      <point x="364" y="711"/>
      <point x="352" y="710" type="curve"/>
      <point x="339" y="710"/>
      <point x="324" y="709"/>
      <point x="327" y="672" type="curve"/>
      <point x="327" y="649"/>
      <point x="326" y="611"/>
      <point x="326" y="575" type="curve" smooth="yes"/>
      <point x="326" y="549"/>
      <point x="327" y="524"/>
      <point x="328" y="509" type="curve"/>
      <point x="328" y="474"/>
      <point x="325" y="278"/>
      <point x="325" y="233" type="curve" smooth="yes"/>
      <point x="325" y="188"/>
      <point x="299" y="103"/>
      <point x="212" y="103" type="curve" smooth="yes"/>
      <point x="148" y="103"/>
      <point x="98" y="142"/>
    </contour>
    <contour>
      <point x="391" y="710" type="move" name="top"/>
    </contour>
    <contour>
      <point x="375" y="0" type="move" name="bottom"/>
    </contour>
  </outline>
</glyph>
<glyph name="L" format="1">
  <advance width="524"/>
  <unicode hex="004C"/>
  <outline>
    <contour>
      <point x="254" y="674"/>
      <point x="270" y="701"/>
      <point x="230" y="696" type="curve" smooth="yes"/>
      <point x="190" y="691"/>
      <point x="135" y="694"/>
      <point x="112" y="697" type="curve"/>
      <point x="89" y="697"/>
      <point x="63" y="715"/>
      <point x="63" y="686" type="curve" smooth="yes"/>
      <point x="63" y="658"/>
      <point x="72" y="457"/>
      <point x="72" y="425" type="curve" smooth="yes"/>
      <point x="72" y="393"/>
      <point x="68" y="126"/>
      <point x="68" y="90" type="curve" smooth="yes"/>
      <point x="68" y="53"/>
      <point x="69" y="26"/>
      <point x="68" y="15" type="curve" smooth="yes"/>
      <point x="67" y="4"/>
      <point x="71" y="-8"/>
      <point x="90" y="-8" type="curve" smooth="yes"/>
      <point x="107" y="-8"/>
      <point x="309" y="1"/>
      <point x="343" y="1" type="curve" smooth="yes"/>
      <point x="378" y="1"/>
      <point x="478" y="-8"/>
      <point x="495" y="-8" type="curve" smooth="yes"/>
      <point x="511" y="-8"/>
      <point x="524" y="-11"/>
      <point x="524" y="2" type="curve" smooth="yes"/>
      <point x="524" y="14"/>
      <point x="521" y="30"/>
      <point x="522" y="37" type="curve" smooth="yes"/>
      <point x="522" y="44"/>
      <point x="526" y="51"/>
      <point x="513" y="50" type="curve" smooth="yes"/>
      <point x="500" y="50"/>
      <point x="423" y="51"/>
      <point x="394" y="51" type="curve"/>
      <point x="312" y="54" type="line"/>
      <point x="251" y="56" type="line"/>
      <point x="249" y="91" type="line" smooth="yes"/>
      <point x="248" y="110"/>
      <point x="248" y="130"/>
      <point x="249" y="139" type="curve"/>
      <point x="249" y="156"/>
      <point x="251" y="230"/>
      <point x="251" y="248" type="curve" smooth="yes"/>
      <point x="251" y="267"/>
      <point x="248" y="429"/>
      <point x="248" y="473" type="curve" smooth="yes"/>
      <point x="248" y="517"/>
      <point x="254" y="633"/>
      <point x="254" y="650" type="curve" smooth="yes"/>
    </contour>
    <contour>
      <point x="262" y="710" type="move" name="top"/>
    </contour>
    <contour>
      <point x="262" y="0" type="move" name="bottom"/>
    </contour>
  </outline>
</glyph>
<glyph name="N" format="1">
  <advance width="676"/>
  <unicode hex="004E"/>
  <outline>
    <contour>
      <point x="266" y="351" type="curve"/>
      <point x="266" y="386"/>
      <point x="264" y="445"/>
      <point x="263" y="497" type="curve"/>
      <point x="260" y="592" type="line"/>
      <point x="289" y="540" type="line" smooth="yes"/>
      <point x="305" y="511"/>
      <point x="323" y="476"/>
      <point x="334" y="453" type="curve"/>
      <point x="355" y="406"/>
      <point x="424" y="252"/>
      <point x="445" y="212" type="curve"/>
      <point x="464" y="172"/>
      <point x="519" y="34"/>
      <point x="527" y="16" type="curve"/>
      <point x="538" y="-3"/>
      <point x="539" y="-3"/>
      <point x="550" y="-4" type="curve"/>
      <point x="558" y="-5"/>
      <point x="572" y="-3"/>
      <point x="584" y="-3" type="curve"/>
      <point x="589" y="-3"/>
      <point x="593" y="-3"/>
      <point x="596" y="-4" type="curve"/>
      <point x="605" y="-5"/>
      <point x="615" y="-4"/>
      <point x="615" y="14" type="curve"/>
      <point x="615" y="14"/>
      <point x="615" y="15"/>
      <point x="615" y="16" type="curve"/>
      <point x="615" y="35"/>
      <point x="610" y="147"/>
      <point x="610" y="191" type="curve"/>
      <point x="610" y="229"/>
      <point x="604" y="313"/>
      <point x="604" y="371" type="curve"/>
      <point x="604" y="382"/>
      <point x="605" y="391"/>
      <point x="605" y="400" type="curve"/>
      <point x="605" y="452"/>
      <point x="608" y="669"/>
      <point x="608" y="688" type="curve"/>
      <point x="608" y="696"/>
      <point x="610" y="703"/>
      <point x="610" y="708" type="curve"/>
      <point x="610" y="714"/>
      <point x="608" y="717"/>
      <point x="597" y="717" type="curve"/>
      <point x="578" y="717"/>
      <point x="574" y="716"/>
      <point x="562" y="719" type="curve"/>
      <point x="557" y="720"/>
      <point x="549" y="722"/>
      <point x="542" y="722" type="curve"/>
      <point x="534" y="722"/>
      <point x="527" y="719"/>
      <point x="527" y="707" type="curve"/>
      <point x="523" y="611" type="line"/>
      <point x="523" y="574"/>
      <point x="525" y="500"/>
      <point x="525" y="467" type="curve"/>
      <point x="524" y="439"/>
      <point x="523" y="399"/>
      <point x="523" y="356" type="curve"/>
      <point x="523" y="346"/>
      <point x="523" y="336"/>
      <point x="523" y="326" type="curve"/>
      <point x="527" y="228" type="line"/>
      <point x="529" y="170" type="line"/>
      <point x="498" y="231" type="line" smooth="yes"/>
      <point x="481" y="266"/>
      <point x="460" y="304"/>
      <point x="448" y="329" type="curve"/>
      <point x="424" y="377"/>
      <point x="361" y="520"/>
      <point x="337" y="570" type="curve"/>
      <point x="313" y="621"/>
      <point x="283" y="688"/>
      <point x="275" y="704" type="curve"/>
      <point x="267" y="719"/>
      <point x="255" y="724"/>
      <point x="226" y="724" type="curve"/>
      <point x="198" y="724"/>
      <point x="157" y="723"/>
      <point x="141" y="723" type="curve"/>
      <point x="135" y="723"/>
      <point x="125" y="725"/>
      <point x="115" y="725" type="curve"/>
      <point x="102" y="725"/>
      <point x="89" y="721"/>
      <point x="87" y="698" type="curve"/>
      <point x="84" y="659"/>
      <point x="84" y="620"/>
      <point x="84" y="580" type="curve"/>
      <point x="84" y="540"/>
      <point x="70" y="370"/>
      <point x="67" y="322" type="curve"/>
      <point x="62" y="277"/>
      <point x="60" y="158"/>
      <point x="60" y="101" type="curve"/>
      <point x="59" y="84"/>
      <point x="59" y="71"/>
      <point x="59" y="60" type="curve"/>
      <point x="59" y="35"/>
      <point x="61" y="25"/>
      <point x="63" y="16" type="curve"/>
      <point x="66" y="3"/>
      <point x="64" y="-12"/>
      <point x="91" y="-12" type="curve"/>
      <point x="118" y="-12"/>
      <point x="164" y="-10"/>
      <point x="188" y="-10" type="curve"/>
      <point x="212" y="-10"/>
      <point x="244" y="-6"/>
      <point x="255" y="-6" type="curve"/>
      <point x="265" y="-6"/>
      <point x="274" y="-4"/>
      <point x="274" y="10" type="curve"/>
      <point x="274" y="10"/>
      <point x="274" y="11"/>
      <point x="274" y="12" type="curve"/>
      <point x="274" y="28"/>
      <point x="270" y="79"/>
      <point x="270" y="108" type="curve"/>
      <point x="270" y="138"/>
      <point x="266" y="282"/>
    </contour>
    <contour>
      <point x="389" y="0" type="move" name="bottom"/>
    </contour>
    <contour>
      <point x="382" y="710" type="move" name="top"/>
    </contour>
  </outline>
</glyph>
<glyph name="O" format="1">
  <advance width="544"/>
  <unicode hex="004F"/>
  <outline>
    <contour>
      <point x="501" y="343" type="curve"/>
      <point x="501" y="489"/>
      <point x="490" y="714"/>
      <point x="273" y="714" type="curve"/>
      <point x="185" y="714"/>
      <point x="43" y="645"/>
      <point x="43" y="357" type="curve"/>
      <point x="43" y="249"/>
      <point x="60" y="-22"/>
      <point x="280" y="-22" type="curve"/>
      <point x="437" y="-22"/>
      <point x="501" y="198"/>
    </contour>
    <contour>
      <point x="325" y="334" type="curve"/>
      <point x="325" y="284"/>
      <point x="311" y="232"/>
      <point x="272" y="232" type="curve"/>
      <point x="232" y="232"/>
      <point x="229" y="285"/>
      <point x="229" y="325" type="curve"/>
      <point x="229" y="368"/>
      <point x="242" y="434"/>
      <point x="279" y="434" type="curve"/>
      <point x="308" y="434"/>
      <point x="325" y="385"/>
    </contour>
    <contour>
      <point x="317" y="0" type="move" name="bottom"/>
    </contour>
    <contour>
      <point x="290" y="710" type="move" name="top"/>
    </contour>
  </outline>
</glyph>
<glyph name="P" format="1">
  <advance width="520"/>
  <unicode hex="0050"/>
  <outline>
    <contour>
      <point x="515" y="489" type="curve"/>
      <point x="515" y="638"/>
      <point x="437" y="696"/>
      <point x="355" y="701" type="curve"/>
      <point x="323" y="703"/>
      <point x="287" y="704"/>
      <point x="254" y="704" type="curve"/>
      <point x="201" y="704"/>
      <point x="155" y="702"/>
      <point x="144" y="702" type="curve"/>
      <point x="119" y="702"/>
      <point x="90" y="703"/>
      <point x="81" y="704" type="curve"/>
      <point x="74" y="705"/>
      <point x="69" y="699"/>
      <point x="69" y="678" type="curve"/>
      <point x="69" y="671"/>
      <point x="70" y="663"/>
      <point x="71" y="652" type="curve"/>
      <point x="72" y="645"/>
      <point x="72" y="630"/>
      <point x="72" y="609" type="curve"/>
      <point x="72" y="492"/>
      <point x="64" y="196"/>
      <point x="64" y="160" type="curve"/>
      <point x="64" y="118"/>
      <point x="62" y="55"/>
      <point x="62" y="36" type="curve"/>
      <point x="62" y="17"/>
      <point x="64" y="0"/>
      <point x="88" y="3" type="curve"/>
      <point x="105" y="5"/>
      <point x="134" y="7"/>
      <point x="152" y="7" type="curve"/>
      <point x="160" y="7"/>
      <point x="166" y="7"/>
      <point x="169" y="6" type="curve"/>
      <point x="182" y="0"/>
      <point x="207" y="12"/>
      <point x="202" y="33" type="curve"/>
      <point x="199" y="44"/>
      <point x="199" y="110"/>
      <point x="199" y="174" type="curve"/>
      <point x="199" y="211"/>
      <point x="200" y="253"/>
      <point x="201" y="299" type="curve"/>
      <point x="222" y="300"/>
      <point x="242" y="302"/>
      <point x="261" y="304" type="curve"/>
      <point x="293" y="307"/>
      <point x="331" y="310"/>
      <point x="352" y="310" type="curve"/>
      <point x="395" y="310"/>
      <point x="515" y="340"/>
    </contour>
    <contour>
      <point x="324" y="382" type="curve"/>
      <point x="305" y="382"/>
      <point x="277" y="382"/>
      <point x="250" y="385" type="curve"/>
      <point x="203" y="388" type="line"/>
      <point x="201" y="427" type="line" smooth="yes"/>
      <point x="200" y="450"/>
      <point x="200" y="479"/>
      <point x="203" y="506" type="curve"/>
      <point x="206" y="533"/>
      <point x="207" y="562"/>
      <point x="208" y="586" type="curve"/>
      <point x="209" y="600"/>
      <point x="209" y="614"/>
      <point x="209" y="628" type="curve"/>
      <point x="225" y="629"/>
      <point x="266" y="628"/>
      <point x="327" y="616" type="curve"/>
      <point x="388" y="604"/>
      <point x="425" y="568"/>
      <point x="425" y="483" type="curve"/>
      <point x="425" y="397"/>
      <point x="359" y="382"/>
    </contour>
  </outline>
</glyph>
<glyph name="Q" format="1">
  <advance width="669"/>
  <unicode hex="0051"/>
  <outline>
    <contour>
      <point x="615" y="26" type="curve" smooth="yes"/>
      <point x="604" y="35"/>
      <point x="572" y="72"/>
      <point x="540" y="111" type="curve"/>
      <point x="599" y="207"/>
      <point x="608" y="344"/>
      <point x="608" y="406" type="curve" smooth="yes"/>
      <point x="608" y="510"/>
      <point x="557" y="710"/>
      <point x="323" y="710" type="curve" smooth="yes"/>
      <point x="206" y="710"/>
      <point x="42" y="643"/>
      <point x="42" y="326" type="curve"/>
      <point x="47" y="265"/>
      <point x="60" y="210"/>
      <point x="83" y="162" type="curve" smooth="yes"/>
      <point x="122" y="80"/>
      <point x="198" y="-1"/>
      <point x="347" y="-1" type="curve" smooth="yes"/>
      <point x="411" y="-1"/>
      <point x="460" y="21"/>
      <point x="496" y="56" type="curve"/>
      <point x="506" y="43"/>
      <point x="513" y="34"/>
      <point x="516" y="28" type="curve" smooth="yes"/>
      <point x="529" y="7"/>
      <point x="537" y="1"/>
      <point x="560" y="1" type="curve" smooth="yes"/>
      <point x="583" y="1"/>
      <point x="612" y="3"/>
      <point x="621" y="2" type="curve" smooth="yes"/>
      <point x="625" y="2"/>
      <point x="629" y="3"/>
      <point x="629" y="7" type="curve" smooth="yes"/>
      <point x="629" y="11"/>
      <point x="625" y="17"/>
    </contour>
    <contour>
      <point x="386" y="204" type="curve"/>
      <point x="460" y="105" type="line"/>
      <point x="428" y="73"/>
      <point x="388" y="53"/>
      <point x="337" y="53" type="curve" smooth="yes"/>
      <point x="186" y="53"/>
      <point x="89" y="150"/>
      <point x="89" y="363" type="curve" smooth="yes"/>
      <point x="89" y="576"/>
      <point x="262" y="654"/>
      <point x="322" y="654" type="curve" smooth="yes"/>
      <point x="522" y="654"/>
      <point x="554" y="477"/>
      <point x="554" y="356" type="curve" smooth="yes"/>
      <point x="554" y="295"/>
      <point x="537" y="219"/>
      <point x="501" y="158" type="curve"/>
      <point x="485" y="177"/>
      <point x="473" y="191"/>
      <point x="470" y="198" type="curve" smooth="yes"/>
      <point x="460" y="216"/>
      <point x="460" y="239"/>
      <point x="431" y="236" type="curve" smooth="yes"/>
      <point x="402" y="233"/>
      <point x="382" y="231"/>
      <point x="375" y="231" type="curve" smooth="yes"/>
      <point x="368" y="231"/>
      <point x="371" y="224"/>
    </contour>
  </outline>
</glyph>
<glyph name="R" format="1">
  <advance width="527"/>
  <unicode hex="0052"/>
  <outline>
    <contour>
      <point x="420" y="184" type="curve"/>
      <point x="350" y="311" type="line"/>
      <point x="367" y="326"/>
      <point x="383" y="344"/>
      <point x="396" y="363" type="curve" smooth="yes"/>
      <point x="419" y="396"/>
      <point x="443" y="443"/>
      <point x="443" y="503" type="curve" smooth="yes"/>
      <point x="443" y="619"/>
      <point x="374" y="710"/>
      <point x="218" y="710" type="curve" smooth="yes"/>
      <point x="159" y="710"/>
      <point x="97" y="700"/>
      <point x="86" y="700" type="curve" smooth="yes"/>
      <point x="76" y="700"/>
      <point x="64" y="704"/>
      <point x="64" y="669" type="curve" smooth="yes"/>
      <point x="64" y="663"/>
      <point x="64" y="655"/>
      <point x="65" y="647" type="curve" smooth="yes"/>
      <point x="67" y="616"/>
      <point x="69" y="537"/>
      <point x="69" y="464" type="curve" smooth="yes"/>
      <point x="69" y="401"/>
      <point x="68" y="343"/>
      <point x="64" y="323" type="curve" smooth="yes"/>
      <point x="62" y="313"/>
      <point x="61" y="293"/>
      <point x="61" y="268" type="curve" smooth="yes"/>
      <point x="61" y="187"/>
      <point x="69" y="52"/>
      <point x="69" y="29" type="curve" smooth="yes"/>
      <point x="69" y="20"/>
      <point x="68" y="12"/>
      <point x="68" y="6" type="curve" smooth="yes"/>
      <point x="68" y="-8"/>
      <point x="71" y="-16"/>
      <point x="90" y="-16" type="curve" smooth="yes"/>
      <point x="116" y="-16"/>
      <point x="195" y="-5"/>
      <point x="219" y="-8" type="curve" smooth="yes"/>
      <point x="238" y="-11"/>
      <point x="248" y="-7"/>
      <point x="248" y="9" type="curve" smooth="yes"/>
      <point x="248" y="12"/>
      <point x="248" y="15"/>
      <point x="247" y="19" type="curve" smooth="yes"/>
      <point x="244" y="30"/>
      <point x="240" y="101"/>
      <point x="237" y="167" type="curve"/>
      <point x="234" y="206"/>
      <point x="232" y="249"/>
      <point x="229" y="296" type="curve"/>
      <point x="280" y="197" type="line" smooth="yes"/>
      <point x="307" y="143"/>
      <point x="336" y="86"/>
      <point x="349" y="62" type="curve" smooth="yes"/>
      <point x="373" y="15"/>
      <point x="375" y="-10"/>
      <point x="392" y="-10" type="curve" smooth="yes"/>
      <point x="409" y="-10"/>
      <point x="489" y="-7"/>
      <point x="505" y="-7" type="curve" smooth="yes"/>
      <point x="515" y="-7"/>
      <point x="524" y="-8"/>
      <point x="524" y="-1" type="curve" smooth="yes"/>
      <point x="524" y="4"/>
      <point x="520" y="12"/>
      <point x="510" y="28" type="curve" smooth="yes"/>
      <point x="496" y="48"/>
      <point x="457" y="118"/>
    </contour>
    <contour>
      <point x="223" y="429" type="curve"/>
      <point x="223" y="432"/>
      <point x="222" y="434"/>
      <point x="222" y="437" type="curve" smooth="yes"/>
      <point x="222" y="440"/>
      <point x="223" y="443"/>
      <point x="223" y="446" type="curve" smooth="yes"/>
      <point x="223" y="457"/>
      <point x="224" y="468"/>
      <point x="227" y="481" type="curve"/>
      <point x="230" y="506"/>
      <point x="224" y="534"/>
      <point x="227" y="537" type="curve" smooth="yes"/>
      <point x="232" y="542"/>
      <point x="239" y="545"/>
      <point x="246" y="545" type="curve" smooth="yes"/>
      <point x="262" y="545"/>
      <point x="278" y="530"/>
      <point x="278" y="488" type="curve" smooth="yes"/>
      <point x="278" y="457"/>
      <point x="265" y="442"/>
      <point x="250" y="435" type="curve" smooth="yes"/>
      <point x="242" y="431"/>
      <point x="233" y="429"/>
    </contour>
    <contour>
      <point x="254" y="710" type="move" name="top"/>
    </contour>
    <contour>
      <point x="293" y="0" type="move" name="bottom"/>
    </contour>
  </outline>
</glyph>
<glyph name="S" format="1">
  <advance width="576"/>
  <unicode hex="0053"/>
  <outline>
    <contour>
      <point x="268" y="717" type="curve" smooth="yes"/>
      <point x="195" y="717"/>
      <point x="49" y="636"/>
      <point x="49" y="507" type="curve" smooth="yes"/>
      <point x="49" y="378"/>
      <point x="186" y="332"/>
      <point x="231" y="300" type="curve" smooth="yes"/>
      <point x="276" y="268"/>
      <point x="340" y="215"/>
      <point x="340" y="153" type="curve" smooth="yes"/>
      <point x="340" y="92"/>
      <point x="282" y="84"/>
      <point x="246" y="84" type="curve" smooth="yes"/>
      <point x="168" y="84"/>
      <point x="123" y="132"/>
      <point x="112" y="143" type="curve" smooth="yes"/>
      <point x="104" y="151"/>
      <point x="98" y="162"/>
      <point x="91" y="162" type="curve" smooth="yes"/>
      <point x="88" y="162"/>
      <point x="86" y="161"/>
      <point x="83" y="158" type="curve" smooth="yes"/>
      <point x="72" y="147"/>
      <point x="53" y="126"/>
      <point x="45" y="115" type="curve" smooth="yes"/>
      <point x="40" y="109"/>
      <point x="37" y="106"/>
      <point x="37" y="102" type="curve" smooth="yes"/>
      <point x="37" y="99"/>
      <point x="38" y="96"/>
      <point x="41" y="92" type="curve" smooth="yes"/>
      <point x="50" y="83"/>
      <point x="102" y="-21"/>
      <point x="265" y="-21" type="curve" smooth="yes"/>
      <point x="428" y="-21"/>
      <point x="536" y="39"/>
      <point x="536" y="171" type="curve" smooth="yes"/>
      <point x="536" y="370"/>
      <point x="388" y="418"/>
      <point x="341" y="439" type="curve"/>
      <point x="295" y="458"/>
      <point x="224" y="486"/>
      <point x="224" y="552" type="curve" smooth="yes"/>
      <point x="224" y="619"/>
      <point x="262" y="621"/>
      <point x="288" y="621" type="curve" smooth="yes"/>
      <point x="361" y="621"/>
      <point x="453" y="518"/>
      <point x="463" y="518" type="curve" smooth="yes"/>
      <point x="474" y="518"/>
      <point x="474" y="524"/>
      <point x="483" y="535" type="curve" smooth="yes"/>
      <point x="494" y="547"/>
      <point x="511" y="576"/>
      <point x="518" y="585" type="curve"/>
      <point x="521" y="591"/>
      <point x="524" y="595"/>
      <point x="524" y="599" type="curve" smooth="yes"/>
      <point x="524" y="602"/>
      <point x="523" y="605"/>
      <point x="520" y="608" type="curve" smooth="yes"/>
      <point x="512" y="616"/>
      <point x="419" y="717"/>
    </contour>
    <contour>
      <point x="303" y="710" type="move" name="top"/>
    </contour>
    <contour>
      <point x="301" y="0" type="move" name="bottom"/>
    </contour>
  </outline>
</glyph>
<glyph name="T" format="1">
  <advance width="542"/>
  <unicode hex="0054"/>
  <outline>
    <contour>
      <point x="524" y="684"/>
      <point x="519" y="702"/>
      <point x="483" y="701" type="curve"/>
      <point x="446" y="698"/>
      <point x="308" y="703"/>
      <point x="271" y="703" type="curve" smooth="yes"/>
      <point x="234" y="703"/>
      <point x="170" y="700"/>
      <point x="142" y="700" type="curve" smooth="yes"/>
      <point x="43" y="700" type="line" smooth="yes"/>
      <point x="34" y="700"/>
      <point x="22" y="701"/>
      <point x="25" y="678" type="curve" smooth="yes"/>
      <point x="28" y="657"/>
      <point x="23" y="529"/>
      <point x="23" y="517" type="curve"/>
      <point x="20" y="506"/>
      <point x="24" y="494"/>
      <point x="43" y="494" type="curve" smooth="yes"/>
      <point x="56" y="494"/>
      <point x="151" y="497"/>
      <point x="220" y="497" type="curve"/>
      <point x="220" y="470"/>
      <point x="223" y="407"/>
      <point x="223" y="366" type="curve" smooth="yes"/>
      <point x="223" y="314"/>
      <point x="213" y="62"/>
      <point x="213" y="34" type="curve" smooth="yes"/>
      <point x="213" y="6"/>
      <point x="210" y="0"/>
      <point x="229" y="0" type="curve" smooth="yes"/>
      <point x="297" y="0" type="line" smooth="yes"/>
      <point x="308" y="0"/>
      <point x="313" y="-2"/>
      <point x="312" y="18" type="curve" smooth="yes"/>
      <point x="312" y="38"/>
      <point x="306" y="325"/>
      <point x="310" y="394" type="curve"/>
      <point x="312" y="497" type="line"/>
      <point x="488" y="497" type="line" smooth="yes"/>
      <point x="511" y="497"/>
      <point x="523" y="506"/>
      <point x="523" y="524" type="curve" smooth="yes"/>
      <point x="522" y="543"/>
      <point x="519" y="582"/>
      <point x="520" y="614" type="curve" smooth="yes"/>
      <point x="521" y="647"/>
      <point x="522" y="667"/>
      <point x="523" y="676" type="curve" smooth="yes"/>
    </contour>
    <contour>
      <point x="271" y="355" type="move" name="center"/>
    </contour>
    <contour>
      <point x="271" y="0" type="move" name="bottom"/>
    </contour>
    <contour>
      <point x="271" y="710" type="move" name="top"/>
    </contour>
  </outline>
</glyph>
<glyph name="U" format="1">
  <advance width="488"/>
  <unicode hex="0055"/>
  <outline>
    <contour>
      <point x="109" y="691" type="curve" smooth="yes"/>
      <point x="109" y="698"/>
      <point x="108" y="702"/>
      <point x="104" y="702" type="curve" smooth="yes"/>
      <point x="97" y="702"/>
      <point x="92" y="700"/>
      <point x="86" y="700" type="curve" smooth="yes"/>
      <point x="82" y="700"/>
      <point x="79" y="701"/>
      <point x="75" y="701" type="curve"/>
      <point x="68" y="704"/>
      <point x="56" y="706"/>
      <point x="56" y="678" type="curve" smooth="yes"/>
      <point x="56" y="673"/>
      <point x="56" y="668"/>
      <point x="57" y="662" type="curve" smooth="yes"/>
      <point x="59" y="634"/>
      <point x="61" y="549"/>
      <point x="61" y="480" type="curve" smooth="yes"/>
      <point x="61" y="437"/>
      <point x="61" y="401"/>
      <point x="59" y="387" type="curve" smooth="yes"/>
      <point x="57" y="374"/>
      <point x="56" y="345"/>
      <point x="56" y="311" type="curve" smooth="yes"/>
      <point x="56" y="250"/>
      <point x="60" y="173"/>
      <point x="70" y="140" type="curve" smooth="yes"/>
      <point x="86" y="88"/>
      <point x="132" y="3"/>
      <point x="228" y="3" type="curve" smooth="yes"/>
      <point x="325" y="3"/>
      <point x="430" y="60"/>
      <point x="433" y="247" type="curve" smooth="yes"/>
      <point x="436" y="436"/>
      <point x="424" y="558"/>
      <point x="427" y="593" type="curve" smooth="yes"/>
      <point x="428" y="603"/>
      <point x="428" y="614"/>
      <point x="428" y="625" type="curve" smooth="yes"/>
      <point x="428" y="647"/>
      <point x="427" y="668"/>
      <point x="426" y="679" type="curve" smooth="yes"/>
      <point x="425" y="695"/>
      <point x="427" y="703"/>
      <point x="404" y="703" type="curve" smooth="yes"/>
      <point x="381" y="703"/>
      <point x="344" y="702"/>
      <point x="333" y="703" type="curve" smooth="yes"/>
      <point x="324" y="703"/>
      <point x="305" y="708"/>
      <point x="305" y="683" type="curve" smooth="yes"/>
      <point x="305" y="678"/>
      <point x="306" y="672"/>
      <point x="308" y="664" type="curve" smooth="yes"/>
      <point x="311" y="649"/>
      <point x="312" y="625"/>
      <point x="312" y="595" type="curve" smooth="yes"/>
      <point x="312" y="531"/>
      <point x="307" y="444"/>
      <point x="307" y="392" type="curve" smooth="yes"/>
      <point x="307" y="317"/>
      <point x="302" y="190"/>
      <point x="302" y="165" type="curve" smooth="yes"/>
      <point x="302" y="138"/>
      <point x="286" y="86"/>
      <point x="219" y="86" type="curve" smooth="yes"/>
      <point x="154" y="86"/>
      <point x="106" y="171"/>
      <point x="106" y="288" type="curve" smooth="yes"/>
      <point x="106" y="435"/>
      <point x="109" y="763"/>
    </contour>
    <contour>
      <point x="246" y="710" type="move" name="top"/>
    </contour>
    <contour>
      <point x="246" y="0" type="move" name="bottom"/>
    </contour>
  </outline>
</glyph>
<glyph name="V" format="1">
  <advance width="567"/>
  <unicode hex="0056"/>
  <outline>
    <contour>
      <point x="226" y="605"/>
      <point x="219" y="659"/>
      <point x="214" y="678" type="curve"/>
      <point x="210" y="698"/>
      <point x="207" y="712"/>
      <point x="180" y="709" type="curve"/>
      <point x="154" y="709"/>
      <point x="90" y="705"/>
      <point x="69" y="705" type="curve" smooth="yes"/>
      <point x="47" y="705"/>
      <point x="19" y="718"/>
      <point x="29" y="690" type="curve"/>
      <point x="37" y="661"/>
      <point x="101" y="373"/>
      <point x="117" y="314" type="curve" smooth="yes"/>
      <point x="133" y="254"/>
      <point x="183" y="64"/>
      <point x="189" y="39" type="curve"/>
      <point x="192" y="15"/>
      <point x="194" y="1"/>
      <point x="217" y="1" type="curve" smooth="yes"/>
      <point x="239" y="1"/>
      <point x="351" y="9"/>
      <point x="368" y="9" type="curve" smooth="yes"/>
      <point x="385" y="9"/>
      <point x="392" y="1"/>
      <point x="399" y="25" type="curve" smooth="yes"/>
      <point x="407" y="49"/>
      <point x="433" y="238"/>
      <point x="453" y="317" type="curve"/>
      <point x="475" y="395"/>
      <point x="503" y="540"/>
      <point x="511" y="581" type="curve"/>
      <point x="520" y="621"/>
      <point x="528" y="660"/>
      <point x="535" y="679" type="curve"/>
      <point x="540" y="698"/>
      <point x="543" y="704"/>
      <point x="519" y="707" type="curve" smooth="yes"/>
      <point x="495" y="710"/>
      <point x="416" y="710"/>
      <point x="400" y="710" type="curve" smooth="yes"/>
      <point x="382" y="710"/>
      <point x="363" y="717"/>
      <point x="366" y="673" type="curve" smooth="yes"/>
      <point x="369" y="633"/>
      <point x="319" y="475"/>
      <point x="316" y="432" type="curve"/>
      <point x="313" y="411"/>
      <point x="307" y="373"/>
      <point x="300" y="341" type="curve" smooth="yes"/>
      <point x="287" y="282" type="line"/>
      <point x="265" y="381" type="line" smooth="yes"/>
      <point x="254" y="434"/>
      <point x="242" y="493"/>
      <point x="238" y="521" type="curve" smooth="yes"/>
    </contour>
  </outline>
</glyph>
<glyph name="X" format="1">
  <advance width="572"/>
  <unicode hex="0058"/>
  <outline>
    <contour>
      <point x="366" y="543" type="curve"/>
      <point x="311" y="453" type="line" smooth="yes"/>
      <point x="303" y="440"/>
      <point x="300" y="423"/>
      <point x="289" y="423" type="curve"/>
      <point x="278" y="439"/>
      <point x="268" y="455"/>
      <point x="258" y="472" type="curve" smooth="yes"/>
      <point x="241" y="500"/>
      <point x="220" y="535"/>
      <point x="205" y="562" type="curve" smooth="yes"/>
      <point x="174" y="615"/>
      <point x="156" y="642"/>
      <point x="139" y="669" type="curve"/>
      <point x="120" y="696"/>
      <point x="112" y="719"/>
      <point x="95" y="720" type="curve" smooth="yes"/>
      <point x="79" y="720"/>
      <point x="59" y="717"/>
      <point x="44" y="718" type="curve" smooth="yes"/>
      <point x="35" y="719"/>
      <point x="30" y="716"/>
      <point x="30" y="709" type="curve" smooth="yes"/>
      <point x="30" y="704"/>
      <point x="32" y="699"/>
      <point x="37" y="691" type="curve" smooth="yes"/>
      <point x="47" y="673"/>
      <point x="134" y="541"/>
      <point x="150" y="510" type="curve" smooth="yes"/>
      <point x="166" y="478"/>
      <point x="223" y="383"/>
      <point x="231" y="366" type="curve" smooth="yes"/>
      <point x="235" y="358"/>
      <point x="238" y="351"/>
      <point x="238" y="342" type="curve" smooth="yes"/>
      <point x="238" y="334"/>
      <point x="235" y="324"/>
      <point x="226" y="311" type="curve" smooth="yes"/>
      <point x="207" y="287"/>
      <point x="167" y="219"/>
      <point x="140" y="184" type="curve"/>
      <point x="115" y="149"/>
      <point x="49" y="60"/>
      <point x="37" y="40" type="curve" smooth="yes"/>
      <point x="29" y="27"/>
      <point x="22" y="18"/>
      <point x="22" y="11" type="curve" smooth="yes"/>
      <point x="22" y="7"/>
      <point x="25" y="4"/>
      <point x="31" y="2" type="curve" smooth="yes"/>
      <point x="42" y="-1"/>
      <point x="55" y="-3"/>
      <point x="67" y="-3" type="curve" smooth="yes"/>
      <point x="74" y="-3"/>
      <point x="80" y="-2"/>
      <point x="84" y="-1" type="curve" smooth="yes"/>
      <point x="96" y="4"/>
      <point x="121" y="33"/>
      <point x="133" y="60" type="curve" smooth="yes"/>
      <point x="144" y="87"/>
      <point x="184" y="153"/>
      <point x="202" y="176" type="curve" smooth="yes"/>
      <point x="221" y="200"/>
      <point x="258" y="251"/>
      <point x="268" y="263" type="curve" smooth="yes"/>
      <point x="273" y="270"/>
      <point x="277" y="275"/>
      <point x="281" y="275" type="curve" smooth="yes"/>
      <point x="284" y="275"/>
      <point x="288" y="272"/>
      <point x="293" y="265" type="curve" smooth="yes"/>
      <point x="304" y="248"/>
      <point x="359" y="156"/>
      <point x="373" y="129" type="curve"/>
      <point x="386" y="100"/>
      <point x="419" y="62"/>
      <point x="433" y="35" type="curve" smooth="yes"/>
      <point x="448" y="8"/>
      <point x="448" y="-4"/>
      <point x="460" y="-5" type="curve"/>
      <point x="523" y="-6" type="line" smooth="yes"/>
      <point x="534" y="-6"/>
      <point x="541" y="-5"/>
      <point x="541" y="1" type="curve" smooth="yes"/>
      <point x="541" y="4"/>
      <point x="540" y="7"/>
      <point x="537" y="12" type="curve" smooth="yes"/>
      <point x="529" y="27"/>
      <point x="485" y="101"/>
      <point x="464" y="133" type="curve"/>
      <point x="440" y="165"/>
      <point x="411" y="216"/>
      <point x="395" y="245" type="curve" smooth="yes"/>
      <point x="379" y="272"/>
      <point x="352" y="312"/>
      <point x="345" y="327" type="curve" smooth="yes"/>
      <point x="341" y="336"/>
      <point x="338" y="342"/>
      <point x="338" y="348" type="curve" smooth="yes"/>
      <point x="338" y="353"/>
      <point x="340" y="358"/>
      <point x="345" y="365" type="curve"/>
      <point x="353" y="381"/>
      <point x="424" y="521"/>
      <point x="443" y="548" type="curve" smooth="yes"/>
      <point x="462" y="575"/>
      <point x="494" y="628"/>
      <point x="515" y="654" type="curve"/>
      <point x="535" y="681"/>
      <point x="542" y="692"/>
      <point x="546" y="704" type="curve" smooth="yes"/>
      <point x="552" y="719"/>
      <point x="538" y="727"/>
      <point x="516" y="727" type="curve" smooth="yes"/>
      <point x="504" y="727"/>
      <point x="491" y="724"/>
      <point x="480" y="719" type="curve" smooth="yes"/>
      <point x="466" y="711"/>
      <point x="454" y="675"/>
      <point x="438" y="654" type="curve" smooth="yes"/>
      <point x="423" y="633"/>
      <point x="379" y="564"/>
    </contour>
  </outline>
</glyph>
<glyph name="bracketleft" format="1">
  <advance width="313"/>
  <unicode hex="005B"/>
  <outline>
    <contour>
      <point x="152" y="26" type="line"/>
      <point x="154" y="60" type="line" smooth="yes"/>
      <point x="155" y="81"/>
      <point x="156" y="109"/>
      <point x="156" y="122" type="curve" smooth="yes"/>
      <point x="156" y="148"/>
      <point x="160" y="311"/>
      <point x="160" y="337" type="curve" smooth="yes"/>
      <point x="160" y="367"/>
      <point x="172" y="568"/>
      <point x="172" y="609" type="curve" smooth="yes"/>
      <point x="172" y="628"/>
      <point x="173" y="647"/>
      <point x="176" y="665" type="curve" smooth="yes"/>
      <point x="178" y="683" type="line"/>
      <point x="185" y="684"/>
      <point x="191" y="684"/>
      <point x="196" y="684" type="curve" smooth="yes"/>
      <point x="275" y="684" type="line" smooth="yes"/>
      <point x="284" y="684"/>
      <point x="288" y="689"/>
      <point x="288" y="700" type="curve" smooth="yes"/>
      <point x="288" y="724" type="line" smooth="yes"/>
      <point x="288" y="729"/>
      <point x="292" y="747"/>
      <point x="278" y="747" type="curve"/>
      <point x="251" y="744" type="line"/>
      <point x="220" y="742"/>
      <point x="202" y="741"/>
      <point x="197" y="741" type="curve" smooth="yes"/>
      <point x="186" y="740"/>
      <point x="167" y="741"/>
      <point x="155" y="741" type="curve" smooth="yes"/>
      <point x="95" y="741" type="line"/>
      <point x="79" y="742"/>
      <point x="64" y="742"/>
      <point x="65" y="719" type="curve" smooth="yes"/>
      <point x="65" y="698"/>
      <point x="69" y="614"/>
      <point x="66" y="596" type="curve" smooth="yes"/>
      <point x="63" y="577"/>
      <point x="68" y="464"/>
      <point x="68" y="437" type="curve" smooth="yes"/>
      <point x="68" y="409"/>
      <point x="72" y="281"/>
      <point x="69" y="172" type="curve"/>
      <point x="68" y="64"/>
      <point x="60" y="-2"/>
      <point x="57" y="-27" type="curve" smooth="yes"/>
      <point x="56" y="-41"/>
      <point x="55" y="-51"/>
      <point x="55" y="-58" type="curve" smooth="yes"/>
      <point x="55" y="-65"/>
      <point x="60" y="-69"/>
      <point x="71" y="-70" type="curve" smooth="yes"/>
      <point x="86" y="-72"/>
      <point x="97" y="-73"/>
      <point x="102" y="-72" type="curve"/>
      <point x="124" y="-72" type="line"/>
      <point x="179" y="-72" type="line" smooth="yes"/>
      <point x="233" y="-72"/>
      <point x="250" y="-76"/>
      <point x="266" y="-76" type="curve" smooth="yes"/>
      <point x="283" y="-76"/>
      <point x="287" y="-72"/>
      <point x="287" y="-57" type="curve" smooth="yes"/>
      <point x="287" y="13" type="line" smooth="yes"/>
      <point x="287" y="24"/>
      <point x="282" y="28"/>
      <point x="269" y="26" type="curve"/>
    </contour>
  </outline>
</glyph>
<glyph name="bracketright" format="1">
  <advance width="312"/>
  <unicode hex="005D"/>
  <outline>
    <contour>
      <point x="162" y="645" type="line"/>
      <point x="160" y="611" type="line" smooth="yes"/>
      <point x="159" y="590"/>
      <point x="158" y="562"/>
      <point x="158" y="549" type="curve" smooth="yes"/>
      <point x="158" y="523"/>
      <point x="154" y="360"/>
      <point x="154" y="334" type="curve" smooth="yes"/>
      <point x="154" y="304"/>
      <point x="142" y="103"/>
      <point x="142" y="62" type="curve" smooth="yes"/>
      <point x="142" y="43"/>
      <point x="141" y="24"/>
      <point x="138" y="6" type="curve" smooth="yes"/>
      <point x="136" y="-12" type="line"/>
      <point x="129" y="-13"/>
      <point x="123" y="-13"/>
      <point x="118" y="-13" type="curve" smooth="yes"/>
      <point x="39" y="-13" type="line" smooth="yes"/>
      <point x="30" y="-13"/>
      <point x="26" y="-18"/>
      <point x="26" y="-29" type="curve" smooth="yes"/>
      <point x="26" y="-53" type="line" smooth="yes"/>
      <point x="26" y="-58"/>
      <point x="22" y="-76"/>
      <point x="36" y="-76" type="curve"/>
      <point x="63" y="-73" type="line"/>
      <point x="94" y="-71"/>
      <point x="112" y="-70"/>
      <point x="117" y="-70" type="curve" smooth="yes"/>
      <point x="128" y="-69"/>
      <point x="147" y="-70"/>
      <point x="159" y="-70" type="curve" smooth="yes"/>
      <point x="219" y="-70" type="line"/>
      <point x="235" y="-71"/>
      <point x="250" y="-71"/>
      <point x="249" y="-48" type="curve" smooth="yes"/>
      <point x="249" y="-27"/>
      <point x="245" y="57"/>
      <point x="248" y="75" type="curve" smooth="yes"/>
      <point x="251" y="94"/>
      <point x="246" y="207"/>
      <point x="246" y="234" type="curve" smooth="yes"/>
      <point x="246" y="262"/>
      <point x="242" y="390"/>
      <point x="245" y="499" type="curve"/>
      <point x="246" y="607"/>
      <point x="254" y="673"/>
      <point x="257" y="698" type="curve" smooth="yes"/>
      <point x="258" y="712"/>
      <point x="259" y="722"/>
      <point x="259" y="729" type="curve" smooth="yes"/>
      <point x="259" y="736"/>
      <point x="254" y="740"/>
      <point x="243" y="741" type="curve" smooth="yes"/>
      <point x="228" y="743"/>
      <point x="217" y="744"/>
      <point x="212" y="743" type="curve"/>
      <point x="190" y="743" type="line"/>
      <point x="135" y="743" type="line" smooth="yes"/>
      <point x="81" y="743"/>
      <point x="63" y="747"/>
      <point x="48" y="747" type="curve" smooth="yes"/>
      <point x="31" y="747"/>
      <point x="27" y="743"/>
      <point x="27" y="728" type="curve" smooth="yes"/>
      <point x="27" y="658" type="line" smooth="yes"/>
      <point x="27" y="647"/>
      <point x="32" y="643"/>
      <point x="45" y="645" type="curve"/>
    </contour>
  </outline>
</glyph>
<glyph name="asciicircum" format="1">
  <advance width="364"/>
  <unicode hex="005E"/>
  <outline>
    <contour>
      <point x="340" y="250"/>
      <point x="311" y="296"/>
      <point x="302" y="313" type="curve" smooth="yes"/>
      <point x="267" y="378" type="line" smooth="yes"/>
      <point x="258" y="395"/>
      <point x="246" y="417"/>
      <point x="233" y="445" type="curve"/>
      <point x="212" y="478"/>
      <point x="206" y="495"/>
      <point x="183" y="487" type="curve"/>
      <point x="176" y="487"/>
      <point x="170" y="483"/>
      <point x="163" y="476" type="curve"/>
      <point x="152" y="460"/>
      <point x="134" y="434"/>
      <point x="110" y="395" type="curve"/>
      <point x="79" y="329"/>
      <point x="71" y="329"/>
      <point x="60" y="307" type="curve" smooth="yes"/>
      <point x="52" y="289"/>
      <point x="21" y="237"/>
      <point x="21" y="221" type="curve" smooth="yes"/>
      <point x="21" y="178"/>
      <point x="37" y="170"/>
      <point x="50" y="170" type="curve"/>
      <point x="73" y="162"/>
      <point x="100" y="179"/>
      <point x="120" y="212" type="curve"/>
      <point x="133" y="240"/>
      <point x="145" y="260"/>
      <point x="153" y="280" type="curve" smooth="yes"/>
      <point x="158" y="291"/>
      <point x="172" y="316"/>
      <point x="196" y="355" type="curve"/>
      <point x="215" y="327"/>
      <point x="227" y="299"/>
      <point x="243" y="256" type="curve"/>
      <point x="249" y="243"/>
      <point x="255" y="232"/>
      <point x="261" y="223" type="curve" smooth="yes"/>
      <point x="272" y="206"/>
      <point x="285" y="190"/>
      <point x="293" y="185" type="curve"/>
      <point x="305" y="171"/>
      <point x="315" y="164"/>
      <point x="322" y="163" type="curve" smooth="yes"/>
      <point x="329" y="162"/>
      <point x="334" y="178"/>
      <point x="337" y="210" type="curve" smooth="yes"/>
    </contour>
  </outline>
</glyph>
<glyph name="underscore" format="1">
  <advance width="565"/>
  <unicode hex="005F"/>
  <outline>
    <contour>
      <point x="469" y="-95"/>
      <point x="495" y="-109"/>
      <point x="501" y="-94" type="curve"/>
      <point x="504" y="-78"/>
      <point x="503" y="-56"/>
      <point x="503" y="-45" type="curve" smooth="yes"/>
      <point x="503" y="-34"/>
      <point x="500" y="-23"/>
      <point x="477" y="-23" type="curve"/>
      <point x="466" y="-22"/>
      <point x="455" y="-22"/>
      <point x="445" y="-22" type="curve" smooth="yes"/>
      <point x="404" y="-22" type="line" smooth="yes"/>
      <point x="391" y="-22"/>
      <point x="226" y="-23"/>
      <point x="207" y="-23" type="curve" smooth="yes"/>
      <point x="97" y="-23" type="line" smooth="yes"/>
      <point x="78" y="-23"/>
      <point x="68" y="-30"/>
      <point x="68" y="-45" type="curve" smooth="yes"/>
      <point x="68" y="-74" type="line" smooth="yes"/>
      <point x="68" y="-82"/>
      <point x="59" y="-105"/>
      <point x="89" y="-105" type="curve"/>
      <point x="148" y="-101" type="line"/>
      <point x="181" y="-100"/>
      <point x="219" y="-97"/>
      <point x="242" y="-97" type="curve" smooth="yes"/>
      <point x="289" y="-98"/>
      <point x="397" y="-97"/>
      <point x="441" y="-95" type="curve"/>
    </contour>
  </outline>
</glyph>
<glyph name="grave" format="1">
  <advance width="247"/>
  <unicode hex="0060"/>
  <outline>
    <contour>
      <point x="134" y="752" type="curve"/>
      <point x="156" y="744" type="line"/>
      <point x="169" y="741"/>
      <point x="183" y="739"/>
      <point x="191" y="740" type="curve"/>
      <point x="214" y="737"/>
      <point x="229" y="736"/>
      <point x="229" y="754" type="curve" smooth="yes"/>
      <point x="229" y="758"/>
      <point x="228" y="762"/>
      <point x="227" y="767" type="curve" smooth="yes"/>
      <point x="223" y="786"/>
      <point x="188" y="795"/>
      <point x="177" y="800" type="curve"/>
      <point x="142" y="808"/>
      <point x="126" y="814"/>
      <point x="91" y="829" type="curve"/>
      <point x="78" y="833"/>
      <point x="69" y="837"/>
      <point x="60" y="837" type="curve" smooth="yes"/>
      <point x="53" y="837"/>
      <point x="47" y="834"/>
      <point x="38" y="829" type="curve" smooth="yes"/>
      <point x="29" y="824"/>
      <point x="19" y="819"/>
      <point x="19" y="807" type="curve" smooth="yes"/>
      <point x="19" y="804"/>
      <point x="20" y="800"/>
      <point x="22" y="796" type="curve" smooth="yes"/>
      <point x="26" y="788"/>
      <point x="61" y="776"/>
      <point x="72" y="773" type="curve"/>
      <point x="85" y="765"/>
      <point x="94" y="770"/>
    </contour>
    <contour>
      <point x="149" y="900" type="move" name="top"/>
    </contour>
    <contour>
      <point x="149" y="710" type="move" name="_top"/>
    </contour>
  </outline>
</glyph>
<glyph name="b" format="1">
  <advance width="532"/>
  <unicode hex="0062"/>
  <outline>
    <contour>
      <point x="71" y="89" type="line"/>
      <point x="71" y="72"/>
      <point x="67" y="25"/>
      <point x="67" y="10" type="curve" smooth="yes"/>
      <point x="67" y="-4"/>
      <point x="76" y="-2"/>
      <point x="82" y="-2" type="curve" smooth="yes"/>
      <point x="85" y="-2"/>
      <point x="116" y="0"/>
      <point x="128" y="0" type="curve" smooth="yes"/>
      <point x="144" y="0"/>
      <point x="160" y="-2"/>
      <point x="156" y="-2" type="curve" smooth="yes"/>
      <point x="166" y="-2"/>
      <point x="165" y="4"/>
      <point x="165" y="17" type="curve" smooth="yes"/>
      <point x="165" y="24" type="line"/>
      <point x="194" y="4"/>
      <point x="234" y="-11"/>
      <point x="288" y="-11" type="curve" smooth="yes"/>
      <point x="478" y="-11"/>
      <point x="492" y="241"/>
      <point x="492" y="298" type="curve" smooth="yes"/>
      <point x="492" y="453"/>
      <point x="438" y="595"/>
      <point x="288" y="595" type="curve" smooth="yes"/>
      <point x="245" y="595"/>
      <point x="202" y="584"/>
      <point x="168" y="564" type="curve"/>
      <point x="168" y="612"/>
      <point x="167" y="665"/>
      <point x="167" y="670" type="curve" smooth="yes"/>
      <point x="166" y="735" type="line" smooth="yes"/>
      <point x="166" y="741"/>
      <point x="163" y="742"/>
      <point x="158" y="742" type="curve" smooth="yes"/>
      <point x="152" y="742"/>
      <point x="145" y="740"/>
      <point x="140" y="740" type="curve" smooth="yes"/>
      <point x="79" y="739" type="line" smooth="yes"/>
      <point x="67" y="739"/>
      <point x="66" y="733"/>
      <point x="66" y="727" type="curve" smooth="yes"/>
      <point x="66" y="722"/>
      <point x="65" y="711"/>
      <point x="65" y="687" type="curve" smooth="yes"/>
      <point x="65" y="664"/>
      <point x="74" y="465"/>
      <point x="74" y="438" type="curve" smooth="yes"/>
      <point x="74" y="384" type="line" smooth="yes"/>
      <point x="74" y="373"/>
      <point x="74" y="362"/>
      <point x="73" y="349" type="curve"/>
    </contour>
    <contour>
      <point x="284" y="91" type="curve" smooth="yes"/>
      <point x="226" y="91"/>
      <point x="188" y="122"/>
      <point x="166" y="165" type="curve"/>
      <point x="166" y="219" type="line"/>
      <point x="166" y="297" type="line" smooth="yes"/>
      <point x="166" y="344"/>
      <point x="166" y="323"/>
      <point x="167" y="341" type="curve" smooth="yes"/>
      <point x="168" y="361"/>
      <point x="168" y="384"/>
      <point x="168" y="404" type="curve" smooth="yes"/>
      <point x="168" y="408" type="line"/>
      <point x="198" y="446"/>
      <point x="249" y="465"/>
      <point x="294" y="465" type="curve" smooth="yes"/>
      <point x="350" y="465"/>
      <point x="423" y="430"/>
      <point x="423" y="298" type="curve" smooth="yes"/>
      <point x="423" y="159"/>
      <point x="365" y="91"/>
    </contour>
  </outline>
</glyph>
<glyph name="d" format="1">
  <advance width="575"/>
  <unicode hex="0064"/>
  <outline>
    <contour>
      <point x="499" y="702" type="curve"/>
      <point x="499" y="718"/>
      <point x="495" y="746"/>
      <point x="476" y="743" type="curve"/>
      <point x="454" y="739"/>
      <point x="435" y="742"/>
      <point x="406" y="742" type="curve"/>
      <point x="389" y="742"/>
      <point x="384" y="726"/>
      <point x="384" y="693" type="curve"/>
      <point x="384" y="688"/>
      <point x="383" y="605"/>
      <point x="382" y="528" type="curve"/>
      <point x="372" y="538"/>
      <point x="351" y="573"/>
      <point x="243" y="573" type="curve"/>
      <point x="217" y="573"/>
      <point x="192" y="566"/>
      <point x="167" y="553" type="curve"/>
      <point x="143" y="540"/>
      <point x="121" y="520"/>
      <point x="102" y="496" type="curve"/>
      <point x="61" y="443"/>
      <point x="40" y="387"/>
      <point x="40" y="301" type="curve"/>
      <point x="40" y="212"/>
      <point x="58" y="135"/>
      <point x="92" y="80" type="curve"/>
      <point x="129" y="20"/>
      <point x="185" y="-11"/>
      <point x="252" y="-11" type="curve"/>
      <point x="299" y="-11"/>
      <point x="340" y="14"/>
      <point x="374" y="40" type="curve"/>
      <point x="374" y="39"/>
      <point x="374" y="21"/>
      <point x="374" y="20" type="curve"/>
      <point x="374" y="-2"/>
      <point x="385" y="-3"/>
      <point x="403" y="-3" type="curve"/>
      <point x="416" y="-3"/>
      <point x="440" y="-3"/>
      <point x="475" y="-5" type="curve"/>
      <point x="489" y="-5"/>
      <point x="497" y="-1"/>
      <point x="497" y="18" type="curve"/>
      <point x="497" y="113"/>
      <point x="499" y="686"/>
    </contour>
    <contour>
      <point x="375" y="156" type="curve"/>
      <point x="375" y="108"/>
      <point x="327" y="58"/>
      <point x="249" y="58" type="curve"/>
      <point x="203" y="58"/>
      <point x="168" y="82"/>
      <point x="145" y="129" type="curve"/>
      <point x="124" y="170"/>
      <point x="113" y="228"/>
      <point x="113" y="293" type="curve"/>
      <point x="113" y="351"/>
      <point x="128" y="388"/>
      <point x="154" y="429" type="curve"/>
      <point x="167" y="449"/>
      <point x="183" y="464"/>
      <point x="200" y="475" type="curve"/>
      <point x="218" y="486"/>
      <point x="238" y="492"/>
      <point x="259" y="492" type="curve"/>
      <point x="305" y="492"/>
      <point x="377" y="459"/>
      <point x="377" y="404" type="curve"/>
      <point x="377" y="338"/>
      <point x="380" y="319"/>
      <point x="381" y="274" type="curve"/>
      <point x="382" y="256"/>
      <point x="375" y="195"/>
    </contour>
    <contour>
      <point x="277" y="0" type="move" name="bottom"/>
    </contour>
    <contour>
      <point x="260" y="602" type="move" name="top"/>
    </contour>
  </outline>
</glyph>
<glyph name="f" format="1">
  <advance width="347"/>
  <unicode hex="0066"/>
  <outline>
    <contour>
      <point x="79" y="329" type="line"/>
      <point x="80" y="250"/>
      <point x="83" y="204"/>
      <point x="81" y="121" type="curve"/>
      <point x="81" y="38" type="line"/>
      <point x="79" y="4"/>
      <point x="87" y="-3"/>
      <point x="97" y="-3" type="curve" smooth="yes"/>
      <point x="99" y="-3"/>
      <point x="115" y="-3"/>
      <point x="118" y="-2" type="curve"/>
      <point x="133" y="-1"/>
      <point x="177" y="-2"/>
      <point x="204" y="1" type="curve" smooth="yes"/>
      <point x="219" y="3"/>
      <point x="224" y="8"/>
      <point x="224" y="18" type="curve" smooth="yes"/>
      <point x="224" y="24"/>
      <point x="224" y="31"/>
      <point x="223" y="41" type="curve" smooth="yes"/>
      <point x="220" y="65"/>
      <point x="215" y="124"/>
      <point x="218" y="223" type="curve"/>
      <point x="217" y="250"/>
      <point x="219" y="276"/>
      <point x="219" y="303" type="curve"/>
      <point x="220" y="326"/>
      <point x="219" y="335"/>
      <point x="221" y="361" type="curve"/>
      <point x="244" y="361"/>
      <point x="273" y="359"/>
      <point x="290" y="359" type="curve" smooth="yes"/>
      <point x="309" y="359"/>
      <point x="313" y="362"/>
      <point x="313" y="373" type="curve" smooth="yes"/>
      <point x="313" y="378"/>
      <point x="314" y="381"/>
      <point x="314" y="386" type="curve" smooth="yes"/>
      <point x="314" y="397"/>
      <point x="310" y="403"/>
      <point x="287" y="403" type="curve" smooth="yes"/>
      <point x="268" y="403"/>
      <point x="242" y="401"/>
      <point x="221" y="401" type="curve"/>
      <point x="221" y="598" type="line" smooth="yes"/>
      <point x="222" y="622"/>
      <point x="231" y="631"/>
      <point x="252" y="631" type="curve" smooth="yes"/>
      <point x="281" y="631"/>
      <point x="294" y="628"/>
      <point x="306" y="628" type="curve" smooth="yes"/>
      <point x="311" y="628"/>
      <point x="314" y="645"/>
      <point x="316" y="651" type="curve" smooth="yes"/>
      <point x="325" y="680" type="line"/>
      <point x="325" y="680"/>
      <point x="329" y="694"/>
      <point x="335" y="705" type="curve" smooth="yes"/>
      <point x="338" y="711"/>
      <point x="336" y="715"/>
      <point x="332" y="717" type="curve" smooth="yes"/>
      <point x="299" y="739"/>
      <point x="269" y="742"/>
      <point x="222" y="743" type="curve" smooth="yes"/>
      <point x="173" y="744"/>
      <point x="113" y="726"/>
      <point x="92" y="668" type="curve" smooth="yes"/>
      <point x="75" y="622"/>
      <point x="81" y="549"/>
      <point x="82" y="498" type="curve" smooth="yes"/>
      <point x="82" y="462"/>
      <point x="83" y="429"/>
      <point x="82" y="403" type="curve"/>
      <point x="62" y="403" type="line" smooth="yes"/>
      <point x="39" y="403"/>
      <point x="35" y="398"/>
      <point x="35" y="386" type="curve" smooth="yes"/>
      <point x="35" y="381"/>
      <point x="36" y="378"/>
      <point x="36" y="373" type="curve" smooth="yes"/>
      <point x="36" y="362"/>
      <point x="40" y="359"/>
      <point x="59" y="359" type="curve" smooth="yes"/>
      <point x="79" y="359" type="line"/>
    </contour>
  </outline>
</glyph>
<glyph name="h" format="1">
  <advance width="638"/>
  <unicode hex="0068"/>
  <outline>
    <contour>
      <point x="254" y="476" type="line" smooth="yes"/>
      <point x="255" y="503"/>
      <point x="256" y="535"/>
      <point x="256" y="562" type="curve" smooth="yes"/>
      <point x="256" y="615"/>
      <point x="254" y="675"/>
      <point x="254" y="683" type="curve" smooth="yes"/>
      <point x="254" y="691"/>
      <point x="256" y="702"/>
      <point x="245" y="701" type="curve"/>
      <point x="233" y="701"/>
      <point x="197" y="699"/>
      <point x="174" y="699" type="curve" smooth="yes"/>
      <point x="152" y="699"/>
      <point x="109" y="701"/>
      <point x="99" y="703" type="curve"/>
      <point x="88" y="704"/>
      <point x="74" y="709"/>
      <point x="74" y="690" type="curve" smooth="yes"/>
      <point x="74" y="671"/>
      <point x="65" y="540"/>
      <point x="65" y="505" type="curve" smooth="yes"/>
      <point x="65" y="468"/>
      <point x="61" y="384"/>
      <point x="66" y="345" type="curve"/>
      <point x="69" y="305"/>
      <point x="65" y="163"/>
      <point x="65" y="137" type="curve" smooth="yes"/>
      <point x="65" y="111"/>
      <point x="62" y="39"/>
      <point x="62" y="26" type="curve" smooth="yes"/>
      <point x="62" y="13"/>
      <point x="64" y="-5"/>
      <point x="85" y="-2" type="curve"/>
      <point x="108" y="-1"/>
      <point x="149" y="3"/>
      <point x="166" y="4" type="curve" smooth="yes"/>
      <point x="183" y="4"/>
      <point x="209" y="1"/>
      <point x="224" y="0" type="curve" smooth="yes"/>
      <point x="239" y="0"/>
      <point x="254" y="-3"/>
      <point x="251" y="17" type="curve" smooth="yes"/>
      <point x="248" y="36"/>
      <point x="249" y="96"/>
      <point x="249" y="133" type="curve" smooth="yes"/>
      <point x="249" y="152"/>
      <point x="249" y="189"/>
      <point x="252" y="224" type="curve"/>
      <point x="255" y="287" type="line"/>
      <point x="264" y="286"/>
      <point x="272" y="286"/>
      <point x="279" y="286" type="curve" smooth="yes"/>
      <point x="293" y="285"/>
      <point x="306" y="285"/>
      <point x="317" y="286" type="curve" smooth="yes"/>
      <point x="326" y="286"/>
      <point x="344" y="287"/>
      <point x="360" y="287" type="curve" smooth="yes"/>
      <point x="389" y="287" type="line"/>
      <point x="389" y="271"/>
      <point x="389" y="256"/>
      <point x="390" y="241" type="curve"/>
      <point x="390" y="216"/>
      <point x="391" y="186"/>
      <point x="392" y="167" type="curve" smooth="yes"/>
      <point x="395" y="131"/>
      <point x="396" y="39"/>
      <point x="396" y="25" type="curve" smooth="yes"/>
      <point x="396" y="10"/>
      <point x="393" y="0"/>
      <point x="412" y="1" type="curve" smooth="yes"/>
      <point x="431" y="1"/>
      <point x="474" y="1"/>
      <point x="502" y="4" type="curve" smooth="yes"/>
      <point x="530" y="7"/>
      <point x="541" y="5"/>
      <point x="548" y="4" type="curve"/>
      <point x="556" y="4"/>
      <point x="569" y="0"/>
      <point x="568" y="21" type="curve"/>
      <point x="565" y="40"/>
      <point x="564" y="118"/>
      <point x="564" y="158" type="curve" smooth="yes"/>
      <point x="564" y="199"/>
      <point x="562" y="316"/>
      <point x="562" y="356" type="curve" smooth="yes"/>
      <point x="562" y="395"/>
      <point x="574" y="506"/>
      <point x="574" y="538" type="curve" smooth="yes"/>
      <point x="574" y="571"/>
      <point x="581" y="671"/>
      <point x="581" y="688" type="curve"/>
      <point x="578" y="705"/>
      <point x="583" y="709"/>
      <point x="563" y="712" type="curve" smooth="yes"/>
      <point x="542" y="715"/>
      <point x="505" y="717"/>
      <point x="481" y="714" type="curve" smooth="yes"/>
      <point x="458" y="711"/>
      <point x="440" y="708"/>
      <point x="425" y="708" type="curve" smooth="yes"/>
      <point x="410" y="707"/>
      <point x="408" y="701"/>
      <point x="407" y="682" type="curve" smooth="yes"/>
      <point x="407" y="664"/>
      <point x="403" y="531"/>
      <point x="403" y="507" type="curve"/>
      <point x="400" y="459" type="line"/>
      <point x="397" y="429" type="line"/>
      <point x="374" y="431" type="line" smooth="yes"/>
      <point x="359" y="432"/>
      <point x="346" y="432"/>
      <point x="334" y="431" type="curve" smooth="yes"/>
      <point x="312" y="428"/>
      <point x="259" y="430"/>
      <point x="252" y="430" type="curve"/>
    </contour>
    <contour>
      <point x="319" y="246" type="move" name="center"/>
    </contour>
    <contour>
      <point x="319" y="492" type="move" name="top"/>
    </contour>
  </outline>
</glyph>
<glyph name="k" format="1">
  <advance width="601"/>
  <unicode hex="006B"/>
  <outline>
    <contour>
      <point x="73" y="692"/>
      <point x="52" y="701"/>
      <point x="52" y="686" type="curve" smooth="yes"/>
      <point x="52" y="670"/>
      <point x="51" y="626"/>
      <point x="51" y="607" type="curve" smooth="yes"/>
      <point x="51" y="588"/>
      <point x="48" y="538"/>
      <point x="51" y="503" type="curve" smooth="yes"/>
      <point x="54" y="467"/>
      <point x="53" y="319"/>
      <point x="53" y="268" type="curve" smooth="yes"/>
      <point x="53" y="217"/>
      <point x="54" y="38"/>
      <point x="54" y="23" type="curve" smooth="yes"/>
      <point x="54" y="7"/>
      <point x="53" y="0"/>
      <point x="64" y="0" type="curve" smooth="yes"/>
      <point x="74" y="0"/>
      <point x="127" y="3"/>
      <point x="141" y="3" type="curve" smooth="yes"/>
      <point x="156" y="3"/>
      <point x="185" y="0"/>
      <point x="194" y="0" type="curve" smooth="yes"/>
      <point x="202" y="0"/>
      <point x="213" y="-3"/>
      <point x="213" y="14" type="curve" smooth="yes"/>
      <point x="213" y="32"/>
      <point x="208" y="89"/>
      <point x="208" y="110" type="curve" smooth="yes"/>
      <point x="208" y="194" type="line"/>
      <point x="246" y="162" type="line"/>
      <point x="266" y="143"/>
      <point x="290" y="124"/>
      <point x="303" y="111" type="curve" smooth="yes"/>
      <point x="330" y="84"/>
      <point x="357" y="56"/>
      <point x="372" y="40" type="curve" smooth="yes"/>
      <point x="387" y="23"/>
      <point x="402" y="10"/>
      <point x="409" y="3" type="curve" smooth="yes"/>
      <point x="417" y="-4"/>
      <point x="428" y="-9"/>
      <point x="448" y="-8" type="curve" smooth="yes"/>
      <point x="467" y="-8"/>
      <point x="520" y="-5"/>
      <point x="531" y="-5" type="curve"/>
      <point x="542" y="-8"/>
      <point x="556" y="-2"/>
      <point x="549" y="6" type="curve" smooth="yes"/>
      <point x="541" y="14"/>
      <point x="491" y="69"/>
      <point x="457" y="100" type="curve" smooth="yes"/>
      <point x="422" y="132"/>
      <point x="363" y="201"/>
      <point x="352" y="212" type="curve" smooth="yes"/>
      <point x="341" y="223"/>
      <point x="289" y="277"/>
      <point x="276" y="293" type="curve"/>
      <point x="261" y="309"/>
      <point x="250" y="316"/>
      <point x="250" y="323" type="curve" smooth="yes"/>
      <point x="250" y="328"/>
      <point x="288" y="391"/>
      <point x="301" y="407" type="curve" smooth="yes"/>
      <point x="315" y="423"/>
      <point x="401" y="540"/>
      <point x="417" y="564" type="curve"/>
      <point x="436" y="588"/>
      <point x="509" y="677"/>
      <point x="514" y="682" type="curve" smooth="yes"/>
      <point x="519" y="687"/>
      <point x="524" y="691"/>
      <point x="524" y="696" type="curve" smooth="yes"/>
      <point x="524" y="700"/>
      <point x="517" y="704"/>
      <point x="502" y="703" type="curve" smooth="yes"/>
      <point x="487" y="702"/>
      <point x="469" y="700"/>
      <point x="460" y="700" type="curve" smooth="yes"/>
      <point x="451" y="699"/>
      <point x="436" y="702"/>
      <point x="431" y="686" type="curve" smooth="yes"/>
      <point x="425" y="669"/>
      <point x="384" y="624"/>
      <point x="374" y="609" type="curve" smooth="yes"/>
      <point x="364" y="594"/>
      <point x="285" y="484"/>
      <point x="266" y="460" type="curve" smooth="yes"/>
      <point x="229" y="412" type="line" smooth="yes"/>
      <point x="222" y="402"/>
      <point x="214" y="392"/>
      <point x="205" y="382" type="curve"/>
      <point x="204" y="397"/>
      <point x="204" y="411"/>
      <point x="204" y="424" type="curve" smooth="yes"/>
      <point x="204" y="490" type="line" smooth="yes"/>
      <point x="204" y="522"/>
      <point x="215" y="600"/>
      <point x="215" y="628" type="curve" smooth="yes"/>
      <point x="215" y="657"/>
      <point x="214" y="670"/>
      <point x="214" y="677" type="curve" smooth="yes"/>
      <point x="214" y="684"/>
      <point x="213" y="691"/>
      <point x="198" y="691" type="curve" smooth="yes"/>
      <point x="182" y="691"/>
      <point x="109" y="692"/>
      <point x="84" y="692" type="curve" smooth="yes"/>
    </contour>
    <contour>
      <point x="301" y="0" type="move" name="bottom"/>
    </contour>
  </outline>
</glyph>
<glyph name="n" format="1">
  <advance width="543"/>
  <unicode hex="006E"/>
  <outline>
    <contour>
      <point x="473" y="210" type="curve" smooth="yes"/>
      <point x="473" y="243"/>
      <point x="472" y="357"/>
      <point x="472" y="384" type="curve" smooth="yes"/>
      <point x="472" y="412"/>
      <point x="471" y="499"/>
      <point x="444" y="532" type="curve"/>
      <point x="408" y="582"/>
      <point x="370" y="597"/>
      <point x="311" y="597" type="curve" smooth="yes"/>
      <point x="220" y="597"/>
      <point x="182" y="565"/>
      <point x="134" y="544" type="curve"/>
      <point x="134" y="544"/>
      <point x="135" y="574"/>
      <point x="135" y="580" type="curve" smooth="yes"/>
      <point x="135" y="593"/>
      <point x="131" y="597"/>
      <point x="127" y="597" type="curve" smooth="yes"/>
      <point x="125" y="597"/>
      <point x="116" y="598"/>
      <point x="105" y="598" type="curve" smooth="yes"/>
      <point x="94" y="598"/>
      <point x="89" y="598"/>
      <point x="87" y="598" type="curve" smooth="yes"/>
      <point x="76" y="598"/>
      <point x="74" y="592"/>
      <point x="74" y="584" type="curve" smooth="yes"/>
      <point x="74" y="576"/>
      <point x="74" y="294"/>
      <point x="74" y="294" type="curve"/>
      <point x="73" y="259"/>
      <point x="79" y="26"/>
      <point x="79" y="13" type="curve" smooth="yes"/>
      <point x="79" y="3"/>
      <point x="82" y="0"/>
      <point x="90" y="0" type="curve" smooth="yes"/>
      <point x="98" y="0"/>
      <point x="121" y="0"/>
      <point x="124" y="0" type="curve" smooth="yes"/>
      <point x="143" y="0"/>
      <point x="146" y="7"/>
      <point x="146" y="16" type="curve" smooth="yes"/>
      <point x="146" y="23"/>
      <point x="144" y="152"/>
      <point x="142" y="203" type="curve"/>
      <point x="142" y="341" type="line"/>
      <point x="141" y="400"/>
      <point x="141" y="435"/>
      <point x="141" y="479" type="curve"/>
      <point x="172" y="502"/>
      <point x="237" y="534"/>
      <point x="296" y="534" type="curve" smooth="yes"/>
      <point x="361" y="534"/>
      <point x="375" y="520"/>
      <point x="398" y="472" type="curve" smooth="yes"/>
      <point x="417" y="430"/>
      <point x="410" y="305"/>
      <point x="410" y="282" type="curve" smooth="yes"/>
      <point x="409" y="233"/>
      <point x="404" y="51"/>
      <point x="404" y="23" type="curve" smooth="yes"/>
      <point x="404" y="3"/>
      <point x="406" y="0"/>
      <point x="415" y="0" type="curve" smooth="yes"/>
      <point x="429" y="0"/>
      <point x="452" y="-1"/>
      <point x="462" y="2" type="curve" smooth="yes"/>
      <point x="471" y="4"/>
      <point x="475" y="7"/>
      <point x="471" y="25" type="curve" smooth="yes"/>
      <point x="467" y="43"/>
      <point x="473" y="172"/>
    </contour>
    <contour>
      <point x="289" y="602" type="move" name="top"/>
    </contour>
    <contour>
      <point x="278" y="0" type="move" name="bottom"/>
    </contour>
  </outline>
</glyph>
<glyph name="o" format="1">
  <advance width="506"/>
  <unicode hex="006F"/>
  <outline>
    <contour>
      <point x="254" y="598" type="curve" smooth="yes"/>
      <point x="172" y="598"/>
      <point x="40" y="540"/>
      <point x="40" y="297" type="curve" smooth="yes"/>
      <point x="40" y="206"/>
      <point x="56" y="-22"/>
      <point x="260" y="-22" type="curve" smooth="yes"/>
      <point x="406" y="-22"/>
      <point x="466" y="163"/>
      <point x="466" y="285" type="curve" smooth="yes"/>
      <point x="466" y="408"/>
      <point x="454" y="598"/>
    </contour>
    <contour>
      <point x="253" y="172" type="curve" smooth="yes"/>
      <point x="201" y="172"/>
      <point x="197" y="229"/>
      <point x="197" y="270" type="curve" smooth="yes"/>
      <point x="197" y="339"/>
      <point x="214" y="382"/>
      <point x="259" y="382" type="curve" smooth="yes"/>
      <point x="295" y="382"/>
      <point x="317" y="357"/>
      <point x="317" y="278" type="curve" smooth="yes"/>
      <point x="317" y="226"/>
      <point x="300" y="172"/>
    </contour>
    <contour>
      <point x="261" y="602" type="move" name="top"/>
    </contour>
    <contour>
      <point x="322" y="0" type="move" name="bottom"/>
    </contour>
  </outline>
</glyph>
<glyph name="r" format="1">
  <advance width="561"/>
  <unicode hex="0072"/>
  <outline>
    <contour>
      <point x="479" y="77"/>
      <point x="202" y="456"/>
      <point x="193" y="465" type="curve"/>
      <point x="201" y="461"/>
      <point x="423" y="463"/>
      <point x="423" y="600" type="curve" smooth="yes"/>
      <point x="423" y="688"/>
      <point x="275" y="699"/>
      <point x="233" y="699" type="curve" smooth="yes"/>
      <point x="192" y="699"/>
      <point x="98" y="702"/>
      <point x="85" y="702" type="curve" smooth="yes"/>
      <point x="71" y="702"/>
      <point x="63" y="699"/>
      <point x="68" y="658" type="curve"/>
      <point x="75" y="616"/>
      <point x="67" y="125"/>
      <point x="66" y="94" type="curve"/>
      <point x="63" y="62"/>
      <point x="66" y="28"/>
      <point x="67" y="17" type="curve" smooth="yes"/>
      <point x="68" y="6"/>
      <point x="67" y="-11"/>
      <point x="79" y="-11" type="curve" smooth="yes"/>
      <point x="92" y="-11"/>
      <point x="119" y="-11"/>
      <point x="119" y="14" type="curve" smooth="yes"/>
      <point x="119" y="39"/>
      <point x="118" y="286"/>
      <point x="114" y="330" type="curve"/>
      <point x="113" y="351"/>
      <point x="113" y="379"/>
      <point x="116" y="402" type="curve" smooth="yes"/>
      <point x="120" y="442" type="line"/>
      <point x="189" y="356" type="line" smooth="yes"/>
      <point x="226" y="309"/>
      <point x="270" y="254"/>
      <point x="294" y="219" type="curve" smooth="yes"/>
      <point x="342" y="150"/>
      <point x="435" y="34"/>
      <point x="443" y="18" type="curve" smooth="yes"/>
      <point x="451" y="2"/>
      <point x="451" y="-5"/>
      <point x="470" y="-8" type="curve" smooth="yes"/>
      <point x="489" y="-11"/>
      <point x="529" y="-9"/>
      <point x="537" y="-3" type="curve" smooth="yes"/>
      <point x="542" y="2"/>
      <point x="553" y="3"/>
      <point x="515" y="41" type="curve" smooth="yes"/>
    </contour>
    <contour>
      <point x="123" y="645" type="line"/>
      <point x="157" y="645" type="line" smooth="yes"/>
      <point x="177" y="645"/>
      <point x="202" y="645"/>
      <point x="227" y="644" type="curve"/>
      <point x="267" y="644"/>
      <point x="350" y="623"/>
      <point x="350" y="580" type="curve" smooth="yes"/>
      <point x="350" y="536"/>
      <point x="310" y="523"/>
      <point x="257" y="514" type="curve" smooth="yes"/>
      <point x="230" y="509"/>
      <point x="195" y="507"/>
      <point x="167" y="506" type="curve" smooth="yes"/>
      <point x="150" y="505"/>
      <point x="134" y="505"/>
      <point x="117" y="505" type="curve"/>
    </contour>
    <contour>
      <point x="281" y="492" type="move" name="top"/>
    </contour>
    <contour>
      <point x="281" y="0" type="move" name="bottom"/>
    </contour>
  </outline>
</glyph>
<glyph name="s" format="1">
  <advance width="489"/>
  <unicode hex="0073"/>
  <outline>
    <contour>
      <point x="452" y="518" type="curve"/>
      <point x="446" y="521"/>
      <point x="367" y="598"/>
      <point x="259" y="598" type="curve"/>
      <point x="141" y="598"/>
      <point x="47" y="530"/>
      <point x="47" y="423" type="curve"/>
      <point x="47" y="243"/>
      <point x="269" y="282"/>
      <point x="269" y="138" type="curve"/>
      <point x="269" y="78"/>
      <point x="221" y="73"/>
      <point x="191" y="73" type="curve"/>
      <point x="138" y="73"/>
      <point x="113" y="98"/>
      <point x="105" y="104" type="curve"/>
      <point x="99" y="110"/>
      <point x="88" y="118"/>
      <point x="82" y="118" type="curve"/>
      <point x="79" y="118"/>
      <point x="78" y="118"/>
      <point x="75" y="115" type="curve"/>
      <point x="66" y="105"/>
      <point x="51" y="84"/>
      <point x="44" y="76" type="curve"/>
      <point x="39" y="70"/>
      <point x="37" y="65"/>
      <point x="37" y="65" type="curve"/>
      <point x="37" y="65"/>
      <point x="34" y="63"/>
      <point x="40" y="57" type="curve"/>
      <point x="47" y="50"/>
      <point x="91" y="-17"/>
      <point x="227" y="-17" type="curve"/>
      <point x="363" y="-17"/>
      <point x="453" y="35"/>
      <point x="453" y="173" type="curve"/>
      <point x="453" y="318"/>
      <point x="345" y="352"/>
      <point x="310" y="366" type="curve"/>
      <point x="280" y="382"/>
      <point x="233" y="400"/>
      <point x="233" y="455" type="curve"/>
      <point x="233" y="500"/>
      <point x="243" y="518"/>
      <point x="273" y="518" type="curve"/>
      <point x="321" y="518"/>
      <point x="401" y="443"/>
      <point x="405" y="443" type="curve"/>
      <point x="414" y="443"/>
      <point x="414" y="446"/>
      <point x="422" y="457" type="curve"/>
      <point x="431" y="467"/>
      <point x="445" y="491"/>
      <point x="451" y="499" type="curve"/>
      <point x="453" y="505"/>
      <point x="456" y="505"/>
      <point x="456" y="511" type="curve"/>
      <point x="456" y="513"/>
      <point x="455" y="516"/>
    </contour>
    <contour>
      <point x="253" y="0" type="move" name="bottom"/>
    </contour>
    <contour>
      <point x="265" y="602" type="move" name="top"/>
    </contour>
  </outline>
</glyph>
<glyph name="x" format="1">
  <advance width="509"/>
  <unicode hex="0078"/>
  <outline>
    <contour>
      <point x="321" y="442" type="curve"/>
      <point x="276" y="369" type="line" smooth="yes"/>
      <point x="270" y="358"/>
      <point x="267" y="344"/>
      <point x="258" y="344" type="curve"/>
      <point x="249" y="358"/>
      <point x="241" y="371"/>
      <point x="233" y="384" type="curve" smooth="yes"/>
      <point x="219" y="407"/>
      <point x="202" y="436"/>
      <point x="189" y="458" type="curve" smooth="yes"/>
      <point x="164" y="501"/>
      <point x="149" y="523"/>
      <point x="136" y="545" type="curve"/>
      <point x="120" y="567"/>
      <point x="114" y="586"/>
      <point x="100" y="587" type="curve" smooth="yes"/>
      <point x="87" y="587"/>
      <point x="62" y="585"/>
      <point x="50" y="585" type="curve" smooth="yes"/>
      <point x="43" y="586"/>
      <point x="39" y="584"/>
      <point x="39" y="578" type="curve" smooth="yes"/>
      <point x="39" y="574"/>
      <point x="40" y="570"/>
      <point x="44" y="563" type="curve" smooth="yes"/>
      <point x="52" y="549"/>
      <point x="123" y="441"/>
      <point x="137" y="416" type="curve" smooth="yes"/>
      <point x="150" y="389"/>
      <point x="196" y="312"/>
      <point x="203" y="298" type="curve" smooth="yes"/>
      <point x="206" y="291"/>
      <point x="208" y="286"/>
      <point x="208" y="278" type="curve" smooth="yes"/>
      <point x="208" y="272"/>
      <point x="206" y="264"/>
      <point x="199" y="253" type="curve" smooth="yes"/>
      <point x="183" y="233"/>
      <point x="150" y="178"/>
      <point x="128" y="149" type="curve"/>
      <point x="108" y="121"/>
      <point x="54" y="48"/>
      <point x="44" y="32" type="curve" smooth="yes"/>
      <point x="38" y="21"/>
      <point x="32" y="14"/>
      <point x="32" y="8" type="curve" smooth="yes"/>
      <point x="32" y="5"/>
      <point x="34" y="2"/>
      <point x="39" y="1" type="curve" smooth="yes"/>
      <point x="48" y="-2"/>
      <point x="67" y="-4"/>
      <point x="77" y="-4" type="curve" smooth="yes"/>
      <point x="82" y="-4"/>
      <point x="87" y="-3"/>
      <point x="91" y="-2" type="curve" smooth="yes"/>
      <point x="100" y="2"/>
      <point x="116" y="29"/>
      <point x="131" y="48" type="curve" smooth="yes"/>
      <point x="147" y="69"/>
      <point x="167" y="116"/>
      <point x="187" y="143" type="curve" smooth="yes"/>
      <point x="208" y="171"/>
      <point x="241" y="214"/>
      <point x="241" y="214" type="curve" smooth="yes"/>
      <point x="241" y="220"/>
      <point x="248" y="224"/>
      <point x="252" y="224" type="curve" smooth="yes"/>
      <point x="254" y="224"/>
      <point x="257" y="221"/>
      <point x="261" y="215" type="curve" smooth="yes"/>
      <point x="270" y="202"/>
      <point x="315" y="126"/>
      <point x="327" y="104" type="curve"/>
      <point x="337" y="81"/>
      <point x="364" y="50"/>
      <point x="376" y="27" type="curve" smooth="yes"/>
      <point x="388" y="5"/>
      <point x="388" y="-4"/>
      <point x="398" y="-5" type="curve"/>
      <point x="457" y="-6" type="line" smooth="yes"/>
      <point x="466" y="-6"/>
      <point x="472" y="-5"/>
      <point x="472" y="0" type="curve" smooth="yes"/>
      <point x="472" y="2"/>
      <point x="471" y="5"/>
      <point x="469" y="9" type="curve" smooth="yes"/>
      <point x="462" y="21"/>
      <point x="426" y="81"/>
      <point x="409" y="108" type="curve"/>
      <point x="389" y="134"/>
      <point x="366" y="175"/>
      <point x="353" y="199" type="curve" smooth="yes"/>
      <point x="340" y="221"/>
      <point x="318" y="254"/>
      <point x="312" y="266" type="curve" smooth="yes"/>
      <point x="309" y="273"/>
      <point x="306" y="278"/>
      <point x="306" y="283" type="curve" smooth="yes"/>
      <point x="306" y="287"/>
      <point x="308" y="291"/>
      <point x="312" y="297" type="curve"/>
      <point x="318" y="310"/>
      <point x="376" y="425"/>
      <point x="392" y="447" type="curve" smooth="yes"/>
      <point x="407" y="469"/>
      <point x="434" y="512"/>
      <point x="451" y="533" type="curve"/>
      <point x="467" y="555"/>
      <point x="473" y="568"/>
      <point x="476" y="578" type="curve" smooth="yes"/>
      <point x="481" y="590"/>
      <point x="464" y="587"/>
      <point x="446" y="587" type="curve" smooth="yes"/>
      <point x="436" y="587"/>
      <point x="423" y="590"/>
      <point x="414" y="586" type="curve" smooth="yes"/>
      <point x="403" y="580"/>
      <point x="393" y="550"/>
      <point x="380" y="533" type="curve" smooth="yes"/>
      <point x="368" y="516"/>
      <point x="332" y="460"/>
    </contour>
  </outline>
</glyph>
<glyph name="z" format="1">
  <advance width="478"/>
  <unicode hex="007A"/>
  <outline>
    <contour>
      <point x="194" y="525" type="curve"/>
      <point x="275" y="524" type="line"/>
      <point x="291" y="523" type="line"/>
      <point x="293" y="522"/>
      <point x="295" y="522"/>
      <point x="298" y="522" type="curve"/>
      <point x="284" y="489" type="line" smooth="yes"/>
      <point x="275" y="469"/>
      <point x="265" y="448"/>
      <point x="256" y="434" type="curve"/>
      <point x="238" y="407"/>
      <point x="188" y="336"/>
      <point x="174" y="310" type="curve"/>
      <point x="159" y="283"/>
      <point x="82" y="172"/>
      <point x="67" y="151" type="curve"/>
      <point x="52" y="129"/>
      <point x="34" y="113"/>
      <point x="34" y="100" type="curve"/>
      <point x="34" y="86"/>
      <point x="31" y="38"/>
      <point x="31" y="27" type="curve"/>
      <point x="31" y="13"/>
      <point x="25" y="-1"/>
      <point x="54" y="-1" type="curve"/>
      <point x="243" y="-1" type="line" smooth="yes"/>
      <point x="264" y="-1"/>
      <point x="306" y="-3"/>
      <point x="341" y="-3" type="curve"/>
      <point x="360" y="-3"/>
      <point x="375" y="-3"/>
      <point x="385" y="-1" type="curve"/>
      <point x="419" y="5"/>
      <point x="434" y="2"/>
      <point x="444" y="5" type="curve"/>
      <point x="454" y="5"/>
      <point x="454" y="6"/>
      <point x="454" y="17" type="curve"/>
      <point x="454" y="19"/>
      <point x="454" y="21"/>
      <point x="454" y="22" type="curve"/>
      <point x="454" y="37"/>
      <point x="456" y="71"/>
      <point x="456" y="83" type="curve"/>
      <point x="455" y="96"/>
      <point x="458" y="109"/>
      <point x="441" y="109" type="curve"/>
      <point x="424" y="109"/>
      <point x="344" y="104"/>
      <point x="314" y="104" type="curve"/>
      <point x="283" y="104"/>
      <point x="262" y="102"/>
      <point x="230" y="102" type="curve"/>
      <point x="213" y="102"/>
      <point x="191" y="103"/>
      <point x="174" y="106" type="curve"/>
      <point x="164" y="107"/>
      <point x="153" y="108"/>
      <point x="142" y="110" type="curve"/>
      <point x="216" y="220" type="line"/>
      <point x="255" y="275"/>
      <point x="295" y="338"/>
      <point x="310" y="361" type="curve"/>
      <point x="338" y="402"/>
      <point x="407" y="513"/>
      <point x="416" y="527" type="curve"/>
      <point x="424" y="540"/>
      <point x="423" y="563"/>
      <point x="423" y="570" type="curve"/>
      <point x="423" y="576"/>
      <point x="424" y="583"/>
      <point x="413" y="583" type="curve"/>
      <point x="411" y="583"/>
      <point x="409" y="582"/>
      <point x="407" y="582" type="curve"/>
      <point x="396" y="581"/>
      <point x="361" y="581"/>
      <point x="330" y="581" type="curve"/>
      <point x="310" y="581"/>
      <point x="293" y="581"/>
      <point x="285" y="581" type="curve"/>
      <point x="268" y="581"/>
      <point x="187" y="584"/>
      <point x="156" y="584" type="curve"/>
      <point x="123" y="584"/>
      <point x="83" y="581"/>
      <point x="58" y="581" type="curve"/>
      <point x="47" y="581"/>
      <point x="34" y="585"/>
      <point x="35" y="569" type="curve"/>
      <point x="37" y="553"/>
      <point x="38" y="543"/>
      <point x="38" y="537" type="curve"/>
      <point x="38" y="531"/>
      <point x="34" y="527"/>
      <point x="46" y="526" type="curve"/>
      <point x="51" y="526"/>
      <point x="64" y="526"/>
      <point x="78" y="526" type="curve"/>
      <point x="100" y="526"/>
      <point x="126" y="526"/>
      <point x="133" y="524" type="curve"/>
      <point x="136" y="524"/>
      <point x="142" y="524"/>
      <point x="146" y="524" type="curve"/>
      <point x="161" y="524"/>
      <point x="181" y="525"/>
    </contour>
    <contour>
      <point x="243" y="0" type="move" name="bottom"/>
    </contour>
    <contour>
      <point x="244" y="602" type="move" name="top"/>
    </contour>
  </outline>
</glyph>
<glyph name="bar" format="1">
  <advance width="206"/>
  <unicode hex="007C"/>
  <outline>
    <contour>
      <point x="131" y="-181"/>
      <point x="146" y="-182"/>
      <point x="146" y="-132" type="curve" smooth="yes"/>
      <point x="146" y="-80"/>
      <point x="146" y="-100"/>
      <point x="146" y="-80" type="curve"/>
      <point x="148" y="-35" type="line" smooth="yes"/>
      <point x="149" y="-12"/>
      <point x="150" y="17"/>
      <point x="150" y="32" type="curve" smooth="yes"/>
      <point x="150" y="61"/>
      <point x="154" y="235"/>
      <point x="154" y="266" type="curve" smooth="yes"/>
      <point x="154" y="299"/>
      <point x="166" y="516"/>
      <point x="166" y="561" type="curve" smooth="yes"/>
      <point x="166" y="604"/>
      <point x="175" y="646"/>
      <point x="172" y="666" type="curve"/>
      <point x="171" y="687"/>
      <point x="170" y="706"/>
      <point x="149" y="705" type="curve"/>
      <point x="90" y="705" type="line"/>
      <point x="75" y="706"/>
      <point x="60" y="705"/>
      <point x="61" y="681" type="curve" smooth="yes"/>
      <point x="61" y="657"/>
      <point x="65" y="568"/>
      <point x="62" y="547" type="curve" smooth="yes"/>
      <point x="59" y="528"/>
      <point x="64" y="403"/>
      <point x="64" y="374" type="curve" smooth="yes"/>
      <point x="64" y="343"/>
      <point x="68" y="206"/>
      <point x="65" y="86" type="curve"/>
      <point x="64" y="-31"/>
      <point x="56" y="-102"/>
      <point x="53" y="-130" type="curve" smooth="yes"/>
      <point x="50" y="-161"/>
      <point x="44" y="-174"/>
      <point x="71" y="-178" type="curve"/>
      <point x="86" y="-179"/>
      <point x="102" y="-180"/>
      <point x="119" y="-179" type="curve"/>
    </contour>
  </outline>
</glyph>
<glyph name="braceright" format="1">
  <advance width="257"/>
  <unicode hex="007D"/>
  <outline>
    <contour>
      <point x="52" y="673" type="line"/>
      <point x="52" y="656"/>
      <point x="65" y="656"/>
      <point x="85" y="656" type="curve"/>
      <point x="105" y="653"/>
      <point x="141" y="643"/>
      <point x="141" y="580" type="curve" smooth="yes"/>
      <point x="141" y="519"/>
      <point x="101" y="523"/>
      <point x="101" y="437" type="curve" smooth="yes"/>
      <point x="101" y="394"/>
      <point x="116" y="363"/>
      <point x="131" y="342" type="curve" smooth="yes"/>
      <point x="140" y="330"/>
      <point x="150" y="320"/>
      <point x="161" y="311" type="curve"/>
      <point x="150" y="305"/>
      <point x="140" y="297"/>
      <point x="131" y="287" type="curve" smooth="yes"/>
      <point x="116" y="270"/>
      <point x="101" y="242"/>
      <point x="101" y="201" type="curve" smooth="yes"/>
      <point x="101" y="141"/>
      <point x="115" y="128"/>
      <point x="115" y="55" type="curve" smooth="yes"/>
      <point x="115" y="-18"/>
      <point x="42" y="-12"/>
      <point x="28" y="-12" type="curve" smooth="yes"/>
      <point x="17" y="-12"/>
      <point x="18" y="-17"/>
      <point x="18" y="-28" type="curve" smooth="yes"/>
      <point x="18" y="-39"/>
      <point x="15" y="-55"/>
      <point x="15" y="-62" type="curve" smooth="yes"/>
      <point x="15" y="-73"/>
      <point x="21" y="-78"/>
      <point x="28" y="-78" type="curve" smooth="yes"/>
      <point x="32" y="-78"/>
      <point x="42" y="-81"/>
      <point x="95" y="-81" type="curve" smooth="yes"/>
      <point x="145" y="-81"/>
      <point x="194" y="-15"/>
      <point x="194" y="38" type="curve" smooth="yes"/>
      <point x="194" y="89"/>
      <point x="175" y="144"/>
      <point x="175" y="204" type="curve" smooth="yes"/>
      <point x="175" y="268"/>
      <point x="213" y="284"/>
      <point x="224" y="284" type="curve" smooth="yes"/>
      <point x="239" y="284"/>
      <point x="238" y="290"/>
      <point x="238" y="297" type="curve" smooth="yes"/>
      <point x="238" y="304"/>
      <point x="234" y="311"/>
      <point x="234" y="324" type="curve" smooth="yes"/>
      <point x="234" y="337"/>
      <point x="235" y="344"/>
      <point x="228" y="344" type="curve" smooth="yes"/>
      <point x="218" y="344"/>
      <point x="185" y="361"/>
      <point x="185" y="410" type="curve" smooth="yes"/>
      <point x="185" y="463"/>
      <point x="218" y="478"/>
      <point x="218" y="603" type="curve" smooth="yes"/>
      <point x="218" y="690"/>
      <point x="118" y="733"/>
      <point x="65" y="733" type="curve" smooth="yes"/>
      <point x="48" y="733"/>
      <point x="52" y="724"/>
      <point x="52" y="713" type="curve" smooth="yes"/>
      <point x="52" y="673" type="line"/>
    </contour>
  </outline>
</glyph>
<glyph name="exclamdown" format="1">
  <advance width="218"/>
  <unicode hex="00A1"/>
  <outline>
    <contour>
      <point x="104" y="588" type="curve" smooth="yes"/>
      <point x="128" y="588"/>
      <point x="163" y="595"/>
      <point x="171" y="637" type="curve" smooth="yes"/>
      <point x="172" y="642"/>
      <point x="172" y="646"/>
      <point x="172" y="651" type="curve" smooth="yes"/>
      <point x="172" y="691"/>
      <point x="143" y="726"/>
      <point x="110" y="726" type="curve" smooth="yes"/>
      <point x="71" y="726"/>
      <point x="40" y="685"/>
      <point x="40" y="665" type="curve"/>
      <point x="39" y="662"/>
      <point x="39" y="659"/>
      <point x="39" y="655" type="curve" smooth="yes"/>
      <point x="39" y="629"/>
      <point x="56" y="588"/>
    </contour>
    <contour>
      <point x="152" y="343" type="curve"/>
      <point x="152" y="422" type="line"/>
      <point x="153" y="443"/>
      <point x="154" y="464"/>
      <point x="154" y="481" type="curve" smooth="yes"/>
      <point x="154" y="492"/>
      <point x="153" y="501"/>
      <point x="152" y="507" type="curve" smooth="yes"/>
      <point x="151" y="523"/>
      <point x="150" y="538"/>
      <point x="135" y="538" type="curve" smooth="yes"/>
      <point x="128" y="538"/>
      <point x="120" y="537"/>
      <point x="112" y="537" type="curve" smooth="yes"/>
      <point x="105" y="537"/>
      <point x="98" y="538"/>
      <point x="90" y="538" type="curve" smooth="yes"/>
      <point x="75" y="539"/>
      <point x="67" y="538"/>
      <point x="67" y="522" type="curve" smooth="yes"/>
      <point x="67" y="521"/>
      <point x="67" y="520"/>
      <point x="67" y="519" type="curve" smooth="yes"/>
      <point x="67" y="509"/>
      <point x="68" y="486"/>
      <point x="68" y="463" type="curve" smooth="yes"/>
      <point x="68" y="452"/>
      <point x="68" y="441"/>
      <point x="67" y="432" type="curve"/>
      <point x="67" y="422"/>
      <point x="67" y="415"/>
      <point x="66" y="411" type="curve" smooth="yes"/>
      <point x="65" y="407"/>
      <point x="66" y="392"/>
      <point x="67" y="367" type="curve" smooth="yes"/>
      <point x="67" y="357"/>
      <point x="68" y="345"/>
      <point x="68" y="332" type="curve" smooth="yes"/>
      <point x="68" y="314"/>
      <point x="67" y="294"/>
      <point x="66" y="271" type="curve"/>
      <point x="59" y="188"/>
      <point x="56" y="132"/>
      <point x="56" y="103" type="curve"/>
      <point x="57" y="89"/>
      <point x="57" y="76"/>
      <point x="57" y="65" type="curve" smooth="yes"/>
      <point x="57" y="54"/>
      <point x="57" y="46"/>
      <point x="56" y="39" type="curve" smooth="yes"/>
      <point x="55" y="30"/>
      <point x="53" y="23"/>
      <point x="53" y="17" type="curve" smooth="yes"/>
      <point x="53" y="8"/>
      <point x="58" y="3"/>
      <point x="75" y="1" type="curve"/>
      <point x="99" y="1"/>
      <point x="121" y="1"/>
      <point x="141" y="0" type="curve" smooth="yes"/>
      <point x="148" y="0"/>
      <point x="162" y="-1"/>
      <point x="162" y="11" type="curve" smooth="yes"/>
      <point x="162" y="11"/>
      <point x="162" y="12"/>
      <point x="162" y="12" type="curve"/>
      <point x="161" y="19"/>
      <point x="161" y="28"/>
      <point x="161" y="38" type="curve" smooth="yes"/>
      <point x="162" y="58"/>
      <point x="160" y="102"/>
      <point x="157" y="171" type="curve" smooth="yes"/>
      <point x="154" y="240"/>
      <point x="153" y="297"/>
    </contour>
  </outline>
</glyph>
<glyph name="cent" format="1">
  <advance width="500"/>
  <unicode hex="00A2"/>
  <outline>
    <contour>
      <point x="295" y="509"/>
      <point x="326" y="492"/>
      <point x="362" y="457" type="curve" smooth="yes"/>
      <point x="376" y="444"/>
      <point x="392" y="448"/>
      <point x="410" y="471" type="curve"/>
      <point x="441" y="519" type="line" smooth="yes"/>
      <point x="451" y="536"/>
      <point x="450" y="551"/>
      <point x="438" y="564" type="curve" smooth="yes"/>
      <point x="400" y="602"/>
      <point x="342" y="621"/>
      <point x="265" y="620" type="curve" smooth="yes"/>
      <point x="202" y="620"/>
      <point x="147" y="599"/>
      <point x="101" y="558" type="curve" smooth="yes"/>
      <point x="55" y="517"/>
      <point x="32" y="454"/>
      <point x="31" y="369" type="curve"/>
      <point x="32" y="206"/>
      <point x="82" y="129"/>
      <point x="171" y="101" type="curve"/>
      <point x="216" y="88"/>
      <point x="254" y="82"/>
      <point x="287" y="83" type="curve"/>
      <point x="332" y="88"/>
      <point x="365" y="96"/>
      <point x="388" y="107" type="curve" smooth="yes"/>
      <point x="411" y="118"/>
      <point x="431" y="134"/>
      <point x="448" y="153" type="curve" smooth="yes"/>
      <point x="464" y="171"/>
      <point x="470" y="185"/>
      <point x="466" y="196" type="curve"/>
      <point x="451" y="223"/>
      <point x="435" y="233"/>
      <point x="418" y="244" type="curve"/>
      <point x="403" y="256"/>
      <point x="399" y="263"/>
      <point x="371" y="242" type="curve"/>
      <point x="348" y="228"/>
      <point x="331" y="219"/>
      <point x="320" y="214" type="curve" smooth="yes"/>
      <point x="309" y="210"/>
      <point x="296" y="208"/>
      <point x="279" y="208" type="curve"/>
      <point x="200" y="212"/>
      <point x="161" y="257"/>
      <point x="161" y="344" type="curve" smooth="yes"/>
      <point x="161" y="408"/>
      <point x="173" y="451"/>
      <point x="196" y="474" type="curve" smooth="yes"/>
      <point x="220" y="497"/>
      <point x="244" y="509"/>
      <point x="269" y="509" type="curve" smooth="yes"/>
    </contour>
    <contour>
      <point x="306" y="692"/>
      <point x="312" y="709"/>
      <point x="297" y="709" type="curve" smooth="yes"/>
      <point x="282" y="709"/>
      <point x="267" y="710"/>
      <point x="260" y="710" type="curve" smooth="yes"/>
      <point x="241" y="710"/>
      <point x="244" y="690"/>
      <point x="245" y="667" type="curve"/>
      <point x="248" y="643"/>
      <point x="238" y="449"/>
      <point x="238" y="383" type="curve" smooth="yes"/>
      <point x="238" y="317"/>
      <point x="234" y="80"/>
      <point x="234" y="42" type="curve" smooth="yes"/>
      <point x="234" y="4"/>
      <point x="228" y="0"/>
      <point x="244" y="0" type="curve" smooth="yes"/>
      <point x="259" y="0"/>
      <point x="280" y="-1"/>
      <point x="289" y="4" type="curve" smooth="yes"/>
      <point x="297" y="8"/>
      <point x="302" y="10"/>
      <point x="298" y="34" type="curve"/>
      <point x="295" y="59"/>
      <point x="292" y="234"/>
      <point x="292" y="286" type="curve" smooth="yes"/>
      <point x="292" y="337"/>
      <point x="300" y="508"/>
      <point x="300" y="562" type="curve" smooth="yes"/>
      <point x="301" y="617"/>
      <point x="302" y="655"/>
      <point x="305" y="675" type="curve"/>
    </contour>
  </outline>
</glyph>
<glyph name="currency" format="1">
  <advance width="500"/>
  <unicode hex="00A4"/>
  <outline>
    <contour>
      <point x="462" y="91" type="curve"/>
      <point x="455" y="102"/>
      <point x="436" y="123"/>
      <point x="400" y="168" type="curve"/>
      <point x="455" y="225"/>
      <point x="460" y="306"/>
      <point x="460" y="332" type="curve" smooth="yes"/>
      <point x="460" y="354"/>
      <point x="450" y="422"/>
      <point x="407" y="479" type="curve"/>
      <point x="438" y="518"/>
      <point x="455" y="537"/>
      <point x="462" y="547" type="curve"/>
      <point x="481" y="566"/>
      <point x="470" y="562"/>
      <point x="483" y="566" type="curve"/>
      <point x="485" y="570"/>
      <point x="487" y="573"/>
      <point x="487" y="576" type="curve" smooth="yes"/>
      <point x="487" y="579"/>
      <point x="485" y="581"/>
      <point x="478" y="584" type="curve"/>
      <point x="473" y="588"/>
      <point x="464" y="592"/>
      <point x="456" y="592" type="curve" smooth="yes"/>
      <point x="451" y="592"/>
      <point x="446" y="591"/>
      <point x="442" y="588" type="curve"/>
      <point x="430" y="584"/>
      <point x="426" y="582"/>
      <point x="415" y="566" type="curve"/>
      <point x="413" y="560"/>
      <point x="395" y="539"/>
      <point x="374" y="514" type="curve"/>
      <point x="362" y="524"/>
      <point x="348" y="533"/>
      <point x="333" y="541" type="curve" smooth="yes"/>
      <point x="306" y="554"/>
      <point x="268" y="554"/>
      <point x="225" y="554" type="curve" smooth="yes"/>
      <point x="186" y="554"/>
      <point x="147" y="539"/>
      <point x="114" y="515" type="curve"/>
      <point x="101" y="533"/>
      <point x="91" y="549"/>
      <point x="85" y="557" type="curve" smooth="yes"/>
      <point x="70" y="574"/>
      <point x="52" y="593"/>
      <point x="44" y="593" type="curve" smooth="yes"/>
      <point x="37" y="593"/>
      <point x="18" y="587"/>
      <point x="12" y="584" type="curve" smooth="yes"/>
      <point x="8" y="582"/>
      <point x="19" y="553"/>
      <point x="39" y="536" type="curve"/>
      <point x="45" y="529"/>
      <point x="62" y="509"/>
      <point x="81" y="486" type="curve"/>
      <point x="46" y="448"/>
      <point x="23" y="397"/>
      <point x="23" y="344" type="curve"/>
      <point x="26" y="300"/>
      <point x="35" y="261"/>
      <point x="50" y="227" type="curve" smooth="yes"/>
      <point x="60" y="205"/>
      <point x="73" y="183"/>
      <point x="91" y="164" type="curve"/>
      <point x="68" y="137"/>
      <point x="46" y="111"/>
      <point x="39" y="102" type="curve"/>
      <point x="19" y="85"/>
      <point x="8" y="56"/>
      <point x="12" y="54" type="curve" smooth="yes"/>
      <point x="18" y="51"/>
      <point x="37" y="45"/>
      <point x="44" y="45" type="curve" smooth="yes"/>
      <point x="52" y="45"/>
      <point x="70" y="64"/>
      <point x="85" y="81" type="curve" smooth="yes"/>
      <point x="92" y="90"/>
      <point x="103" y="109"/>
      <point x="119" y="128" type="curve" smooth="yes"/>
      <point x="126" y="136" type="line"/>
      <point x="154" y="119"/>
      <point x="189" y="108"/>
      <point x="235" y="108" type="curve" smooth="yes"/>
      <point x="289" y="108"/>
      <point x="331" y="120"/>
      <point x="362" y="139" type="curve"/>
      <point x="387" y="107"/>
      <point x="412" y="79"/>
      <point x="415" y="72" type="curve"/>
      <point x="426" y="56"/>
      <point x="430" y="54"/>
      <point x="442" y="50" type="curve"/>
      <point x="446" y="47"/>
      <point x="451" y="46"/>
      <point x="456" y="46" type="curve" smooth="yes"/>
      <point x="464" y="46"/>
      <point x="473" y="50"/>
      <point x="478" y="54" type="curve"/>
      <point x="485" y="57"/>
      <point x="487" y="59"/>
      <point x="487" y="62" type="curve" smooth="yes"/>
      <point x="487" y="65"/>
      <point x="485" y="68"/>
      <point x="483" y="72" type="curve"/>
      <point x="470" y="76"/>
      <point x="481" y="72"/>
    </contour>
    <contour>
      <point x="232" y="169" type="curve" smooth="yes"/>
      <point x="132" y="169"/>
      <point x="97" y="255"/>
      <point x="97" y="337" type="curve" smooth="yes"/>
      <point x="97" y="416"/>
      <point x="158" y="463"/>
      <point x="179" y="476" type="curve"/>
      <point x="196" y="492"/>
      <point x="217" y="491"/>
      <point x="241" y="491" type="curve" smooth="yes"/>
      <point x="320" y="491"/>
      <point x="372" y="415"/>
      <point x="372" y="332" type="curve" smooth="yes"/>
      <point x="372" y="249"/>
      <point x="333" y="169"/>
    </contour>
  </outline>
</glyph>
<glyph name="yen" format="1">
  <advance width="500"/>
  <unicode hex="00A5"/>
  <outline>
    <contour>
      <point x="441" y="230" type="curve"/>
      <point x="438" y="230"/>
      <point x="435" y="229"/>
      <point x="431" y="229" type="curve"/>
      <point x="314" y="229" type="line"/>
      <point x="317" y="237"/>
      <point x="320" y="245"/>
      <point x="322" y="253" type="curve"/>
      <point x="338" y="298" type="line"/>
      <point x="342" y="310" type="line"/>
      <point x="436" y="310" type="line" smooth="yes"/>
      <point x="447" y="310"/>
      <point x="455" y="308"/>
      <point x="462" y="308" type="curve"/>
      <point x="469" y="308"/>
      <point x="473" y="311"/>
      <point x="474" y="324" type="curve"/>
      <point x="475" y="331"/>
      <point x="476" y="339"/>
      <point x="476" y="347" type="curve"/>
      <point x="476" y="363"/>
      <point x="474" y="378"/>
      <point x="474" y="387" type="curve"/>
      <point x="473" y="406"/>
      <point x="469" y="409"/>
      <point x="449" y="409" type="curve"/>
      <point x="438" y="409"/>
      <point x="420" y="408"/>
      <point x="396" y="407" type="curve"/>
      <point x="374" y="405" type="line"/>
      <point x="388" y="445" type="line" smooth="yes"/>
      <point x="404" y="492"/>
      <point x="418" y="537"/>
      <point x="425" y="556" type="curve"/>
      <point x="441" y="594"/>
      <point x="456" y="660"/>
      <point x="461" y="672" type="curve"/>
      <point x="462" y="675"/>
      <point x="463" y="678"/>
      <point x="463" y="681" type="curve"/>
      <point x="463" y="686"/>
      <point x="458" y="689"/>
      <point x="445" y="691" type="curve"/>
      <point x="436" y="692"/>
      <point x="421" y="693"/>
      <point x="406" y="693" type="curve"/>
      <point x="386" y="693"/>
      <point x="366" y="692"/>
      <point x="360" y="692" type="curve"/>
      <point x="350" y="692" type="line" smooth="yes"/>
      <point x="341" y="692"/>
      <point x="332" y="689"/>
      <point x="326" y="663" type="curve"/>
      <point x="321" y="630"/>
      <point x="304" y="568"/>
      <point x="294" y="548" type="curve"/>
      <point x="286" y="526"/>
      <point x="253" y="424"/>
      <point x="245" y="400" type="curve"/>
      <point x="241" y="387"/>
      <point x="236" y="372"/>
      <point x="233" y="357" type="curve"/>
      <point x="230" y="349"/>
      <point x="228" y="341"/>
      <point x="226" y="332" type="curve"/>
      <point x="221" y="349"/>
      <point x="217" y="365"/>
      <point x="212" y="380" type="curve"/>
      <point x="204" y="407"/>
      <point x="195" y="437"/>
      <point x="187" y="456" type="curve"/>
      <point x="174" y="494"/>
      <point x="154" y="553"/>
      <point x="144" y="587" type="curve"/>
      <point x="135" y="622"/>
      <point x="124" y="659"/>
      <point x="121" y="670" type="curve"/>
      <point x="120" y="681"/>
      <point x="125" y="688"/>
      <point x="109" y="691" type="curve"/>
      <point x="96" y="692"/>
      <point x="78" y="693"/>
      <point x="66" y="692" type="curve"/>
      <point x="53" y="691"/>
      <point x="39" y="690"/>
      <point x="39" y="679" type="curve"/>
      <point x="39" y="668"/>
      <point x="50" y="653"/>
      <point x="57" y="626" type="curve"/>
      <point x="63" y="607"/>
      <point x="93" y="507"/>
      <point x="110" y="445" type="curve"/>
      <point x="123" y="405" type="line"/>
      <point x="55" y="405" type="line"/>
      <point x="49" y="406"/>
      <point x="44" y="407"/>
      <point x="40" y="407" type="curve"/>
      <point x="30" y="407"/>
      <point x="25" y="402"/>
      <point x="25" y="383" type="curve"/>
      <point x="25" y="370"/>
      <point x="23" y="360"/>
      <point x="23" y="351" type="curve"/>
      <point x="23" y="346"/>
      <point x="24" y="341"/>
      <point x="25" y="336" type="curve"/>
      <point x="26" y="322"/>
      <point x="29" y="313"/>
      <point x="40" y="313" type="curve"/>
      <point x="42" y="313"/>
      <point x="44" y="313"/>
      <point x="47" y="314" type="curve"/>
      <point x="61" y="314"/>
      <point x="110" y="316"/>
      <point x="144" y="318" type="curve"/>
      <point x="147" y="318" type="line"/>
      <point x="150" y="311" type="line" smooth="yes"/>
      <point x="156" y="293"/>
      <point x="164" y="259"/>
      <point x="170" y="238" type="curve"/>
      <point x="171" y="235"/>
      <point x="172" y="232"/>
      <point x="172" y="229" type="curve"/>
      <point x="53" y="229" type="line" smooth="yes"/>
      <point x="36" y="229"/>
      <point x="33" y="221"/>
      <point x="33" y="205" type="curve"/>
      <point x="33" y="164" type="line" smooth="yes"/>
      <point x="33" y="155"/>
      <point x="34" y="147"/>
      <point x="47" y="147" type="curve"/>
      <point x="55" y="149"/>
      <point x="91" y="151"/>
      <point x="116" y="151" type="curve"/>
      <point x="156" y="151" type="line"/>
      <point x="154" y="147" type="line" smooth="yes"/>
      <point x="149" y="132"/>
      <point x="145" y="120"/>
      <point x="144" y="111" type="curve"/>
      <point x="137" y="90" type="line"/>
      <point x="130" y="62"/>
      <point x="115" y="21"/>
      <point x="113" y="14" type="curve"/>
      <point x="112" y="10"/>
      <point x="110" y="6"/>
      <point x="110" y="3" type="curve"/>
      <point x="110" y="-1"/>
      <point x="112" y="-3"/>
      <point x="120" y="-3" type="curve"/>
      <point x="128" y="-3"/>
      <point x="142" y="-2"/>
      <point x="155" y="-2" type="curve"/>
      <point x="201" y="-2" type="line" smooth="yes"/>
      <point x="212" y="-2"/>
      <point x="223" y="-1"/>
      <point x="231" y="-1" type="curve"/>
      <point x="241" y="-1" type="line"/>
      <point x="248" y="-2"/>
      <point x="252" y="5"/>
      <point x="255" y="19" type="curve"/>
      <point x="258" y="33"/>
      <point x="262" y="75"/>
      <point x="268" y="92" type="curve"/>
      <point x="269" y="97"/>
      <point x="277" y="120"/>
      <point x="288" y="151" type="curve"/>
      <point x="295" y="151"/>
      <point x="304" y="151"/>
      <point x="315" y="150" type="curve"/>
      <point x="353" y="150"/>
      <point x="401" y="147"/>
      <point x="424" y="147" type="curve"/>
      <point x="456" y="147"/>
      <point x="461" y="151"/>
      <point x="461" y="164" type="curve"/>
      <point x="461" y="209" type="line" smooth="yes"/>
      <point x="461" y="220"/>
      <point x="462" y="230"/>
    </contour>
  </outline>
</glyph>
<glyph name="brokenbar" format="1">
  <advance width="210"/>
  <unicode hex="00A6"/>
  <outline>
    <contour>
      <point x="73" y="705" type="curve"/>
      <point x="68" y="705"/>
      <point x="63" y="703"/>
      <point x="63" y="694" type="curve"/>
      <point x="63" y="549" type="line" smooth="yes"/>
      <point x="63" y="496"/>
      <point x="63" y="461"/>
      <point x="64" y="446" type="curve"/>
      <point x="65" y="431"/>
      <point x="66" y="420"/>
      <point x="66" y="411" type="curve"/>
      <point x="66" y="335" type="line"/>
      <point x="65" y="329"/>
      <point x="64" y="325"/>
      <point x="64" y="321" type="curve"/>
      <point x="64" y="313"/>
      <point x="67" y="309"/>
      <point x="72" y="309" type="curve"/>
      <point x="74" y="308"/>
      <point x="77" y="308"/>
      <point x="80" y="308" type="curve"/>
      <point x="95" y="308"/>
      <point x="117" y="313"/>
      <point x="133" y="313" type="curve"/>
      <point x="145" y="313"/>
      <point x="152" y="308"/>
      <point x="152" y="332" type="curve"/>
      <point x="152" y="343"/>
      <point x="156" y="370"/>
      <point x="156" y="395" type="curve"/>
      <point x="156" y="408"/>
      <point x="155" y="420"/>
      <point x="152" y="429" type="curve"/>
      <point x="152" y="440"/>
      <point x="151" y="457"/>
      <point x="150" y="517" type="curve"/>
      <point x="150" y="577"/>
      <point x="149" y="591"/>
      <point x="149" y="606" type="curve"/>
      <point x="149" y="631"/>
      <point x="145" y="669"/>
      <point x="145" y="678" type="curve"/>
      <point x="145" y="684"/>
      <point x="146" y="689"/>
      <point x="146" y="694" type="curve"/>
      <point x="146" y="700"/>
      <point x="144" y="704"/>
      <point x="137" y="704" type="curve"/>
      <point x="84" y="704" type="line" smooth="yes"/>
      <point x="81" y="704"/>
      <point x="77" y="705"/>
    </contour>
    <contour>
      <point x="70" y="215" type="curve"/>
      <point x="65" y="215"/>
      <point x="60" y="213"/>
      <point x="60" y="204" type="curve"/>
      <point x="60" y="59" type="line" smooth="yes"/>
      <point x="60" y="6"/>
      <point x="60" y="-28"/>
      <point x="61" y="-43" type="curve"/>
      <point x="62" y="-58"/>
      <point x="63" y="-70"/>
      <point x="63" y="-79" type="curve"/>
      <point x="63" y="-155" type="line"/>
      <point x="62" y="-161"/>
      <point x="61" y="-165"/>
      <point x="61" y="-169" type="curve"/>
      <point x="61" y="-177"/>
      <point x="64" y="-181"/>
      <point x="69" y="-181" type="curve"/>
      <point x="76" y="-184"/>
      <point x="126" y="-177"/>
      <point x="140" y="-177" type="curve"/>
      <point x="152" y="-177"/>
      <point x="159" y="-182"/>
      <point x="159" y="-158" type="curve"/>
      <point x="159" y="-147"/>
      <point x="163" y="-120"/>
      <point x="163" y="-95" type="curve"/>
      <point x="163" y="-82"/>
      <point x="162" y="-70"/>
      <point x="159" y="-61" type="curve"/>
      <point x="159" y="-50"/>
      <point x="158" y="-33"/>
      <point x="157" y="27" type="curve"/>
      <point x="157" y="87"/>
      <point x="156" y="101"/>
      <point x="156" y="116" type="curve"/>
      <point x="156" y="141"/>
      <point x="152" y="179"/>
      <point x="152" y="188" type="curve"/>
      <point x="152" y="194"/>
      <point x="153" y="199"/>
      <point x="153" y="204" type="curve"/>
      <point x="153" y="210"/>
      <point x="151" y="214"/>
      <point x="144" y="214" type="curve"/>
      <point x="81" y="214" type="line" smooth="yes"/>
      <point x="78" y="214"/>
      <point x="74" y="215"/>
    </contour>
  </outline>
</glyph>
<glyph name="section" format="1">
  <advance width="447"/>
  <unicode hex="00A7"/>
  <outline>
    <contour>
      <point x="382" y="639" type="curve"/>
      <point x="389" y="652" type="line"/>
      <point x="389" y="658" type="line" smooth="yes"/>
      <point x="389" y="661"/>
      <point x="387" y="663"/>
      <point x="384" y="666" type="curve" smooth="yes"/>
      <point x="379" y="671"/>
      <point x="325" y="717"/>
      <point x="262" y="717" type="curve" smooth="yes"/>
      <point x="197" y="717"/>
      <point x="81" y="700"/>
      <point x="81" y="577" type="curve" smooth="yes"/>
      <point x="81" y="554"/>
      <point x="84" y="533"/>
      <point x="91" y="515" type="curve" smooth="yes"/>
      <point x="96" y="504"/>
      <point x="101" y="495"/>
      <point x="106" y="486" type="curve"/>
      <point x="96" y="476"/>
      <point x="87" y="464"/>
      <point x="78" y="450" type="curve" smooth="yes"/>
      <point x="69" y="436"/>
      <point x="64" y="413"/>
      <point x="64" y="381" type="curve"/>
      <point x="70" y="287"/>
      <point x="91" y="242"/>
      <point x="193" y="190" type="curve" smooth="yes"/>
      <point x="228" y="173"/>
      <point x="277" y="162"/>
      <point x="294" y="108" type="curve"/>
      <point x="296" y="63"/>
      <point x="267" y="59"/>
      <point x="235" y="59" type="curve" smooth="yes"/>
      <point x="210" y="59"/>
      <point x="162" y="81"/>
      <point x="127" y="108" type="curve" smooth="yes"/>
      <point x="92" y="135"/>
      <point x="77" y="151"/>
      <point x="73" y="151" type="curve" smooth="yes"/>
      <point x="66" y="151"/>
      <point x="66" y="146"/>
      <point x="59" y="139" type="curve" smooth="yes"/>
      <point x="51" y="130"/>
      <point x="40" y="110"/>
      <point x="35" y="103" type="curve" smooth="yes"/>
      <point x="33" y="99"/>
      <point x="30" y="96"/>
      <point x="30" y="93" type="curve" smooth="yes"/>
      <point x="30" y="91"/>
      <point x="31" y="89"/>
      <point x="34" y="86" type="curve" smooth="yes"/>
      <point x="38" y="83"/>
      <point x="53" y="66"/>
      <point x="94" y="38" type="curve" smooth="yes"/>
      <point x="135" y="11"/>
      <point x="180" y="-10"/>
      <point x="251" y="-10" type="curve" smooth="yes"/>
      <point x="295" y="-10"/>
      <point x="327" y="0"/>
      <point x="351" y="24" type="curve" smooth="yes"/>
      <point x="364" y="37"/>
      <point x="374" y="50"/>
      <point x="382" y="65" type="curve" smooth="yes"/>
      <point x="391" y="80"/>
      <point x="396" y="105"/>
      <point x="399" y="141" type="curve"/>
      <point x="398" y="176"/>
      <point x="393" y="201"/>
      <point x="383" y="218" type="curve"/>
      <point x="376" y="227"/>
      <point x="369" y="234"/>
      <point x="360" y="240" type="curve"/>
      <point x="369" y="249"/>
      <point x="376" y="259"/>
      <point x="382" y="271" type="curve" smooth="yes"/>
      <point x="391" y="288"/>
      <point x="396" y="315"/>
      <point x="396" y="349" type="curve" smooth="yes"/>
      <point x="396" y="440"/>
      <point x="342" y="478"/>
      <point x="281" y="513" type="curve" smooth="yes"/>
      <point x="222" y="547"/>
      <point x="173" y="558"/>
      <point x="173" y="611" type="curve" smooth="yes"/>
      <point x="173" y="614"/>
      <point x="173" y="619"/>
      <point x="174" y="623" type="curve" smooth="yes"/>
      <point x="189" y="668"/>
      <point x="224" y="657"/>
      <point x="262" y="661" type="curve"/>
      <point x="290" y="661"/>
      <point x="337" y="638"/>
      <point x="348" y="627" type="curve" smooth="yes"/>
      <point x="361" y="616"/>
      <point x="360" y="615"/>
      <point x="363" y="615" type="curve" smooth="yes"/>
      <point x="364" y="615"/>
      <point x="364" y="615"/>
      <point x="365" y="615" type="curve"/>
      <point x="378" y="635"/>
      <point x="379" y="635"/>
    </contour>
    <contour>
      <point x="322" y="278" type="curve"/>
      <point x="316" y="266" type="line"/>
      <point x="295" y="277"/>
      <point x="272" y="287"/>
      <point x="247" y="295" type="curve" smooth="yes"/>
      <point x="191" y="315"/>
      <point x="175" y="325"/>
      <point x="160" y="341" type="curve"/>
      <point x="149" y="355"/>
      <point x="140" y="367"/>
      <point x="140" y="394" type="curve" smooth="yes"/>
      <point x="140" y="398"/>
      <point x="140" y="403"/>
      <point x="141" y="409" type="curve" smooth="yes"/>
      <point x="142" y="422"/>
      <point x="147" y="432"/>
      <point x="156" y="441" type="curve"/>
      <point x="166" y="436"/>
      <point x="176" y="431"/>
      <point x="186" y="427" type="curve" smooth="yes"/>
      <point x="211" y="416"/>
      <point x="232" y="410"/>
      <point x="245" y="403" type="curve" smooth="yes"/>
      <point x="283" y="384"/>
      <point x="324" y="356"/>
      <point x="327" y="310" type="curve"/>
      <point x="327" y="299"/>
      <point x="325" y="289"/>
    </contour>
  </outline>
</glyph>
<glyph name="copyright" format="1">
  <advance width="748"/>
  <unicode hex="00A9"/>
  <outline>
    <contour>
      <point x="472" y="683"/>
      <point x="414" y="682"/>
      <point x="350" y="682" type="curve" smooth="yes"/>
      <point x="193" y="682"/>
      <point x="42" y="535"/>
      <point x="42" y="373" type="curve"/>
      <point x="46" y="308"/>
      <point x="60" y="249"/>
      <point x="84" y="197" type="curve" smooth="yes"/>
      <point x="125" y="112"/>
      <point x="203" y="24"/>
      <point x="364" y="24" type="curve" smooth="yes"/>
      <point x="683" y="24"/>
      <point x="706" y="294"/>
      <point x="706" y="354" type="curve"/>
      <point x="705" y="404"/>
      <point x="672" y="584"/>
      <point x="513" y="662" type="curve" smooth="yes"/>
    </contour>
    <contour>
      <point x="181" y="74"/>
      <point x="118" y="221"/>
      <point x="118" y="363" type="curve" smooth="yes"/>
      <point x="118" y="505"/>
      <point x="229" y="576"/>
      <point x="264" y="603" type="curve"/>
      <point x="297" y="631"/>
      <point x="331" y="629"/>
      <point x="375" y="629" type="curve" smooth="yes"/>
      <point x="515" y="629"/>
      <point x="607" y="503"/>
      <point x="607" y="354" type="curve" smooth="yes"/>
      <point x="607" y="207"/>
      <point x="538" y="74"/>
      <point x="358" y="74" type="curve" smooth="yes"/>
    </contour>
    <contour>
      <point x="380" y="463"/>
      <point x="388" y="451"/>
      <point x="399" y="439" type="curve" smooth="yes"/>
      <point x="410" y="427"/>
      <point x="417" y="437"/>
      <point x="426" y="448" type="curve"/>
      <point x="434" y="460"/>
      <point x="451" y="475"/>
      <point x="463" y="484" type="curve" smooth="yes"/>
      <point x="474" y="492"/>
      <point x="470" y="496"/>
      <point x="463" y="504" type="curve"/>
      <point x="458" y="514"/>
      <point x="426" y="553"/>
      <point x="363" y="553" type="curve" smooth="yes"/>
      <point x="300" y="553"/>
      <point x="231" y="474"/>
      <point x="231" y="355" type="curve" smooth="yes"/>
      <point x="231" y="239"/>
      <point x="303" y="150"/>
      <point x="375" y="150" type="curve" smooth="yes"/>
      <point x="450" y="150"/>
      <point x="481" y="203"/>
      <point x="487" y="215" type="curve"/>
      <point x="495" y="226"/>
      <point x="485" y="227"/>
      <point x="474" y="232" type="curve"/>
      <point x="464" y="240"/>
      <point x="433" y="252"/>
      <point x="426" y="259" type="curve"/>
      <point x="417" y="263"/>
      <point x="416" y="261"/>
      <point x="411" y="254" type="curve"/>
      <point x="403" y="248"/>
      <point x="388" y="232"/>
      <point x="371" y="232" type="curve" smooth="yes"/>
      <point x="355" y="232"/>
      <point x="304" y="251"/>
      <point x="304" y="341" type="curve" smooth="yes"/>
      <point x="304" y="434"/>
      <point x="341" y="463"/>
      <point x="365" y="463" type="curve" smooth="yes"/>
    </contour>
  </outline>
</glyph>
<glyph name="guillemotleft" format="1">
  <advance width="616"/>
  <unicode hex="00AB"/>
  <outline>
    <contour>
      <point x="309" y="298" type="curve"/>
      <point x="353" y="232" type="line" smooth="yes"/>
      <point x="367" y="212"/>
      <point x="382" y="190"/>
      <point x="399" y="167" type="curve" smooth="yes"/>
      <point x="416" y="144"/>
      <point x="427" y="125"/>
      <point x="434" y="112" type="curve"/>
      <point x="449" y="78"/>
      <point x="455" y="77"/>
      <point x="505" y="77" type="curve" smooth="yes"/>
      <point x="513" y="77"/>
      <point x="522" y="77"/>
      <point x="533" y="80" type="curve" smooth="yes"/>
      <point x="541" y="82"/>
      <point x="545" y="86"/>
      <point x="545" y="93" type="curve" smooth="yes"/>
      <point x="545" y="101"/>
      <point x="539" y="112"/>
      <point x="530" y="125" type="curve" smooth="yes"/>
      <point x="522" y="136"/>
      <point x="487" y="196"/>
      <point x="434" y="271" type="curve"/>
      <point x="415" y="290"/>
      <point x="400" y="310"/>
      <point x="389" y="331" type="curve"/>
      <point x="399" y="360"/>
      <point x="412" y="384"/>
      <point x="427" y="403" type="curve"/>
      <point x="444" y="417"/>
      <point x="536" y="582"/>
      <point x="549" y="596" type="curve" smooth="yes"/>
      <point x="555" y="603"/>
      <point x="558" y="608"/>
      <point x="558" y="612" type="curve" smooth="yes"/>
      <point x="558" y="616"/>
      <point x="554" y="618"/>
      <point x="546" y="618" type="curve" smooth="yes"/>
      <point x="541" y="618"/>
      <point x="528" y="619"/>
      <point x="517" y="619" type="curve" smooth="yes"/>
      <point x="479" y="619" type="line"/>
      <point x="460" y="620"/>
      <point x="448" y="620"/>
      <point x="445" y="620" type="curve" smooth="yes"/>
      <point x="434" y="620"/>
      <point x="431" y="597"/>
      <point x="423" y="581" type="curve"/>
      <point x="415" y="573"/>
      <point x="417" y="561"/>
      <point x="405" y="541" type="curve" smooth="yes"/>
      <point x="394" y="522"/>
      <point x="383" y="500"/>
      <point x="378" y="488" type="curve" smooth="yes"/>
      <point x="375" y="482"/>
      <point x="366" y="468"/>
      <point x="351" y="447" type="curve" smooth="yes"/>
      <point x="336" y="426"/>
      <point x="324" y="409"/>
      <point x="314" y="398" type="curve" smooth="yes"/>
      <point x="305" y="387"/>
      <point x="294" y="373"/>
      <point x="283" y="356" type="curve"/>
      <point x="285" y="342"/>
      <point x="294" y="323"/>
    </contour>
    <contour>
      <point x="222" y="74" type="curve"/>
      <point x="256" y="74" type="line"/>
      <point x="276" y="75"/>
      <point x="289" y="75"/>
      <point x="294" y="75" type="curve" smooth="yes"/>
      <point x="305" y="75"/>
      <point x="318" y="76"/>
      <point x="323" y="76" type="curve" smooth="yes"/>
      <point x="331" y="76"/>
      <point x="334" y="78"/>
      <point x="334" y="81" type="curve" smooth="yes"/>
      <point x="334" y="85"/>
      <point x="331" y="91"/>
      <point x="323" y="98" type="curve"/>
      <point x="311" y="114"/>
      <point x="193" y="275"/>
      <point x="177" y="291" type="curve"/>
      <point x="170" y="300"/>
      <point x="160" y="315"/>
      <point x="149" y="335" type="curve"/>
      <point x="181" y="377" type="line"/>
      <point x="217" y="423" type="line"/>
      <point x="248" y="458"/>
      <point x="255" y="476"/>
      <point x="274" y="501" type="curve" smooth="yes"/>
      <point x="294" y="528"/>
      <point x="306" y="558"/>
      <point x="313" y="569" type="curve" smooth="yes"/>
      <point x="320" y="580"/>
      <point x="324" y="590"/>
      <point x="324" y="598" type="curve" smooth="yes"/>
      <point x="324" y="606"/>
      <point x="320" y="612"/>
      <point x="310" y="614" type="curve" smooth="yes"/>
      <point x="287" y="620"/>
      <point x="251" y="619"/>
      <point x="226" y="619" type="curve" smooth="yes"/>
      <point x="207" y="619"/>
      <point x="188" y="617"/>
      <point x="174" y="617" type="curve" smooth="yes"/>
      <point x="159" y="617"/>
      <point x="145" y="607"/>
      <point x="141" y="582" type="curve"/>
      <point x="138" y="569"/>
      <point x="128" y="540"/>
      <point x="119" y="519" type="curve" smooth="yes"/>
      <point x="115" y="508"/>
      <point x="99" y="479"/>
      <point x="70" y="431" type="curve" smooth="yes"/>
      <point x="42" y="383"/>
      <point x="28" y="352"/>
      <point x="27" y="338" type="curve"/>
      <point x="40" y="321"/>
      <point x="52" y="306"/>
      <point x="63" y="295" type="curve" smooth="yes"/>
      <point x="74" y="284"/>
      <point x="89" y="268"/>
      <point x="107" y="247" type="curve" smooth="yes"/>
      <point x="125" y="226"/>
      <point x="136" y="212"/>
      <point x="139" y="206" type="curve" smooth="yes"/>
      <point x="146" y="194"/>
      <point x="158" y="172"/>
      <point x="173" y="152" type="curve" smooth="yes"/>
      <point x="188" y="133"/>
      <point x="187" y="121"/>
      <point x="195" y="113" type="curve"/>
      <point x="206" y="97"/>
      <point x="211" y="74"/>
    </contour>
  </outline>
</glyph>
